<svg width="87" height="24" viewBox="0 0 87 24" fill="none" xmlns="http://www.w3.org/2000/svg">
<path d="M53.0622 22.4275L44.7269 2.13994C44.6611 1.95485 44.6264 1.76006 44.6243 1.56355C44.6079 1.1475 44.7549 0.74161 45.0336 0.433171C45.1766 0.286428 45.3492 0.172062 45.5398 0.097746C45.7304 0.0234294 45.9346 -0.00911943 46.1388 0.00228278C46.4483 0.00585416 46.7489 0.106421 46.9987 0.289915C47.261 0.485292 47.4663 0.747726 47.5931 1.04984L55.5191 20.9065L63.4462 1.04984C63.5723 0.747578 63.7772 0.485041 64.0395 0.289915C64.2893 0.106421 64.5899 0.00585416 64.8994 0.00228278C65.1038 -0.0092816 65.3082 0.0231879 65.499 0.0975092C65.6899 0.171831 65.8626 0.286282 66.0057 0.433171C66.2844 0.74161 66.4314 1.1475 66.415 1.56355C66.4129 1.7597 66.3782 1.95412 66.3124 2.13882L57.9771 22.4275C57.5076 23.4762 56.8094 23.9944 55.8882 23.9944H55.1511C54.2299 23.9899 53.5329 23.4762 53.0622 22.4275Z" fill="url(#paint0_linear_1077_6650)"/>
<path d="M69.9579 23.3732C69.8164 23.2301 69.7053 23.0598 69.6313 22.8724C69.5573 22.685 69.5219 22.4845 69.5274 22.2831V1.72802C69.5199 1.31589 69.6746 0.917395 69.9579 0.618908C70.0966 0.471051 70.2651 0.354624 70.4523 0.277419C70.6394 0.200214 70.8408 0.16401 71.043 0.171232H84.5809C84.7723 0.165864 84.9626 0.201521 85.1391 0.275825C85.3157 0.350128 85.4744 0.461368 85.6047 0.60212C85.7436 0.734218 85.8536 0.893878 85.9277 1.07095C86.0019 1.24802 86.0385 1.43863 86.0352 1.63066C86.0402 1.81979 86.0043 2.00778 85.93 2.18166C85.8557 2.35555 85.7447 2.51121 85.6047 2.63793C85.3302 2.90349 84.9621 3.04916 84.5809 3.04307H72.5999V10.5271H83.372C83.5634 10.5219 83.7538 10.5578 83.9303 10.6323C84.1069 10.7068 84.2655 10.8182 84.3958 10.9591C84.5333 11.092 84.6425 11.2517 84.7165 11.4283C84.7905 11.605 84.8279 11.7949 84.8263 11.9865C84.8313 12.1757 84.7954 12.3636 84.7211 12.5375C84.6468 12.7114 84.5358 12.8671 84.3958 12.9938C84.2607 13.1267 84.1006 13.2315 83.9249 13.302C83.7491 13.3725 83.5612 13.4074 83.372 13.4045H72.5999V20.9277H84.5809C84.7724 20.922 84.9629 20.9576 85.1396 21.0321C85.3162 21.1066 85.4748 21.2184 85.6047 21.3597C85.7437 21.4915 85.8538 21.651 85.9279 21.8279C86.002 22.0048 86.0386 22.1953 86.0352 22.3871C86.0402 22.5763 86.0043 22.7643 85.93 22.9382C85.8557 23.112 85.7447 23.2677 85.6047 23.3944C85.3311 23.662 84.9629 23.8097 84.5809 23.8052H71.043C70.8414 23.8201 70.639 23.789 70.451 23.7142C70.2631 23.6393 70.0945 23.5227 69.9579 23.3732Z" fill="url(#paint1_linear_1077_6650)"/>
<path d="M46.6106 21.8523L38.2764 1.56364C37.8069 0.516076 37.1054 0.00236782 36.1875 0.00236782H35.4493C34.527 0.00236782 33.8311 0.516076 33.3604 1.56923L29.7348 10.4108H26.9913C26.5954 10.4132 26.2163 10.5721 25.9364 10.853C25.6564 11.134 25.4981 11.5143 25.4957 11.9117V11.9318C25.4978 12.3292 25.656 12.7098 25.936 12.9908C26.2161 13.2718 26.5953 13.4306 26.9913 13.4326H28.4656L25.0084 21.8601C24.9427 22.0449 24.908 22.2393 24.9058 22.4354C24.8893 22.8515 25.0363 23.2574 25.3151 23.5658C25.4581 23.7128 25.6308 23.8274 25.8216 23.902C26.0125 23.9765 26.217 24.0091 26.4214 23.9978C26.7307 23.9932 27.031 23.8927 27.2812 23.7102C27.5434 23.5141 27.7486 23.2514 27.8757 22.9491L31.6842 13.436H34.3039C34.6998 13.4337 35.0789 13.2748 35.3588 12.9938C35.6388 12.7129 35.7971 12.3325 35.7994 11.9352V11.8848C35.7974 11.4874 35.6392 11.1068 35.3591 10.8258C35.0791 10.5448 34.6999 10.386 34.3039 10.384H32.8876L35.8173 3.08685L43.7433 22.9435C43.8693 23.2458 44.0743 23.5083 44.3366 23.7035C44.5866 23.8872 44.8877 23.9877 45.1976 23.9911C45.4018 24.0025 45.606 23.9699 45.7966 23.8956C45.9872 23.8213 46.1598 23.7069 46.3028 23.5602C46.5817 23.2514 46.7286 22.8451 46.7121 22.4287C46.7209 22.2314 46.6862 22.0346 46.6106 21.8523Z" fill="url(#paint2_linear_1077_6650)"/>
<path d="M21.7072 21.8523L13.373 1.56364C12.9046 0.516076 12.2042 0.00236782 11.2819 0.00236782H10.5448C9.62358 0.00236782 8.92767 0.516076 8.45592 1.56923L4.83139 10.4108H2.08679C1.69096 10.4135 1.31209 10.5724 1.03219 10.8533C0.752291 11.1342 0.593882 11.5144 0.591251 11.9117V11.9318C0.595918 12.3277 0.755226 12.7059 1.03491 12.9851C1.31459 13.2643 1.6923 13.4222 2.08679 13.4248H3.56113L0.103892 21.8523C0.038155 22.037 0.00348155 22.2314 0.00128971 22.4276C-0.0154639 22.8437 0.131551 23.2497 0.410583 23.558C0.553613 23.705 0.726335 23.8196 0.917151 23.8941C1.10797 23.9686 1.31246 24.0013 1.5169 23.99C1.82621 23.9854 2.12655 23.8849 2.37675 23.7023C2.63888 23.5063 2.8441 23.2436 2.97117 22.9413L6.77972 13.4282H9.41837C9.81429 13.4258 10.1933 13.2669 10.4733 12.986C10.7533 12.705 10.9116 12.3247 10.9139 11.9273V11.8848C10.9119 11.4874 10.7536 11.1068 10.4736 10.8258C10.1936 10.5448 9.81438 10.386 9.41837 10.384H8.00536L10.9139 3.08574L18.8399 22.9413C18.9662 23.244 19.1716 23.5069 19.4343 23.7023C19.6845 23.8849 19.9849 23.9854 20.2942 23.99C20.4986 24.001 20.703 23.9682 20.8938 23.8937C21.0846 23.8192 21.2573 23.7048 21.4005 23.558C21.6792 23.2495 21.8262 22.8436 21.8098 22.4276C21.8173 22.2306 21.7823 22.0344 21.7072 21.8523Z" fill="url(#paint3_linear_1077_6650)"/>
<defs>
<linearGradient id="paint0_linear_1077_6650" x1="1.58979e-07" y1="11.9973" x2="68.4212" y2="27.6468" gradientUnits="userSpaceOnUse">
<stop offset="0.000530632" stop-color="#34B6C5"/>
<stop offset="1" stop-color="#9F64A5"/>
</linearGradient>
<linearGradient id="paint1_linear_1077_6650" x1="1.58979e-07" y1="11.9973" x2="68.4212" y2="27.6468" gradientUnits="userSpaceOnUse">
<stop offset="0.000530632" stop-color="#34B6C5"/>
<stop offset="1" stop-color="#9F64A5"/>
</linearGradient>
<linearGradient id="paint2_linear_1077_6650" x1="1.58979e-07" y1="11.9973" x2="68.4212" y2="27.6468" gradientUnits="userSpaceOnUse">
<stop offset="0.000530632" stop-color="#34B6C5"/>
<stop offset="1" stop-color="#9F64A5"/>
</linearGradient>
<linearGradient id="paint3_linear_1077_6650" x1="1.58979e-07" y1="11.9973" x2="68.4212" y2="27.6468" gradientUnits="userSpaceOnUse">
<stop offset="0.000530632" stop-color="#34B6C5"/>
<stop offset="1" stop-color="#9F64A5"/>
</linearGradient>
</defs>
</svg>
