<svg width="94" height="24" viewBox="0 0 94 24" fill="none" xmlns="http://www.w3.org/2000/svg">
<path d="M34.6054 15.6052C34.5525 15.5033 34.511 15.3863 34.4733 15.2504C34.4355 15.1182 34.4053 14.9748 34.3827 14.8276C34.2656 14.9559 34.1297 15.0767 33.9749 15.19C33.8202 15.3032 33.6503 15.4014 33.4577 15.492C33.2728 15.575 33.0689 15.6392 32.8424 15.6845C32.6159 15.7374 32.3743 15.76 32.11 15.76C31.6834 15.76 31.2908 15.6996 30.9322 15.575C30.5773 15.4505 30.2716 15.2806 30.0148 15.0578C29.7581 14.8389 29.5581 14.5746 29.4146 14.2726C29.2711 13.9631 29.1994 13.6308 29.1994 13.2722C29.1994 12.3926 29.5241 11.7169 30.1772 11.2412C30.834 10.758 31.8118 10.5164 33.1104 10.5164H34.3034V10.0218C34.3034 9.62168 34.1712 9.30457 33.9108 9.07429C33.6503 8.83646 33.2728 8.71943 32.7782 8.71943C32.3403 8.71943 32.0232 8.8138 31.8231 9.00256C31.623 9.18754 31.5211 9.4367 31.5211 9.75003H29.3806C29.3806 9.39517 29.4561 9.05918 29.6109 8.74207C29.7695 8.42497 29.9997 8.14561 30.298 7.904C30.6 7.66239 30.9662 7.47364 31.4003 7.33396C31.8382 7.19051 32.3328 7.11878 32.8953 7.11878C33.3973 7.11878 33.8655 7.17918 34.2958 7.30376C34.7337 7.42834 35.1112 7.60954 35.4284 7.85115C35.7455 8.09276 35.9946 8.39854 36.1758 8.7685C36.357 9.13469 36.4439 9.5575 36.4439 10.0407V13.612C36.4439 14.0574 36.4703 14.4274 36.5269 14.7219C36.5835 15.0163 36.6666 15.2655 36.7723 15.4769V15.609H34.6054V15.6052ZM32.563 14.1027C32.7782 14.1027 32.9783 14.0763 33.1633 14.0272C33.3483 13.9744 33.5144 13.9102 33.6654 13.8272C33.8126 13.7441 33.941 13.6535 34.0504 13.5516C34.1599 13.4421 34.243 13.3364 34.3034 13.2269V11.7924H33.2086C32.8764 11.7924 32.5895 11.8263 32.3554 11.8943C32.1176 11.9547 31.9251 12.0453 31.7778 12.1623C31.6306 12.2756 31.5173 12.4153 31.4456 12.5776C31.3739 12.7361 31.3361 12.9098 31.3361 13.1023C31.3361 13.3892 31.4381 13.6271 31.6381 13.8196C31.8458 14.0084 32.1553 14.1027 32.563 14.1027Z" fill="#222326"/>
<path d="M44.8548 7.11878C45.1795 7.11878 45.4777 7.14143 45.7495 7.18673C46.0251 7.22826 46.2516 7.27356 46.4177 7.32641L46.1006 9.45935C45.8175 9.39139 45.5268 9.34232 45.2323 9.31212C44.9379 9.27437 44.6585 9.25927 44.3943 9.25927C43.794 9.25927 43.3108 9.3763 42.9484 9.60658C42.5897 9.83686 42.3179 10.1691 42.1405 10.5994V15.6052H40V7.27356H41.9933L42.0952 8.63637C42.435 8.16448 42.8389 7.79452 43.3108 7.52649C43.7789 7.25468 44.2961 7.11878 44.8548 7.11878Z" fill="#222326"/>
<path d="M53.6735 12.9929L54.3983 7.26978H56.3614L54.8664 15.6015H52.9864L51.8916 10.305L50.8384 15.6015H48.9584L47.4634 7.26978H49.4189L50.1437 13.0155L51.1894 7.26978H52.6202L53.6735 12.9929Z" fill="#222326"/>
<path d="M61.8579 15.76C61.2162 15.76 60.6348 15.6543 60.1101 15.4429C59.5853 15.2315 59.1361 14.9484 58.7623 14.5897C58.3886 14.2235 58.0979 13.8007 57.8941 13.31C57.694 12.8154 57.5921 12.2907 57.5921 11.732V11.4224C57.5921 10.7844 57.694 10.2068 57.8941 9.68208C58.0941 9.15356 58.3735 8.70055 58.7321 8.31926C59.0908 7.93798 59.5174 7.64352 60.0119 7.43211C60.5064 7.22071 61.0425 7.115 61.6201 7.115C62.2203 7.115 62.7564 7.21693 63.2207 7.41701C63.6926 7.61332 64.089 7.8889 64.4137 8.24754C64.7421 8.60617 64.9913 9.04031 65.1612 9.54995C65.331 10.052 65.4141 10.6108 65.4141 11.2223V12.1321H59.7627C59.8043 12.4153 59.8873 12.672 60.0081 12.9098C60.1365 13.1401 60.2988 13.3402 60.4913 13.51C60.6876 13.6799 60.9104 13.8121 61.1595 13.9027C61.4125 13.9933 61.6843 14.0423 61.9825 14.0423C62.1939 14.0423 62.4015 14.0235 62.6054 13.9819C62.8168 13.9404 63.0169 13.88 63.2056 13.8045C63.3944 13.7215 63.5718 13.6233 63.7379 13.5025C63.904 13.3855 64.0475 13.2458 64.1683 13.0872L65.2404 14.2424C65.1083 14.4312 64.9309 14.6199 64.7157 14.8049C64.5043 14.9861 64.2551 15.1447 63.9607 15.2919C63.6738 15.4316 63.3529 15.5448 62.998 15.6317C62.6507 15.7147 62.2694 15.76 61.8579 15.76ZM61.605 8.85155C61.3634 8.85155 61.1444 8.89686 60.9443 8.98368C60.7443 9.06674 60.5668 9.18754 60.4121 9.34609C60.2648 9.50465 60.1365 9.69341 60.0345 9.91614C59.9326 10.1351 59.8533 10.3843 59.8043 10.6561H63.3151V10.4862C63.3038 10.2597 63.2623 10.0483 63.183 9.84819C63.1075 9.6481 62.9942 9.47445 62.8508 9.331C62.7073 9.18377 62.5299 9.06674 62.3185 8.98368C62.1146 8.89686 61.8768 8.85155 61.605 8.85155Z" fill="#222326"/>
<path d="M72.4924 15.6052C72.4396 15.5033 72.398 15.3863 72.3603 15.2504C72.3263 15.1182 72.2923 14.9748 72.2697 14.8276C72.1527 14.9559 72.0168 15.0767 71.862 15.19C71.7072 15.3032 71.5373 15.4014 71.3448 15.492C71.1598 15.575 70.956 15.6392 70.7294 15.6845C70.5029 15.7374 70.2613 15.76 69.9971 15.76C69.5705 15.76 69.1779 15.6996 68.8192 15.575C68.4644 15.4505 68.1586 15.2806 67.9019 15.0578C67.6452 14.8389 67.4451 14.5746 67.3016 14.2726C67.1582 13.9631 67.0865 13.6308 67.0865 13.2722C67.0865 12.3926 67.4111 11.7169 68.0642 11.2412C68.7211 10.758 69.6988 10.5164 70.9975 10.5164H72.1904V10.0218C72.1904 9.62168 72.0583 9.30457 71.7978 9.07429C71.5373 8.83646 71.1598 8.71943 70.6653 8.71943C70.2274 8.71943 69.9102 8.8138 69.7102 9.00256C69.5101 9.18754 69.4082 9.4367 69.4082 9.75003H67.2714C67.2714 9.39517 67.3469 9.05918 67.5017 8.74207C67.6603 8.42497 67.8906 8.14561 68.1888 7.904C68.4908 7.66239 68.857 7.47364 69.2911 7.33396C69.729 7.19051 70.2274 7.11878 70.7861 7.11878C71.2882 7.11878 71.7563 7.17918 72.1866 7.30376C72.6208 7.42834 72.9983 7.60954 73.3192 7.85115C73.6401 8.09276 73.8854 8.39854 74.0666 8.7685C74.2478 9.13469 74.3347 9.5575 74.3347 10.0407V13.612C74.3347 14.0574 74.3649 14.4274 74.4215 14.7219C74.4781 15.0163 74.5612 15.2655 74.6669 15.4769V15.609H72.4924V15.6052ZM70.4501 14.1027C70.6653 14.1027 70.8653 14.0763 71.0503 14.0272C71.2353 13.9744 71.4014 13.9102 71.5486 13.8272C71.6997 13.7441 71.828 13.6535 71.9337 13.5516C72.0432 13.4421 72.1262 13.3364 72.1866 13.2269V11.7924H71.0919C70.7597 11.7924 70.4727 11.8263 70.2349 11.8943C69.9971 11.9547 69.8083 12.0453 69.6573 12.1623C69.5063 12.2756 69.3968 12.4153 69.3251 12.5776C69.2534 12.7361 69.2156 12.9098 69.2156 13.1023C69.2156 13.3892 69.3138 13.6271 69.5176 13.8196C69.7328 14.0084 70.0424 14.1027 70.4501 14.1027Z" fill="#222326"/>
<path d="M80.2994 13.1325L80.4088 13.7328L80.5183 13.1552L82.3492 7.27356H84.5841L81.4206 15.6052H79.4122L76.2336 7.27356H78.4684L80.2994 13.1325Z" fill="#222326"/>
<path d="M90.2732 15.76C89.6314 15.76 89.0501 15.6543 88.5253 15.4429C88.0006 15.2315 87.5514 14.9484 87.1776 14.5897C86.8039 14.2235 86.5132 13.8007 86.3056 13.31C86.1055 12.8154 86.0036 12.2907 86.0036 11.732V11.4224C86.0036 10.7844 86.1055 10.2068 86.3056 9.68208C86.5057 9.15356 86.785 8.70055 87.1436 8.31926C87.5023 7.93798 87.9289 7.64352 88.4234 7.43211C88.918 7.22071 89.454 7.115 90.0316 7.115C90.6319 7.115 91.1642 7.21693 91.6323 7.41701C92.1042 7.61332 92.5043 7.8889 92.8252 8.24754C93.1536 8.60617 93.4028 9.04031 93.5727 9.54995C93.7425 10.052 93.8256 10.6108 93.8256 11.2223V12.1321H88.1743C88.2158 12.4153 88.2988 12.672 88.4196 12.9098C88.548 13.1401 88.7103 13.3402 88.9028 13.51C89.0992 13.6799 89.3219 13.8121 89.5748 13.9027C89.8278 13.9933 90.0996 14.0423 90.3978 14.0423C90.6092 14.0423 90.8168 14.0235 91.0207 13.9819C91.2321 13.9404 91.4322 13.88 91.6209 13.8045C91.8097 13.7215 91.9871 13.6233 92.1532 13.5025C92.3193 13.3855 92.4628 13.2458 92.5836 13.0872L93.6519 14.2424C93.5198 14.4312 93.3424 14.6199 93.1272 14.8049C92.9158 14.9861 92.6666 15.1447 92.3722 15.2919C92.0853 15.4316 91.7644 15.5448 91.4095 15.6317C91.066 15.7147 90.6847 15.76 90.2732 15.76ZM90.0203 8.85155C89.7787 8.85155 89.5597 8.89686 89.3596 8.98368C89.1596 9.06674 88.9821 9.18754 88.8273 9.34609C88.6801 9.50465 88.5518 9.69341 88.4498 9.91614C88.3479 10.1351 88.2686 10.3843 88.2196 10.6561H91.7304V10.4862C91.7191 10.2597 91.6776 10.0483 91.5983 9.84819C91.5228 9.6481 91.4095 9.47445 91.2661 9.331C91.1226 9.18377 90.9452 9.06674 90.7338 8.98368C90.5299 8.89686 90.2883 8.85155 90.0203 8.85155Z" fill="#222326"/>
<path fill-rule="evenodd" clip-rule="evenodd" d="M12 1.88538C6.41385 1.88538 1.88538 6.41385 1.88538 12C1.88538 17.5861 6.41385 22.1146 12 22.1146C17.5861 22.1146 22.1146 17.5861 22.1146 12C22.1146 6.41385 17.5861 1.88538 12 1.88538ZM0 12C0 5.37258 5.37258 0 12 0C18.6274 0 24 5.37258 24 12C24 18.6274 18.6274 24 12 24C5.37258 24 0 18.6274 0 12Z" fill="#222326"/>
<path d="M14.065 15.9941C14.0121 15.8884 13.9668 15.7638 13.9291 15.6241C13.8913 15.4844 13.8611 15.3372 13.8309 15.1824C13.7064 15.3183 13.5667 15.4429 13.4043 15.5599C13.242 15.677 13.0646 15.7827 12.8645 15.8733C12.672 15.9601 12.4568 16.028 12.219 16.0733C11.9811 16.1262 11.7282 16.1526 11.4526 16.1526C11.0071 16.1526 10.5957 16.0884 10.2219 15.9601C9.85196 15.8317 9.53108 15.6505 9.26304 15.4203C8.99501 15.19 8.7836 14.9144 8.63637 14.5973C8.48537 14.2764 8.40987 13.9253 8.40987 13.5516C8.40987 12.6342 8.74963 11.9245 9.43292 11.4262C10.12 10.9203 11.143 10.6674 12.5021 10.6674H13.7517V10.1502C13.7517 9.73116 13.6157 9.40272 13.3402 9.16112C13.0646 8.91573 12.672 8.79115 12.1548 8.79115C11.698 8.79115 11.3658 8.88931 11.1544 9.08939C10.9467 9.28192 10.841 9.5424 10.841 9.87084H8.6024C8.6024 9.50087 8.68167 9.14979 8.844 8.8138C9.01011 8.48159 9.24794 8.18714 9.56128 7.9342C9.87839 7.68127 10.2634 7.48496 10.7127 7.33773C11.1695 7.18673 11.6904 7.11123 12.2756 7.11123C12.8003 7.11123 13.2911 7.1754 13.7403 7.30376C14.1971 7.43211 14.5897 7.62464 14.9257 7.8738C15.2579 8.12673 15.5184 8.44762 15.7072 8.83268C15.8959 9.21397 15.9903 9.65566 15.9903 10.1615V13.8989C15.9903 14.367 16.0205 14.7521 16.0771 15.0578C16.1375 15.3636 16.2206 15.6279 16.3338 15.8468V15.9827H14.065V15.9941ZM11.932 14.4236C12.1586 14.4236 12.3662 14.3972 12.5587 14.3443C12.7512 14.2915 12.9249 14.2198 13.0835 14.1367C13.2382 14.0499 13.3741 13.9555 13.4874 13.846C13.6006 13.7328 13.6875 13.6195 13.7517 13.5063V12.0075H12.6078C12.2605 12.0075 11.9622 12.0415 11.7131 12.1133C11.4677 12.1774 11.2639 12.2718 11.1091 12.3964C10.9543 12.5134 10.8373 12.6606 10.7618 12.8305C10.6863 12.9966 10.6485 13.1778 10.6485 13.3779C10.6485 13.6799 10.7542 13.9291 10.9618 14.1254C11.1808 14.3255 11.5017 14.4236 11.932 14.4236Z" fill="#222326"/>
</svg>
