<svg width="67" height="24" viewBox="0 0 67 24" fill="none" xmlns="http://www.w3.org/2000/svg">
<g clip-path="url(#clip0_1079_641)">
<path fill-rule="evenodd" clip-rule="evenodd" d="M19.4491 5.49519C20.2611 4.68324 21.6046 4.715 22.2082 5.69184C23.3701 7.57224 23.9999 9.75365 23.9999 12C23.9999 15.1826 22.7356 18.2348 20.4852 20.4853C18.2347 22.7357 15.1825 24 11.9999 24C9.75355 24 7.57214 23.3701 5.69178 22.2082C4.71494 21.6046 4.68318 20.2611 5.49513 19.4491L9.11099 15.8333C9.93862 16.457 10.9516 16.8 11.9999 16.8C13.273 16.8 14.4939 16.2943 15.394 15.3941C16.2942 14.4939 16.7999 13.273 16.7999 12C16.7999 10.9517 16.457 9.93868 15.8332 9.11105L19.4491 5.49519Z" fill="#292D33"/>
<path fill-rule="evenodd" clip-rule="evenodd" d="M7.2 12C7.2 13.0483 7.54294 14.0613 8.16667 14.8889L4.55081 18.5048C3.73885 19.3167 2.39532 19.2849 1.79172 18.3081C0.629839 16.4277 -2.74031e-06 14.2463 0 12C3.8825e-06 8.81738 1.26429 5.76514 3.51472 3.51471C5.76517 1.26428 8.81741 -9.86437e-07 12 0C14.2463 6.96248e-07 16.4277 0.629846 18.3081 1.79173C19.2849 2.39533 19.3167 3.73887 18.5047 4.55081L14.8889 8.16668C14.0613 7.54294 13.0483 7.2 12 7.2C10.7269 7.2 9.50606 7.70573 8.60588 8.60588C7.70572 9.50606 7.2 10.727 7.2 12Z" fill="#292D33"/>
<path d="M31.865 10.041H29.3105L28.901 11.25H27.1558L29.6323 4.40552H31.5628L34.0393 11.25H32.2745L31.865 10.041ZM31.436 8.75402L30.5878 6.24827L29.7493 8.75402H31.436ZM36.8502 9.83627V11.25H36.002C35.3975 11.25 34.9262 11.1038 34.5882 10.8113C34.2502 10.5123 34.0812 10.028 34.0812 9.35852V7.19402H33.4182V5.80952H34.0812V4.48352H35.7485V5.80952H36.8405V7.19402H35.7485V9.37802C35.7485 9.5405 35.7875 9.65751 35.8655 9.72902C35.9435 9.80053 36.0735 9.83627 36.2555 9.83627H36.8502ZM39.7678 11.328C39.2349 11.328 38.7538 11.2143 38.3248 10.9868C37.9025 10.7593 37.5676 10.4343 37.3207 10.0118C37.0802 9.58925 36.9599 9.09527 36.9599 8.52977C36.9599 7.97076 37.0834 7.48003 37.3304 7.05752C37.5774 6.62852 37.9153 6.30028 38.3443 6.07277C38.7733 5.84526 39.2544 5.73152 39.7873 5.73152C40.3205 5.73152 40.8013 5.84526 41.2303 6.07277C41.6593 6.30028 41.9975 6.62852 42.2443 7.05752C42.4914 7.48003 42.6148 7.97076 42.6148 8.52977C42.6148 9.08878 42.488 9.58277 42.2345 10.0118C41.9878 10.4343 41.6465 10.7593 41.2108 10.9868C40.7818 11.2143 40.301 11.328 39.7678 11.328ZM39.7678 9.88502C40.0865 9.88502 40.3561 9.76802 40.577 9.53402C40.8046 9.30002 40.9183 8.96526 40.9183 8.52977C40.9183 8.09428 40.808 7.75952 40.5868 7.52552C40.3723 7.29152 40.106 7.17452 39.7873 7.17452C39.4625 7.17452 39.1925 7.29152 38.978 7.52552C38.7635 7.75303 38.6563 8.08776 38.6563 8.52977C38.6563 8.96526 38.7605 9.30002 38.9683 9.53402C39.1828 9.76802 39.4494 9.88502 39.7678 9.88502ZM49.7589 5.75102C50.435 5.75102 50.9713 5.95577 51.3676 6.36527C51.7708 6.77477 51.9721 7.34353 51.9721 8.07152V11.25H50.3146V8.29577C50.3146 7.94477 50.2205 7.67503 50.0319 7.48652C49.85 7.29152 49.5965 7.19402 49.2714 7.19402C48.9463 7.19402 48.6898 7.29152 48.5011 7.48652C48.3193 7.67503 48.2281 7.94477 48.2281 8.29577V11.25H46.5706V8.29577C46.5706 7.94477 46.4765 7.67503 46.2879 7.48652C46.106 7.29152 45.8525 7.19402 45.5274 7.19402C45.2023 7.19402 44.9458 7.29152 44.7571 7.48652C44.5753 7.67503 44.4841 7.94477 44.4841 8.29577V11.25H42.8169V5.80952H44.4841V6.49202C44.6533 6.26451 44.8741 6.08578 45.1471 5.95577C45.4201 5.81927 45.7288 5.75102 46.0734 5.75102C46.4829 5.75102 46.847 5.83877 47.1654 6.01427C47.4905 6.18977 47.744 6.44001 47.9259 6.76502C48.1145 6.46603 48.371 6.22228 48.6961 6.03377C49.0213 5.84526 49.3753 5.75102 49.7589 5.75102ZM52.2219 8.52002C52.2219 7.961 52.3258 7.47028 52.5339 7.04777C52.7484 6.62526 53.0375 6.30028 53.4016 6.07277C53.7654 5.84526 54.1719 5.73152 54.6204 5.73152C55.0036 5.73152 55.3385 5.80952 55.6246 5.96552C55.9171 6.12152 56.1414 6.32627 56.2974 6.57977V5.80952H57.9646V11.25H56.2974V10.4798C56.1346 10.7333 55.9074 10.938 55.6149 11.094C55.3288 11.25 54.9939 11.328 54.6106 11.328C54.1685 11.328 53.7654 11.2143 53.4016 10.9868C53.0375 10.7528 52.7484 10.4245 52.5339 10.002C52.3258 9.57302 52.2219 9.07903 52.2219 8.52002ZM56.2974 8.52977C56.2974 8.11378 56.1804 7.78551 55.9464 7.54502C55.7188 7.30453 55.4394 7.18427 55.1079 7.18427C54.7764 7.18427 54.4936 7.30453 54.2596 7.54502C54.032 7.77902 53.9184 8.10403 53.9184 8.52002C53.9184 8.936 54.032 9.2675 54.2596 9.51452C54.4936 9.755 54.7764 9.87527 55.1079 9.87527C55.4394 9.87527 55.7188 9.755 55.9464 9.51452C56.1804 9.27403 56.2974 8.94576 56.2974 8.52977Z" fill="#292D33"/>
<path d="M33.7275 19.5H32.0602L29.2717 15.2782V19.5H27.6045V12.6555H29.2717L32.0602 16.8967V12.6555H33.7275V19.5ZM39.4796 16.692C39.4796 16.848 39.4699 17.0105 39.4504 17.1795H35.677C35.703 17.5175 35.8103 17.7775 35.9988 17.9595C36.1938 18.135 36.431 18.2227 36.7105 18.2227C37.1265 18.2227 37.4158 18.0472 37.5784 17.6962H39.3529C39.2617 18.0537 39.096 18.3755 38.8556 18.6615C38.6216 18.9475 38.3257 19.1717 37.9684 19.3342C37.6106 19.4967 37.211 19.578 36.769 19.578C36.236 19.578 35.7615 19.4642 35.3455 19.2367C34.9295 19.0092 34.6045 18.6842 34.3705 18.2617C34.1365 17.8392 34.0195 17.3452 34.0195 16.7797C34.0195 16.2142 34.1333 15.7202 34.3608 15.2977C34.5948 14.8752 34.9198 14.5502 35.3358 14.3227C35.7518 14.0952 36.2295 13.9815 36.769 13.9815C37.2955 13.9815 37.7636 14.092 38.1731 14.313C38.5826 14.534 38.901 14.8492 39.1286 15.2587C39.3626 15.6682 39.4796 16.146 39.4796 16.692ZM37.7734 16.2532C37.7734 15.9672 37.6759 15.7397 37.4808 15.5707C37.2858 15.4017 37.042 15.3172 36.7495 15.3172C36.47 15.3172 36.2328 15.3985 36.0378 15.561C35.8493 15.7235 35.7323 15.9542 35.6868 16.2532H37.7734ZM42.9037 18.0862V19.5H42.0555C41.451 19.5 40.98 19.3537 40.6417 19.0612C40.3039 18.7622 40.1347 18.278 40.1347 17.6085V15.444H39.4717V14.0595H40.1347V12.7335H41.802V14.0595H42.894V15.444H41.802V17.628C41.802 17.7905 41.841 17.9075 41.919 17.979C41.997 18.0505 42.1271 18.0862 42.309 18.0862H42.9037ZM51.5449 14.0595L50.0726 19.5H48.2299L47.3719 15.9705L46.4846 19.5H44.6516L43.1696 14.0595H44.8369L45.6071 17.9497L46.5236 14.0595H48.2884L49.2146 17.9302L49.9751 14.0595H51.5449ZM54.072 19.578C53.5391 19.578 53.058 19.4642 52.629 19.2367C52.2067 19.0092 51.8719 18.6842 51.6247 18.2617C51.3844 17.8392 51.264 17.3452 51.264 16.7797C51.264 16.2207 51.3877 15.73 51.6345 15.3075C51.8816 14.8785 52.2195 14.5502 52.6485 14.3227C53.0775 14.0952 53.5586 13.9815 54.0915 13.9815C54.6247 13.9815 55.1055 14.0952 55.5345 14.3227C55.9635 14.5502 56.3017 14.8785 56.5485 15.3075C56.7956 15.73 56.919 16.2207 56.919 16.7797C56.919 17.3387 56.7922 17.8327 56.5387 18.2617C56.292 18.6842 55.9507 19.0092 55.515 19.2367C55.086 19.4642 54.6052 19.578 54.072 19.578ZM54.072 18.135C54.3907 18.135 54.6604 18.018 54.8812 17.784C55.1089 17.55 55.2225 17.2152 55.2225 16.7797C55.2225 16.3442 55.1122 16.0095 54.891 15.7755C54.6765 15.5415 54.4102 15.4245 54.0915 15.4245C53.7667 15.4245 53.4967 15.5415 53.2822 15.7755C53.0677 16.003 52.9605 16.3377 52.9605 16.7797C52.9605 17.2152 53.0647 17.55 53.2725 17.784C53.487 18.018 53.7536 18.135 54.072 18.135ZM58.7884 14.9662C58.9834 14.6672 59.2271 14.4332 59.5196 14.2642C59.8121 14.0887 60.1372 14.001 60.4946 14.001V15.7657H60.0364C59.6205 15.7657 59.3085 15.8567 59.1004 16.0387C58.8922 16.2142 58.7884 16.5262 58.7884 16.9747V19.5H57.1211V14.0595H58.7884V14.9662ZM64.0312 19.5L62.3737 17.2185V19.5H60.7065V12.285H62.3737V16.2727L64.0215 14.0595H66.0787L63.8167 16.7895L66.0982 19.5H64.0312Z" fill="#292D33"/>
</g>
<defs>
<clipPath id="clip0_1079_641">
<rect width="66.375" height="24" fill="white"/>
</clipPath>
</defs>
</svg>
