<svg width="77" height="24" viewBox="0 0 77 24" fill="none" xmlns="http://www.w3.org/2000/svg">
<path d="M71.3773 0.00621818L54.7816 23.7883H59.8755L76.5584 0.00621818H71.3773Z" fill="#1D1D1B"/>
<path d="M60.4048 0.00621818L65.287 7.01193L62.74 10.8355L55.205 0.00621818H60.4048Z" fill="#1D1D1B"/>
<path d="M71.8755 23.7821L66.4639 16.0291L69.0109 12.3114L76.9694 23.7821H71.8755Z" fill="url(#paint0_linear_1077_6623)"/>
<path fill-rule="evenodd" clip-rule="evenodd" d="M48.8345 0.00621818H53.2932V23.7883H48.8345V22.8978C47.5454 23.6015 46.0695 24 44.494 24C39.4997 24 35.4582 19.9709 35.4582 15.0016C35.4582 10.0322 39.506 6.00311 44.494 6.00311C46.0633 6.00311 47.5454 6.40166 48.8345 7.10534V0.00621818ZM44.4504 20.0457C47.2776 20.0457 49.5693 17.7665 49.5693 14.9517C49.5693 12.137 47.2776 9.8578 44.4504 9.8578C41.6233 9.8578 39.3316 12.137 39.3316 14.9517C39.3316 17.7665 41.6233 20.0457 44.4504 20.0457Z" fill="#1D1D1B"/>
<path d="M35.9004 0.00622768L19.3233 23.7821H24.5231L41.0877 0H35.9004V0.00622768Z" fill="#1D1D1B"/>
<path d="M24.5231 0.00621818L29.7229 7.22366L26.8583 11.2589L19.1116 0.00621818H24.5231Z" fill="#1D1D1B"/>
<path fill-rule="evenodd" clip-rule="evenodd" d="M13.3762 0.00621818H17.835V23.7883H13.3762V22.8978C12.0872 23.6015 10.6113 24 9.03581 24C4.04774 23.9938 0 19.9709 0 15.0016C0 10.0322 4.04774 6.00311 9.03581 6.00311C10.6051 6.00311 12.0872 6.40166 13.3762 7.10534V0.00621818ZM8.99222 20.0457C11.8194 20.0457 14.1111 17.7665 14.1111 14.9517C14.1111 12.137 11.8194 9.8578 8.99222 9.8578C6.16502 9.8578 3.87338 12.137 3.87338 14.9517C3.87338 17.7665 6.16502 20.0457 8.99222 20.0457Z" fill="#1D1D1B"/>
<defs>
<linearGradient id="paint0_linear_1077_6623" x1="49.6678" y1="19.9154" x2="42.0534" y2="-16.0299" gradientUnits="userSpaceOnUse">
<stop stop-color="#6966FF"/>
<stop offset="1" stop-color="#6966FF" stop-opacity="0.36"/>
</linearGradient>
</defs>
</svg>
