<svg width="138" height="24" viewBox="0 0 138 24" fill="none" xmlns="http://www.w3.org/2000/svg">
<path d="M10.4227 6.98568L6.49932 12.9583L9.4866 12.322C9.54552 12.4194 9.6045 12.5168 9.66342 12.6142L0.338326 24H0L3.835 16.6049L1.0169 17.2046C0.92655 17.072 0.918864 17.0624 0.828516 16.9298L4.63084 11.0629L1.77429 11.6703C1.68394 11.5262 1.68586 11.5262 1.59551 11.3801L10.9148 0H11.257L7.4739 7.299L10.2344 6.71076C10.3267 6.84342 10.3324 6.85302 10.4227 6.98568Z" fill="black"/>
<path d="M21.4453 19.549L24.4222 5.51807H26.9819L24.005 19.549H21.4453Z" fill="black"/>
<path d="M27.0234 15.5104C27.0234 12.306 29.7537 9.57568 33.0719 9.57568C36.2573 9.57568 38.1534 12.2681 37.1295 15.5673H29.5452C29.64 16.8187 30.5122 17.5392 31.7257 17.5392C32.8634 17.5392 33.8303 17.0273 34.494 16.174L36.5228 17.1221C35.5368 18.582 33.6786 19.7386 31.593 19.7386C28.9195 19.7386 27.0234 18.089 27.0234 15.5104ZM29.9434 13.6143H34.8732C34.7973 12.6284 34.001 11.7751 32.8254 11.7751C31.6688 11.7751 30.5312 12.4767 29.9434 13.6143Z" fill="black"/>
<path d="M38.8267 15.5104C38.8267 12.306 41.557 9.57568 44.8751 9.57568C48.0605 9.57568 49.9567 12.2681 48.9328 15.5673H41.3485C41.4433 16.8187 42.3155 17.5392 43.5289 17.5392C44.6666 17.5392 45.6336 17.0273 46.2972 16.174L48.326 17.1221C47.3401 18.582 45.4819 19.7386 43.3962 19.7386C40.7228 19.7386 38.8267 18.089 38.8267 15.5104ZM41.7466 13.6143H46.6765C46.6006 12.6284 45.8042 11.7751 44.6287 11.7751C43.472 11.7751 42.3344 12.4767 41.7466 13.6143Z" fill="black"/>
<path d="M53.263 17.1599L52.7511 19.549H50.1914L53.1682 5.51807H55.728L54.0405 13.3868L58.0222 9.7653H61.5486L56.8087 13.9935L60.108 19.549H57.15L54.8748 15.719L53.263 17.1599Z" fill="black"/>
<path d="M14.4837 19.549L16.0764 12.0216H14.1045L14.5975 9.7653H16.5694L16.6642 9.3102C17.2141 6.57984 18.5224 5.51807 21.4044 5.51807H22.561L22.068 7.77438H20.9304C19.8686 7.77438 19.4704 8.11566 19.2429 9.15852L19.1291 9.7653H21.6509L21.1769 12.0216H18.6361L17.0434 19.549H14.4837Z" fill="black"/>
<path d="M61.6855 19.5491L63.7141 10.0119H64.7569L64.2637 12.344C65.1361 10.7134 66.6151 9.82227 68.2459 9.82227C70.5781 9.82227 71.9431 11.6804 71.4313 14.1263L70.2937 19.5491H69.2503L70.3885 14.1453C70.8056 12.1165 69.7057 10.8082 67.9423 10.8082C66.0085 10.8082 64.2829 12.2113 63.8845 14.0694L62.7283 19.5491H61.6855Z" fill="black"/>
<path d="M129.103 16.7807L128.496 19.549H127.453L130.43 5.51807H131.473L129.406 15.2639L135.436 10.0118H136.915L132.364 13.9556L135.796 19.549H134.545L131.567 14.6382L129.103 16.7807Z" fill="black"/>
<path d="M120.389 19.5489L122.418 10.0117H123.461L122.949 12.4007C124.143 10.2961 125.698 9.65146 127.48 9.87898L127.253 10.9028C125.167 10.5236 123.044 11.9267 122.588 14.0693L121.432 19.5489H120.389Z" fill="black"/>
<path d="M108.82 15.7191C108.82 12.5905 111.551 9.82227 114.717 9.82227C117.163 9.82227 118.908 11.4718 118.908 13.8609C118.908 16.9704 116.177 19.7387 113.011 19.7387C110.565 19.7387 108.82 18.0891 108.82 15.7191ZM109.863 15.6811C109.863 17.4824 111.134 18.7528 113.03 18.7528C115.608 18.7528 117.865 16.4395 117.865 13.8798C117.865 12.0975 116.595 10.8082 114.699 10.8082C112.12 10.8082 109.863 13.1214 109.863 15.6811Z" fill="black"/>
<path d="M94.6141 19.549L93.4009 10.0118H94.4437L95.5057 19.2457L100.113 10.0118H101.99L102.767 19.2457L107.641 10.0118H108.74L103.583 19.549H101.857L101.004 10.391L96.3397 19.549H94.6141Z" fill="black"/>
<path d="M85.5024 10.9787L85.7112 10.0117H87.9294L88.707 6.40917L89.8254 6.08685L88.9722 10.0117H92.0058L91.8162 10.9787H88.7826L87.6258 16.4205C87.2844 17.9753 87.7398 18.582 89.2944 18.582H90.2046L89.9958 19.549H89.1996C87.0384 19.549 86.166 18.4303 86.6022 16.2878L87.7398 10.9787H85.5024Z" fill="black"/>
<path d="M73.7065 15.7191C73.7065 12.5905 76.4365 9.82227 79.6033 9.82227C82.2385 9.82227 84.1345 12.0406 83.4709 15.0744H74.7679C74.7493 15.2829 74.7301 15.4725 74.7301 15.6811C74.7301 17.5014 76.0195 18.7907 77.9155 18.7907C79.5655 18.7907 81.0631 17.8806 81.9733 16.5154L82.9021 16.8756C81.8215 18.601 79.9447 19.7387 77.8969 19.7387C75.4507 19.7387 73.7065 18.0891 73.7065 15.7191ZM74.9959 14.1642H82.5421C82.7125 12.3061 81.4423 10.7892 79.5655 10.7892C77.5177 10.7892 75.6595 12.2492 74.9959 14.1642Z" fill="black"/>
</svg>
