<svg width="113" height="24" viewBox="0 0 113 24" fill="none" xmlns="http://www.w3.org/2000/svg">
<path d="M18.4434 5.41359C17.995 5.91448 16.9487 5.90963 16.5003 5.45882C16.0519 5.00802 15.9024 4.13546 16.5003 3.58448C17.0982 3.03348 17.995 3.23441 18.4434 3.63512C18.8918 4.03584 18.8918 4.91269 18.4434 5.41359Z" fill="#4A3C5F"/>
<path d="M13.7373 1.83427C13.2478 2.43428 13.0578 2.78376 12.6884 3.74017C12.2096 4.97953 11.7792 6.34801 11.6044 7.19507C11.4296 8.04214 11.7779 8.7697 12.5717 9.26569C13.4115 9.7904 14.3168 10.1989 15.5407 10.6577C16.7644 11.1165 17.6424 11.7706 17.9223 12.4412C18.202 13.1118 18.1384 14.4032 17.509 15.6385C16.8795 16.8737 16.0024 18.0217 14.464 19.151C12.9255 20.2805 11.8745 20.549 10.3532 20.902C8.83187 21.2549 9.33148 22.1246 9.85597 22.301C10.3804 22.4775 11.5343 22.654 13.0728 22.5834C14.6114 22.5128 16.1479 22.1246 17.9662 21.2068C19.7844 20.2892 21.5677 18.701 22.5137 16.5834C23.4596 14.4657 23.8369 11.478 22.7407 9.59508C22.1037 8.50096 21.7774 8.23753 21.5677 7.54802C21.3578 6.85851 21.4922 6.3331 21.883 5.8539C22.1083 5.5776 22.6119 5.29943 23.0732 4.96679C23.4369 4.70462 23.8754 4.44212 24.1901 4.23036C24.5048 4.01859 24.6118 3.90797 24.4019 3.76678L24.3944 3.76173C24.1821 3.61889 23.7638 3.33732 23.0362 3.06564C22.3 2.79073 22.1613 2.75288 21.883 2.73043C21.6046 2.70796 21.2549 2.95501 20.6956 3.37855C20.1362 3.80208 19.8913 3.8848 19.8563 4.36679C19.8213 4.84879 19.6816 5.46092 19.2969 5.99033C18.9123 6.51974 18.3968 6.78855 17.7064 6.85851C17.0159 6.92846 16.0824 6.71423 15.6235 6.17153C15.1644 5.62885 14.9795 5.31934 14.9795 4.54977C14.9795 3.78019 15.2758 3.23736 15.6698 2.84913C16.0638 2.46089 16.045 2.31973 16.045 2.14324C16.045 1.96678 15.9534 1.3665 15.877 1.08666C15.8003 0.806809 15.5254 0.762756 15.0767 0.910057C14.6068 1.0643 14.2269 1.23427 13.7373 1.83427Z" fill="#4A3C5F"/>
<path d="M6.80501 16.5643C6.57842 16.624 6.41952 17.0127 5.97474 17.7902C5.52995 18.5676 5.11266 19.1357 4.31644 20.0028C3.52022 20.87 3.02005 21.2288 1.75345 22.0063L1.72077 22.0263C0.480466 22.7877 0.115681 23.0116 0.0296165 23.2418C-0.0571989 23.4741 -0.00613332 23.7801 0.924963 23.9236C1.85606 24.0672 2.63229 24.0993 3.97733 23.1725C5.32236 22.2455 6.37918 21.3485 7.77284 20.6907C9.1665 20.0327 9.60282 20.074 11.1639 19.6142C12.725 19.1542 14.148 18.2516 15.13 17.1548C16.112 16.058 16.603 14.9525 16.8019 14.3243C17.0007 13.6962 17.029 12.8591 16.4978 12.4404C15.9904 12.0404 15.7161 11.9202 14.596 11.5015C13.4047 11.0562 13.0092 10.9446 12.1316 10.2468C11.3045 9.58925 11.3536 9.43209 10.8339 9.36231C10.3142 9.29252 9.92025 10.0699 9.7449 10.4591C9.61294 10.752 9.59039 11.269 9.93978 11.7557C10.2892 12.2423 10.614 12.7779 11.571 13.3217C12.528 13.8654 12.9739 13.9524 13.6264 14.0612C14.2789 14.1699 14.5337 14.3243 14.3584 14.6341C14.183 14.9438 13.8322 15.094 13.236 15.094C12.6398 15.094 11.798 14.8197 10.9563 14.3243C10.3627 13.975 9.93921 13.5813 9.62979 13.1921C9.32904 12.8138 9.14866 12.7589 8.86983 12.7589C8.59099 12.7589 8.3616 12.9358 8.02808 13.4311C7.69458 13.9264 7.44904 14.463 7.41398 14.7537C7.3789 15.0443 7.34743 15.3685 7.87353 15.7577C8.39962 16.1469 8.85418 16.3583 9.45041 16.4646C10.0466 16.5706 10.5004 16.757 10.0636 17.1548C9.6269 17.5526 9.09746 17.4646 8.6766 17.3583C8.25572 17.2523 7.64506 16.923 7.41398 16.7735C7.18289 16.624 7.03158 16.5045 6.80501 16.5643Z" fill="#4A3C5F"/>
<path d="M20.0226 2.5933C20.3391 2.39638 20.6889 2.1379 20.6889 1.95709C20.6889 1.77628 20.5106 1.5593 19.7627 1.0892C19.0147 0.619096 17.9816 0.0851766 17.3049 0.00432087C16.628 -0.0765349 16.9212 0.998948 17.001 1.42427C17.0807 1.84958 17.1045 2.1807 17.3858 2.21509C17.6671 2.24947 17.8779 2.28385 18.1241 2.35262C18.3702 2.42138 18.6866 2.56965 19.0382 2.77596C19.3898 2.98226 19.7062 2.79023 20.0226 2.5933Z" fill="#4A3C5F"/>
<path d="M33 12.2251C33 15.3901 35.2376 18 39.2867 18C41.2351 18 42.8487 17.505 44.0055 16.8001V14.2497C44.0055 13.4747 44.0486 13.1625 45 13.0801V12.24H40.0326V13.0801C41.1743 13.1247 41.57 13.3198 41.57 14.2497V16.32C41.0981 16.7097 40.5197 16.8899 39.5759 16.8899C36.8816 16.8899 35.6639 14.5049 35.6639 11.6701C35.6639 9.23991 36.6228 7.06491 39.1954 7.06491C41.0068 7.06491 42.0115 7.95011 42.6051 9.76517H43.7011L43.6402 7.15527C42.7574 6.52526 41.3721 6 39.4085 6C35.8465 6 33 8.3999 33 12.2251Z" fill="#4A3C5F"/>
<path d="M50.7509 16.9229C49.2613 16.9229 48.4774 15.3484 48.4774 13.066C48.4774 11.3144 48.9791 10.0771 50.2648 10.0771C51.7387 10.0771 52.5226 11.6521 52.5226 13.934C52.5226 15.7016 52.0366 16.9229 50.7509 16.9229ZM50.3432 18C52.9617 18 55 16.2 55 13.3394C55 10.8644 53.2753 9 50.6568 9C48.0383 9 46 10.8 46 13.6606C46 16.1516 47.7247 18 50.3432 18Z" fill="#4A3C5F"/>
<path d="M59.0173 7.28909L59.0865 6H58.5744L56.0692 6.66686V7.1111L56.9689 7.73334V16.3848C56.9689 17.0664 56.6367 17.1404 56 17.2297V18H60V17.2297C59.3633 17.1404 59.0173 17.0664 59.0173 16.3848V7.28909Z" fill="#4A3C5F"/>
<path d="M65.731 10.7559C66.7753 10.7559 67.5032 11.312 67.5032 12.3805V15.9216C67.0443 16.3023 66.4747 16.5217 65.7785 16.5217C64.1962 16.5217 63.4367 15.2779 63.4367 13.6243C63.4367 11.8535 64.307 10.7559 65.731 10.7559ZM71 17.5021V16.7121L70.6044 16.6976C70.0031 16.668 69.8449 16.4631 69.8449 15.9657V7.27338L69.924 6H69.3386L66.4747 6.65873V7.09756L67.5032 7.71221V10.3026C67.0127 9.99499 66.3481 9.80464 65.5253 9.80464C63.0411 9.80464 61 11.5169 61 14.268C61 16.4781 62.3608 18 64.6867 18C65.9367 18 66.9019 17.4289 67.5032 16.6094L67.4241 18H67.8829L71 17.5021Z" fill="#4A3C5F"/>
<path d="M81.0196 10.0002H75.3937V9.21464C75.3937 7.6593 75.8009 6.85907 76.902 6.85907C77.626 6.85907 77.9427 7.2891 77.9427 8.02951V8.62232H79.6169C80.009 8.42962 80.19 8.0295 80.19 7.61468C80.19 6.66686 79.3001 6 77.3243 6C74.7451 6 73.1614 7.34794 73.1614 9.57014V9.76284L72 10.2963V10.9627H73.1614V16.3848C73.1614 17.0664 72.7994 17.1404 72.1056 17.2297V18H76.5852V17.2297C75.7255 17.1257 75.3937 17.0664 75.3937 16.3554V10.9627H78.6968V16.3848C78.6968 17.0664 78.3348 17.1404 77.641 17.2297V18H82V17.2297C81.3062 17.1404 80.9442 17.0664 80.9442 16.3848V11.4368L81.0196 10.0002Z" fill="#4A3C5F"/>
<path d="M89.6614 16.2224C89.6614 16.9725 89.2956 17.054 88.5946 17.1522V18H93V17.1522C92.299 17.054 91.9179 16.9725 91.9179 16.2224V11.7063C91.9179 9.84776 90.8658 9.03238 89.3567 9.03238C88.0917 9.03238 86.9938 9.84776 86.3233 10.6302L86.3997 9H85.8357L83.0764 9.84776V10.3367L84.0673 11.103V16.2224C84.0673 16.9725 83.7015 17.054 83 17.1522V18H87.4054V17.1522C86.7044 17.054 86.3233 16.9725 86.3233 16.2224V11.3641C86.8567 11.0053 87.6495 10.6955 88.3658 10.6955C89.235 10.6955 89.6614 11.0544 89.6614 12.016V16.2224Z" fill="#4A3C5F"/>
<path d="M96.9053 12.8734C96.9053 11.0574 97.6786 10.0447 98.769 10.0447C99.6665 10.0447 99.9429 10.7037 99.9429 11.684V12.359H101.268C101.613 12.1984 101.848 11.7963 101.848 11.2181C101.848 9.86808 100.688 9 99.0593 9C96.7396 9 95 10.8803 95 13.7734C95 16.1516 96.3253 18 98.6172 18C100.495 18 101.558 16.8426 102 15.2676L101.475 14.9622C101.006 15.6372 100.329 16.1676 99.3352 16.1676C97.7197 16.1676 96.9053 14.8984 96.9053 12.8734Z" fill="#4A3C5F"/>
<path d="M103.176 7.73334V16.3848C103.176 17.0664 102.772 17.1404 102 17.2297V18H106.837V17.2297C106.064 17.1404 105.661 17.0664 105.661 16.3848V11.9703C106.232 11.6443 107.122 11.3628 107.895 11.3628C108.852 11.3628 109.339 11.6889 109.339 12.5627V16.3848C109.339 17.0664 108.936 17.1404 108.163 17.2297V18H113V17.2297C112.227 17.1404 111.824 17.0664 111.824 16.3848V12.2812C111.824 10.5925 110.649 9.85159 108.986 9.85159C107.609 9.85159 106.4 10.5925 105.661 11.3035V7.28909L105.745 6H105.124L102.084 6.66686V7.1111L103.176 7.73334Z" fill="#4A3C5F"/>
</svg>
