<svg width="85" height="24" viewBox="0 0 85 24" fill="none" xmlns="http://www.w3.org/2000/svg">
<g clip-path="url(#clip0_1079_648)">
<path d="M78.6836 9.23049H84.7293V10.7935H78.6836V9.23049ZM80.7447 6.92889H82.6682V17.7843H80.7447V6.92889Z" fill="black"/>
<path d="M70 14.9675H71.769C71.8609 15.4026 72.0956 15.7576 72.4738 16.0324C72.8514 16.2958 73.3612 16.4274 74.0022 16.4274C74.4143 16.4274 74.7351 16.3816 74.9639 16.29C75.2045 16.1984 75.3708 16.0725 75.4621 15.9122C75.5651 15.7519 75.6166 15.5686 75.6166 15.3625C75.6166 15.1106 75.5423 14.9159 75.3936 14.7785C75.256 14.6411 75.05 14.5266 74.7749 14.435C74.5003 14.3434 74.1567 14.2633 73.7446 14.1945C73.3208 14.0915 72.9029 13.977 72.4908 13.851C72.0787 13.725 71.7064 13.5705 71.3745 13.3873C71.042 13.1926 70.7786 12.9521 70.5842 12.6659C70.401 12.3681 70.3091 12.0074 70.3091 11.5838C70.3091 11.1944 70.3952 10.8452 70.5667 10.536C70.7499 10.2154 71.0022 9.94625 71.323 9.72873C71.6432 9.51115 72.0213 9.34514 72.4562 9.23058C72.8917 9.10467 73.3665 9.04169 73.8822 9.04169C74.6262 9.04169 75.2443 9.16192 75.7372 9.40239C76.2406 9.64286 76.6188 9.98061 76.8705 10.4158C77.1339 10.8509 77.2656 11.349 77.2656 11.9101H75.5827C75.4908 11.452 75.3134 11.12 75.05 10.9139C74.7866 10.7078 74.3915 10.6047 73.8646 10.6047C73.3378 10.6047 72.9374 10.6963 72.6623 10.8795C72.3877 11.0627 72.2502 11.3147 72.2502 11.6353C72.2502 11.8757 72.3362 12.0704 72.5077 12.2193C72.691 12.3567 72.9485 12.4769 73.281 12.58C73.6129 12.683 74.0022 12.7861 74.4488 12.8891C74.8609 13.0037 75.2502 13.1239 75.6166 13.2498C75.9831 13.3644 76.3097 13.5132 76.5959 13.6964C76.8933 13.8682 77.128 14.0972 77.3001 14.3835C77.4717 14.6697 77.5577 15.0247 77.5577 15.4484C77.5577 15.9751 77.4143 16.4274 77.128 16.8053C76.8535 17.1832 76.4525 17.4752 75.9257 17.6813C75.3995 17.876 74.7637 17.9733 74.0192 17.9733C73.3665 17.9733 72.7998 17.8989 72.3187 17.75C71.8492 17.6011 71.4547 17.4065 71.1339 17.166C70.8248 16.9256 70.5842 16.6679 70.4121 16.3931C70.2406 16.1183 70.1206 15.8549 70.0516 15.603C69.9942 15.3511 69.9772 15.1392 70 14.9675Z" fill="black"/>
<path d="M68.2831 5.60645V7.4443H65.999V5.60645H68.2831ZM66.1705 9.23066H68.0946V17.7844H66.1705V9.23066Z" fill="black"/>
<path d="M59.6089 9.23058H61.5154V17.7844H59.6089V9.23058ZM64.6073 10.8623C63.9892 10.8623 63.4565 10.9941 63.0099 11.2574C62.5749 11.5208 62.2255 11.8414 61.9621 12.2193C61.6986 12.5971 61.5154 12.9636 61.4124 13.3185L61.3954 12.3567C61.4071 12.2307 61.4469 12.0418 61.5154 11.7899C61.5845 11.5265 61.6875 11.2402 61.8251 10.9311C61.9738 10.6219 62.1681 10.3242 62.4087 10.0379C62.661 9.74015 62.9642 9.49968 63.3189 9.31646C63.6854 9.1333 64.115 9.04169 64.6073 9.04169V10.8623Z" fill="black"/>
<path d="M57.5033 17.7843H55.5968V9.23053H57.5033V17.7843ZM55.6998 13.7135L55.717 14.2632C55.6941 14.412 55.6426 14.6353 55.5624 14.933C55.4937 15.2308 55.3735 15.5571 55.2017 15.9121C55.0414 16.2556 54.8238 16.5877 54.549 16.9083C54.2856 17.2175 53.9536 17.4751 53.5528 17.6812C53.152 17.8759 52.6654 17.9732 52.0928 17.9732C51.6806 17.9732 51.2626 17.916 50.839 17.8015C50.4267 17.6984 50.0488 17.5209 49.7053 17.269C49.3733 17.0171 49.1042 16.6736 48.898 16.2384C48.6919 15.8033 48.5889 15.2537 48.5889 14.5895V9.23053H50.4954V14.2288C50.4954 14.767 50.5813 15.1907 50.7531 15.4999C50.9363 15.7976 51.1882 16.0094 51.5088 16.1354C51.8295 16.2614 52.2016 16.3243 52.6253 16.3243C53.2322 16.3243 53.7475 16.1869 54.1712 15.9121C54.5948 15.6372 54.9326 15.2995 55.1845 14.8987C55.4479 14.4865 55.6196 14.0914 55.6998 13.7135Z" fill="black"/>
<path d="M44.9991 14.9675H46.837C46.7454 15.5515 46.5164 16.0725 46.15 16.5305C45.795 16.9771 45.3083 17.332 44.6899 17.5954C44.0716 17.8473 43.3331 17.9733 42.4742 17.9733C41.5009 17.9733 40.6307 17.7958 39.8634 17.4409C39.0962 17.0744 38.4951 16.5591 38.06 15.895C37.6248 15.2308 37.4072 14.4408 37.4072 13.5247C37.4072 12.62 37.6191 11.83 38.0428 11.1543C38.4664 10.4788 39.0504 9.95773 39.7948 9.59129C40.5505 9.22491 41.4207 9.04169 42.4056 9.04169C43.4247 9.04169 44.272 9.22491 44.9476 9.59129C45.6347 9.94625 46.1442 10.4845 46.4763 11.2058C46.8084 11.9158 46.9458 12.8147 46.8885 13.9026H39.3482C39.4054 14.3835 39.56 14.8186 39.8119 15.2079C40.0753 15.5858 40.4302 15.8836 40.8769 16.1011C41.3234 16.3072 41.8444 16.4103 42.4398 16.4103C43.104 16.4103 43.6594 16.2786 44.106 16.0152C44.564 15.7519 44.8617 15.4026 44.9991 14.9675ZM42.354 10.5875C41.5753 10.5875 40.9341 10.7822 40.4302 11.1715C39.9264 11.5494 39.6001 12.0361 39.4512 12.6315H44.9648C44.919 11.9902 44.6613 11.4921 44.1919 11.1372C43.7224 10.7707 43.1097 10.5875 42.354 10.5875Z" fill="black"/>
<path d="M25.6059 11.3775H33.7818V13.0436H25.6059V11.3775ZM33.507 6.65405H35.4479V17.7843H33.507V6.65405ZM23.8711 6.65405H25.8292V17.7843H23.8711V6.65405Z" fill="black"/>
<mask id="mask0_1079_648" style="mask-type:luminance" maskUnits="userSpaceOnUse" x="0" y="0" width="21" height="24">
<path d="M20.5028 0H0V23.6876H20.5028V0Z" fill="white"/>
</mask>
<g mask="url(#mask0_1079_648)">
<path d="M10.2424 0V11.6448V11.8304H7.68183V4.43751L5.12121 5.91372L3.74978 6.70858L2.5606 7.39288V16.2679L3.74978 16.9522L5.12121 17.7471V11.8304H7.68183V22.1816L7.49955 22.077L5.1242 20.7024H5.12121L3.06556 19.5131L2.5606 19.2232L0 17.7471V5.91372L2.5606 4.43751L3.06556 4.14766L5.12121 2.95835H5.1242L7.49955 1.58376L7.68183 1.47917H7.68481L10.2424 0Z" fill="black"/>
<path d="M20.4876 5.91365V17.747L17.927 19.2232L17.4221 19.513L15.3664 20.7024H15.3634L12.9881 22.0769L12.8058 22.1815H12.8028L10.2422 23.6607V11.8303H12.8058V19.2232L15.3664 17.747L16.7378 16.9521L17.927 16.2678V7.39281L16.7378 6.70851L15.3664 5.91365V11.8303H12.8058V1.47913L12.9881 1.58371L15.3634 2.95829H15.3664L17.4221 4.14761L17.927 4.43747L20.4876 5.91365Z" fill="black"/>
</g>
</g>
<defs>
<clipPath id="clip0_1079_648">
<rect width="84.8781" height="24" fill="white"/>
</clipPath>
</defs>
</svg>
