<svg width="162" height="24" viewBox="0 0 162 24" fill="none" xmlns="http://www.w3.org/2000/svg">
<g clip-path="url(#clip0_1078_606)">
<path d="M42.5332 0.621826C41.91 0.621826 41.4027 0.818865 41.0113 1.21215C40.6198 1.60607 40.4243 2.09428 40.4243 2.67645C40.4243 3.25862 40.6198 3.74667 41.0113 4.14011C41.4027 4.53355 41.91 4.73043 42.5332 4.73043C43.156 4.73043 43.6637 4.52971 44.0547 4.12813C44.4461 3.72701 44.6421 3.21931 44.6421 2.60533C44.6421 2.03851 44.4461 1.56628 44.0547 1.18866C43.6637 0.811035 43.156 0.621826 42.5332 0.621826Z" fill="black"/>
<path d="M44.2294 6.50134H40.8379V19.2043H44.2294V6.50134Z" fill="black"/>
<path d="M52.3813 15.1433L49.1419 6.50134H45.6421L50.555 19.2043H54.0554L58.9901 6.50134H55.7291L52.3813 15.1433Z" fill="black"/>
<path d="M89.0774 6.31274C88.2082 6.31274 87.4072 6.49381 86.6752 6.85609C85.9432 7.2182 85.3379 7.72943 84.8594 8.3904C84.4537 7.7139 83.9174 7.19807 83.2514 6.8441C82.5839 6.48997 81.8377 6.31274 81.0119 6.31274C80.2582 6.31274 79.5667 6.45449 78.9359 6.73783C78.3052 7.02132 77.7727 7.43059 77.3377 7.9656V6.50147H74.0986V19.2044H77.4899V12.8295C77.4899 11.7279 77.7217 10.8974 78.1859 10.3382C78.6494 9.78008 79.2727 9.50055 80.0557 9.50055C81.5339 9.50055 82.2727 10.5002 82.2727 12.499V19.2044H85.6642V12.8295C85.6642 11.7279 85.8959 10.8974 86.3602 10.3382C86.8237 9.78008 87.4537 9.50055 88.2509 9.50055C88.9612 9.50055 89.5079 9.74843 89.8927 10.2441C90.2767 10.7399 90.4687 11.4916 90.4687 12.499V19.2044H93.8602V11.9321C93.8602 10.0592 93.4289 8.65455 92.5664 7.71795C91.7039 6.78113 90.5407 6.31274 89.0774 6.31274Z" fill="black"/>
<path d="M135.197 7.12744C134.306 6.58409 133.317 6.31274 132.23 6.31274C130.621 6.31274 129.397 6.86375 128.556 7.9656V6.50147H125.317V23.522L128.708 22.6118V17.8586C129.563 18.8821 130.737 19.3934 132.23 19.3934C133.317 19.3934 134.306 19.1219 135.197 18.5786C136.089 18.0358 136.787 17.2724 137.295 16.2887C137.802 15.3049 138.056 14.1597 138.056 12.853C138.056 11.5469 137.802 10.4017 137.295 9.41745C136.787 8.43398 136.089 7.67033 135.197 7.12744ZM133.784 15.4148C133.226 16.0523 132.512 16.3712 131.643 16.3712C130.773 16.3712 130.06 16.0523 129.502 15.4148C128.944 14.7773 128.665 13.9238 128.665 12.853C128.665 11.7827 128.944 10.9286 129.502 10.2911C130.06 9.65378 130.773 9.3348 131.643 9.3348C132.512 9.3348 133.226 9.65378 133.784 10.2911C134.342 10.9286 134.621 11.7827 134.621 12.853C134.621 13.9238 134.342 14.7773 133.784 15.4148Z" fill="black"/>
<path d="M158.643 6.78497C157.955 7.10011 157.407 7.5642 157.001 8.178V6.50147H153.762V19.2044H157.154V13.2071C157.154 12.0268 157.429 11.1414 157.979 10.5512C158.53 9.9606 159.291 9.66578 160.262 9.66578C160.393 9.66578 160.646 9.6816 161.024 9.7128V6.31274C160.124 6.31274 159.331 6.47031 158.643 6.78497Z" fill="black"/>
<path d="M120.197 7.12744C119.306 6.58409 118.317 6.31274 117.23 6.31274C115.621 6.31274 114.397 6.86375 113.556 7.9656V6.50147H110.317V23.522L113.708 22.6118V17.8586C114.563 18.8821 115.737 19.3934 117.23 19.3934C118.317 19.3934 119.306 19.1219 120.197 18.5786C121.089 18.0358 121.787 17.2724 122.295 16.2887C122.802 15.3049 123.056 14.1597 123.056 12.853C123.056 11.5469 122.802 10.4017 122.295 9.41745C121.787 8.43398 121.089 7.67033 120.197 7.12744ZM118.784 15.4148C118.226 16.0523 117.512 16.3712 116.643 16.3712C115.773 16.3712 115.06 16.0523 114.502 15.4148C113.944 14.7773 113.665 13.9238 113.665 12.853C113.665 11.7827 113.944 10.9286 114.502 10.2911C115.06 9.65378 115.773 9.3348 116.643 9.3348C117.512 9.3348 118.226 9.65378 118.784 10.2911C119.342 10.9286 119.621 11.7827 119.621 12.853C119.621 13.9238 119.342 14.7773 118.784 15.4148Z" fill="black"/>
<path d="M36.8471 7.72912C35.9554 6.78469 34.7851 6.31244 33.3361 6.31244C32.5819 6.31244 31.8867 6.4422 31.2489 6.70205C30.6111 6.9619 30.0675 7.33568 29.6186 7.82377V1.67944L26.2271 2.58976V19.2041H29.6186V12.9238C29.6186 11.7901 29.8721 10.9364 30.3794 10.3619C30.8867 9.78742 31.5673 9.50025 32.4227 9.50025C33.191 9.50025 33.778 9.74812 34.184 10.2438C34.5896 10.7395 34.7926 11.4913 34.7926 12.4987V19.2041H38.1841V11.9318C38.1841 10.0747 37.7383 8.67345 36.8471 7.72912Z" fill="black"/>
<path d="M151.708 13.8601H142.861C143.02 14.6521 143.396 15.2773 143.991 15.7363C144.585 16.1957 145.324 16.4248 146.208 16.4248C146.817 16.4248 147.357 16.3262 147.828 16.1281C148.298 15.93 148.737 15.6174 149.143 15.1898L150.947 17.3273C149.846 18.7048 148.237 19.3933 146.122 19.3933C144.802 19.3933 143.635 19.1125 142.621 18.5502C141.607 17.9887 140.824 17.2084 140.273 16.2112C139.722 15.2135 139.447 14.0819 139.447 12.8151C139.447 11.5647 139.719 10.4365 140.263 9.4311C140.806 8.42565 141.552 7.64197 142.501 7.08004C143.451 6.51814 144.512 6.23694 145.686 6.23694C146.831 6.23694 147.868 6.50654 148.795 7.04429C149.722 7.58302 150.451 8.35462 150.98 9.35955C151.509 10.3655 151.774 11.5328 151.774 12.8624C151.774 12.9103 151.752 13.2427 151.708 13.8601ZM143.773 9.75187C143.251 10.2268 142.933 10.8762 142.816 11.699H148.578C148.462 10.8916 148.143 10.2466 147.621 9.7635C147.1 9.2808 146.461 9.03922 145.708 9.03922C144.94 9.03922 144.295 9.27645 143.773 9.75187Z" fill="black"/>
<path d="M71.7725 13.9246H62.9245C63.0837 14.7165 63.4605 15.3417 64.055 15.8007C64.649 16.2602 65.388 16.4892 66.2722 16.4892C66.8808 16.4892 67.4208 16.3906 67.8919 16.1926C68.3624 15.9945 68.8013 15.6819 69.2072 15.2542L71.0114 17.3917C69.9101 18.7692 68.301 19.4577 66.1855 19.4577C64.8662 19.4577 63.6994 19.177 62.6852 18.6146C61.6706 18.0532 60.8882 17.2729 60.3374 16.2757C59.7863 15.2779 59.5112 14.1464 59.5112 12.8795C59.5112 11.6291 59.7828 10.501 60.3264 9.49552C60.87 8.49007 61.6161 7.7064 62.5658 7.1445C63.5149 6.58258 64.5764 6.30139 65.7503 6.30139C66.8954 6.30139 67.9317 6.57099 68.8592 7.10874C69.7867 7.64745 70.5147 8.41905 71.0441 9.42405C71.5731 10.4299 71.8376 11.5972 71.8376 12.9269C71.8376 12.9748 71.8159 13.3072 71.7725 13.9246ZM63.8374 9.81637C63.3155 10.2913 62.9966 10.9406 62.8807 11.7634H68.642C68.5257 10.9561 68.2073 10.3111 67.6853 9.82792C67.1634 9.3453 66.5256 9.10372 65.7724 9.10372C65.0037 9.10372 64.3592 9.34095 63.8374 9.81637Z" fill="black"/>
<path d="M105.795 7.7178C106.766 8.65455 107.252 10.0669 107.252 11.9557V19.2045H104.078V17.6227C103.439 18.803 102.251 19.3934 100.512 19.3934C99.6136 19.3934 98.8343 19.2281 98.1751 18.8976C97.5151 18.5671 97.0118 18.1107 96.6638 17.528C96.3166 16.9458 96.1426 16.2848 96.1426 15.5446C96.1426 14.3643 96.5513 13.4357 97.3711 12.7589C98.1893 12.0821 99.4538 11.7434 101.165 11.7434H103.86C103.86 10.9407 103.635 10.3229 103.187 9.8901C102.737 9.45728 102.063 9.2406 101.165 9.2406C100.541 9.2406 99.9286 9.3468 99.3271 9.55913C98.7256 9.7719 98.2148 10.0592 97.7948 10.4209L96.5776 7.84755C97.2143 7.35996 97.9793 6.98191 98.8703 6.71434C99.7621 6.44677 100.679 6.31274 101.621 6.31274C103.433 6.31274 104.824 6.78111 105.795 7.7178ZM102.904 16.4774C103.352 16.1864 103.672 15.7574 103.86 15.1905V13.8921H101.534C100.143 13.8921 99.4471 14.3879 99.4471 15.3794C99.4471 15.8516 99.6166 16.2257 99.9578 16.501C100.298 16.7768 100.766 16.9141 101.36 16.9141C101.939 16.9141 102.455 16.769 102.904 16.4774Z" fill="black"/>
<path d="M18.5306 8.47035L19.6011 6.61612L18.1033 4.02204L21.4268 4.02208C21.0173 3.31251 20.2603 2.87546 19.4411 2.87533L17.4447 2.87545L16.4467 1.14646C16.037 0.437057 15.2801 4.26099e-05 14.4609 0L16.1225 2.87849L13.127 2.87832L12.0785 4.69453C12.0784 4.69453 12.0785 4.69459 12.0785 4.69453L12.0764 4.68652H12.035C10.8116 4.47475 9.57247 4.47992 8.3715 4.6864C5.32184 5.21083 2.51895 7.03567 0.850935 9.92475C0.502018 10.5291 0.220815 11.1536 0 11.7889L6.4638 11.7891L15.2158 16.842L18.3489 22.3802C18.7882 21.8718 19.1879 21.3166 19.5364 20.7128C21.2045 17.8237 21.3833 14.4842 20.3127 11.581C19.9001 10.4621 19.301 9.40875 18.5306 8.47035ZM16.684 11.4483L15.3187 13.8131L15.2856 13.8703L8.907 10.1877L8.90865 10.1848L8.90197 10.1848L10.3335 7.70527L10.3376 7.70977L16.7162 11.3924L16.684 11.4483Z" fill="black"/>
<path d="M8.02131 19.1971L13.856 19.1971L5.104 14.1442L8.02131 19.1971Z" fill="black"/>
</g>
<defs>
<clipPath id="clip0_1078_606">
<rect width="161.25" height="24" fill="white"/>
</clipPath>
</defs>
</svg>
