<svg width="73" height="24" viewBox="0 0 73 24" fill="none" xmlns="http://www.w3.org/2000/svg">
<path d="M7.69758 16.2709L0.48205 17.9173C0.218868 17.9823 0.0214844 18.2423 0.0214844 18.5023V23.3983C0.0214844 23.8098 0.350459 24.0699 0.767162 23.9833L10.8338 21.6868C11.2505 21.6001 11.426 21.2101 11.2505 20.8419L9.43019 17.1374C9.14507 16.5525 9.43019 15.9459 10.0662 15.8159L16.6457 14.2561C17.1063 14.1478 17.501 13.6712 17.501 13.1946V8.66684C17.501 8.25522 17.1721 7.97359 16.7554 8.08191L7.25895 10.3133C6.66678 10.4433 6.4036 11.0065 6.66678 11.5481L8.33359 14.9494C8.61871 15.5343 8.33359 16.1192 7.69758 16.2709Z" fill="black"/>
<path d="M2.93884 4.03114L4.82498 7.84398C5.06623 8.34225 4.82498 8.86219 4.27668 8.97051L0.78954 9.77207C0.350908 9.88039 0 10.3137 0 10.7469V14.8414C0 15.5347 0.570223 15.9679 1.25011 15.8163L4.496 15.0797C4.93463 14.9931 5.28555 14.5381 5.28555 14.1048L5.30748 9.90205C5.30748 9.31712 5.78998 8.73219 6.36019 8.60222L16.9971 6.0892C17.2602 6.02421 17.4576 5.76424 17.4576 5.50427V0.608241C17.4576 0.196628 17.1287 -0.0850031 16.7119 0.0233165L3.35556 3.18624C2.93884 3.2729 2.76339 3.66285 2.93884 4.03114Z" fill="black"/>
<path d="M39 16.5714H30.7895V4H27V20H39V16.5714Z" fill="black"/>
<path d="M41 20H45V4H41V20Z" fill="black"/>
<path d="M48 20H51V17H48V20Z" fill="black"/>
<path d="M57.9736 13.76H66.2886V10.6057H57.9736V7.24572H67V4H54V20H57.9736V13.76Z" fill="black"/>
<path d="M69 20H73V4H69V20Z" fill="black"/>
</svg>
