<svg width="101" height="24" viewBox="0 0 101 24" fill="none" xmlns="http://www.w3.org/2000/svg">
<g clip-path="url(#clip0_1077_6561)">
<path d="M37.2279 5.22778C39.0846 5.22778 40.6309 5.89901 41.8687 7.24283C43.1064 8.58664 43.7252 10.2626 43.7252 12.2708C43.7252 14.2789 43.1064 15.9549 41.8687 17.2987C40.6309 18.6425 39.0846 19.3138 37.2279 19.3138C35.6044 19.3138 34.2509 18.7598 33.1676 17.653V23.9999H29.314V5.5503H33.1676V6.89C34.2509 5.78324 35.6044 5.22916 37.2279 5.22916V5.22778ZM34.109 14.64C34.7361 15.2754 35.5231 15.5924 36.4672 15.5924C37.4113 15.5924 38.1983 15.2754 38.8254 14.64C39.4525 14.0047 39.7667 13.2149 39.7667 12.2708C39.7667 11.3267 39.4525 10.5369 38.8254 9.90153C38.1983 9.26614 37.4113 8.94913 36.4672 8.94913C35.5231 8.94913 34.7361 9.26614 34.109 9.90153C33.4819 10.5369 33.1676 11.3267 33.1676 12.2708C33.1676 13.2149 33.4805 14.0047 34.109 14.64Z" fill="#282828"/>
<path d="M44.6733 18.9913V0H48.527V18.9913H44.6733Z" fill="#282828"/>
<path d="M56.3305 19.3135C54.4146 19.3135 52.8738 18.7926 51.7092 17.7492C50.5444 16.7058 49.9629 15.3261 49.9629 13.6102V5.55005H53.8165V13.0823C53.8165 13.8376 54.0467 14.4454 54.5056 14.9044C54.9646 15.3634 55.5739 15.5935 56.3291 15.5935C57.0843 15.5935 57.6909 15.3634 58.1471 14.9044C58.6019 14.4454 58.8306 13.8376 58.8306 13.0823V5.55005H62.6843V13.6102C62.6843 15.3275 62.1069 16.7072 60.9504 17.7492C59.7941 18.7926 58.2546 19.3135 56.3291 19.3135H56.3305Z" fill="#282828"/>
<path d="M80.4414 5.2277C81.9534 5.2277 83.1636 5.68253 84.0704 6.59219C84.9774 7.50186 85.4308 8.70785 85.4308 10.2102V18.9912H81.5772V11.3693C81.5772 10.6402 81.365 10.0544 80.939 9.612C80.5131 9.16957 79.944 8.94905 79.2314 8.94905C78.5188 8.94905 77.8903 9.17646 77.4271 9.63129C76.9626 10.0861 76.7311 10.6829 76.7311 11.4203V18.9912H72.8774V11.3693C72.8774 10.6402 72.6625 10.0544 72.2324 9.612C71.8025 9.16957 71.2318 8.94905 70.5178 8.94905C69.8039 8.94905 69.1768 9.17646 68.7137 9.63129C68.2492 10.0861 68.0177 10.6829 68.0177 11.4203V18.9912H64.1641V5.54883H68.0177V6.83615C69.0141 5.76385 70.2904 5.22632 71.8465 5.22632C72.7493 5.22632 73.5529 5.40825 74.2572 5.7735C74.9615 6.13875 75.5294 6.65145 75.9579 7.31166C77.0578 5.92097 78.5532 5.22632 80.4428 5.22632L80.4414 5.2277Z" fill="#282828"/>
<path d="M100.335 12.3218C100.335 12.7849 100.309 13.1887 100.258 13.5319H90.2294C90.4706 14.2872 90.8952 14.8799 91.5057 15.3085C92.1163 15.7385 92.8413 15.9522 93.6834 15.9522C94.4056 15.9522 95.0631 15.8102 95.6557 15.5277C96.2484 15.2451 96.717 14.8881 97.0601 14.4595L99.6512 16.6992C98.9209 17.5233 98.0319 18.1642 96.9829 18.6246C95.9342 19.0837 94.7998 19.3138 93.5799 19.3138C91.441 19.3138 89.6546 18.6342 88.224 17.2726C86.7935 15.9122 86.0781 14.2197 86.0781 12.1936C86.0781 10.898 86.3896 9.71684 87.0126 8.65281C87.6355 7.58878 88.4969 6.75216 89.5968 6.1416C90.6967 5.53239 91.9165 5.22778 93.2576 5.22778C95.2767 5.22778 96.961 5.90177 98.3102 7.24972C99.6595 8.59768 100.334 10.2888 100.334 12.3232L100.335 12.3218ZM93.2079 8.54944C92.4856 8.54944 91.8544 8.76583 91.3127 9.19999C90.7711 9.63413 90.4018 10.224 90.2046 10.9697H96.2498C96.0347 10.2144 95.6571 9.62173 95.1154 9.1931C94.5738 8.76445 93.9384 8.54944 93.2079 8.54944Z" fill="#282828"/>
<path d="M17.2442 7.62054V16.221L13.8438 12.8168V4.21631L17.2442 7.62054Z" fill="#282828"/>
<path d="M7.76396 17.1159H16.3505L12.9518 13.71H4.36523L7.76396 17.1159Z" fill="#282828"/>
<path d="M22.0772 21.9869V12.4613L18.6768 9.05713V18.5827L9.19824 18.551L12.597 21.9569L22.0755 21.9887" fill="#282828"/>
<path d="M8.31408e-07 0.00174896L0 9.52734L3.40047 12.9316V3.40598L12.879 3.43777L9.48026 0.0317953L0.00181 0" fill="#282828"/>
<path d="M22.9765 23.7959L21.0474 21.8636L21.9844 20.925L23.9135 22.8575L24.134 23.9617L22.9765 23.7959Z" fill="#282828"/>
</g>
<defs>
<clipPath id="clip0_1077_6561">
<rect width="100.489" height="24" fill="white"/>
</clipPath>
</defs>
</svg>
