<svg width="97" height="24" viewBox="0 0 97 24" fill="none" xmlns="http://www.w3.org/2000/svg">
<path d="M45.3369 10.6591L43.8221 10.4052C41.3423 9.98887 41.023 9.27709 41.023 8.70449C41.023 7.63377 42.2161 6.96839 44.1352 6.96839C45.8706 6.96839 47.1894 7.66063 47.6651 8.82292L47.7341 8.99262H50.3754L50.2842 8.65566C49.6026 6.13086 47.2855 4.56079 44.235 4.56079C42.1866 4.56079 40.4894 5.12606 39.4565 6.15283C38.7589 6.84508 38.399 7.7229 38.415 8.69106C38.4594 10.8349 40.127 12.2133 43.3661 12.7859L44.8747 13.0582C47.3225 13.5453 47.8229 14.1533 47.8229 14.9152C47.8229 15.9724 46.4523 16.7074 44.4926 16.7074C42.3554 16.7074 41.1808 15.9859 40.5658 14.2986L40.4992 14.1179H37.9824L38.0379 14.4353C38.5444 17.3215 40.9947 19.1175 44.431 19.1175C46.5016 19.1175 48.237 18.5302 49.3179 17.4656C50.0513 16.7416 50.4358 15.8333 50.4284 14.8358C50.4062 12.5869 48.7399 11.2195 45.3344 10.6591H45.3393H45.3369Z" fill="black"/>
<path d="M73.423 4.75757L68.3623 4.75757V18.9223H73.423C77.9415 18.9223 80.9747 16.0764 80.9747 11.8387C80.9747 7.60102 77.9415 4.75635 73.423 4.75635V4.75757ZM78.3285 11.84C78.3285 14.7213 76.4489 16.5135 73.423 16.5135H70.9087V7.16516L73.423 7.16516C76.4489 7.16516 78.3285 8.95499 78.3285 11.8387V11.84Z" fill="black"/>
<path d="M94.2871 4.75783V6.84189C93.0139 5.4342 91.3278 4.6394 89.5604 4.6394C85.3797 4.6394 82.3452 7.66721 82.3452 11.8378C82.3452 16.0083 85.3797 19.0361 89.5604 19.0361C91.3266 19.0361 93.0127 18.2413 94.2871 16.8337V18.9202H96.7731V4.75783L94.2871 4.75783ZM94.2871 11.839C94.2871 14.6605 92.3323 16.7067 89.638 16.7067C86.9438 16.7067 84.989 14.6605 84.989 11.839C84.989 9.01752 86.9438 6.9713 89.638 6.9713C92.3323 6.9713 94.2871 9.01752 94.2871 11.839Z" fill="black"/>
<path d="M64.4029 6.69637C63.0903 5.3424 61.1774 4.56592 59.1536 4.56592C54.984 4.56592 51.8398 7.69384 51.8398 11.8436C51.8398 15.9934 55.0629 19.1214 59.1746 19.1214C62.0735 19.1214 64.6753 17.4268 65.7809 14.8641H62.9596C62.0685 16.0862 60.7473 16.7516 59.177 16.7516C56.8932 16.7516 55.0247 15.2377 54.5255 13.0291L66.3552 13.0291L66.3688 12.7752C66.513 10.2748 65.8314 8.17121 64.4054 6.69881H64.4029V6.69637ZM54.4972 10.6557C54.9569 8.38242 56.728 6.93322 59.0932 6.93322C61.0948 6.93322 63.3565 8.34701 63.7078 10.6557L54.4972 10.6557Z" fill="black"/>
<path d="M13.123 0C13.0167 0.285403 12.9067 0.637399 12.8354 1.01318C12.63 2.09176 12.8245 2.87068 13.4155 3.32613C13.9714 3.75542 15.5836 4.4499 17.2901 5.18482C17.8472 5.42503 18.4176 5.67 18.9977 5.92567C18.3342 3.73996 15.0446 1.23674 13.123 0Z" fill="black"/>
<path d="M9.73319 2.02282C7.60739 3.81134 6.48345 5.41792 6.48345 6.67013C6.48345 9.16027 11.1689 10.8751 12.9733 11.3258C13.2512 11.3947 19.1912 12.9109 20.3393 16.2085C20.9387 15.8423 21.7738 15.3155 22.6077 14.7363C25.5033 12.7242 25.5976 12.0238 25.6 11.9941C25.6 11.6112 25.235 10.7526 22.7926 9.33745C21.0015 8.30049 18.7271 7.32061 16.7209 6.45608C14.7764 5.6189 13.2404 4.95652 12.5454 4.4202C11.268 3.43319 11.2136 1.92293 11.459 0.695698C10.9308 1.0691 10.3302 1.52099 9.73319 2.02282Z" fill="black"/>
<path d="M12.183 20.6751C11.627 20.2458 10.0161 19.5513 8.30963 18.8164C7.75249 18.5762 7.18207 18.3312 6.60197 18.0743C7.26546 20.26 10.5551 22.7633 12.4766 24C12.583 23.7146 12.693 23.3626 12.7643 22.988C12.9697 21.9094 12.7751 21.1305 12.1842 20.6751H12.183Z" fill="black"/>
<path d="M15.8668 21.9772C17.9926 20.1887 19.1165 18.5821 19.1165 17.3287C19.1165 14.8386 14.4323 13.1238 12.6267 12.6731C12.3488 12.6041 6.40884 11.0879 5.26074 7.79031C4.6613 8.15658 3.82621 8.68338 2.99232 9.26251C0.0966828 11.2746 0.00241706 11.975 0 12.0036C0 12.3865 0.364976 13.2451 2.80742 14.6602C4.59846 15.6972 6.87292 16.677 8.87908 17.5416C10.8236 18.3787 12.3596 19.0411 13.0558 19.5774C14.3332 20.5645 14.3876 22.0747 14.1422 23.3019C14.6704 22.9285 15.271 22.4767 15.868 21.9748L15.8668 21.9772Z" fill="black"/>
</svg>
