<svg width="147" height="24" viewBox="0 0 147 24" fill="none" xmlns="http://www.w3.org/2000/svg">
<path d="M45.5805 2.33576H37.6868V4.30922H43.4823C44.6496 4.30922 45.5805 5.25427 45.5805 6.40776V8.13108C45.5805 9.29847 44.6496 10.2296 43.4823 10.2296H35.7134V8.25616H43.6074V6.28269H37.8119C36.6445 6.28269 35.7134 5.33764 35.7134 4.18414V2.46084C35.7134 1.29344 36.6445 0.362305 37.8119 0.362305H45.5805V2.33576Z" fill="black"/>
<path d="M55.1498 0.362305C56.3172 0.362305 57.2622 1.29344 57.2622 2.46084V8.13108C57.2622 9.29847 56.3172 10.2296 55.1498 10.2296H49.0767C47.9093 10.2296 46.978 9.29847 46.978 8.13108V2.46084C46.978 1.29344 47.9093 0.362305 49.0767 0.362305H55.1498ZM55.2749 2.33576H48.9515V8.25616H55.2749V2.33576Z" fill="black"/>
<path d="M60.7761 8.18653H68.4753V10.3129H60.012C59.2613 10.3129 58.6499 9.7014 58.6499 8.95091V0.278809H60.7761V8.18653Z" fill="black"/>
<path d="M78.4345 0.362305C79.3796 0.362305 80.1441 1.11277 80.1441 2.05781V10.2296H78.1568V6.99148H71.8334V10.2296H69.8599V2.05781C69.8599 1.11277 70.6102 0.362305 71.5552 0.362305H78.4345ZM78.1568 2.33576H71.8334V5.01801H78.1568V2.33576Z" fill="black"/>
<path d="M89.8287 0.362305H91.8159V8.95102C91.8159 9.6598 91.2321 10.2296 90.5235 10.2296H88.9946C88.5083 10.2435 88.0774 9.97944 87.8551 9.54862L84.0195 2.33576H83.5052V10.2296H81.5317V1.65478C81.5317 0.932106 82.1014 0.362305 82.81 0.362305H84.4224C84.8949 0.362305 85.3395 0.612461 85.5618 1.04329L89.3978 8.25616H89.8287V0.362305Z" fill="black"/>
<path d="M101.778 0.362305C102.723 0.362305 103.488 1.11277 103.488 2.05781V10.2296H101.5V6.99148H95.1767V10.2296H93.2036V2.05781C93.2036 1.11277 93.9539 0.362305 94.899 0.362305H101.778ZM101.5 2.33576H95.1767V5.01801H101.5V2.33576Z" fill="black"/>
<path d="M45.3862 15.3191H37.6868V17.2926H45.3862V19.2661H37.6868V23.213H35.7134V13.3457H45.3862V15.3191Z" fill="black"/>
<path d="M54.9462 13.3457C56.1136 13.3457 57.0586 14.2768 57.0586 15.4442V21.1145C57.0586 22.2818 56.1136 23.213 54.9462 23.213H48.8726C47.7053 23.213 46.7744 22.2818 46.7744 21.1145V15.4442C46.7744 14.2768 47.7053 13.3457 48.8726 13.3457H54.9462ZM55.0709 15.3191H48.7475V21.2395H55.0709V15.3191Z" fill="black"/>
<path d="M66.7427 13.3457H68.7304V19.9053C68.7162 21.7398 67.2432 23.213 65.4086 23.213H61.7535C59.9192 23.213 58.4458 21.7398 58.4458 19.9053V13.3457H60.4193V19.5023C60.4193 20.4613 61.1975 21.2395 62.1567 21.2395H65.0057C65.9645 21.2395 66.7427 20.4613 66.7427 19.5023V13.3457Z" fill="black"/>
<path d="M78.4146 13.3457H80.4019V21.9344C80.4019 22.6432 79.8184 23.213 79.1094 23.213H77.5809C77.0942 23.2269 76.6634 22.9628 76.4411 22.532L72.6054 15.3191H72.0912V23.213H70.1177V14.6382C70.1177 13.9155 70.6878 13.3457 71.3964 13.3457H73.0087C73.4808 13.3457 73.9258 13.5959 74.1481 14.0267L77.9838 21.2395H78.4146V13.3457Z" fill="black"/>
<path d="M88.7523 13.3457C90.5869 13.3457 92.06 14.8327 92.0737 16.6533V19.9053C92.06 21.7398 90.5869 23.213 88.7523 23.213H81.7896V13.3457H88.7523ZM90.0865 17.0702C90.0865 16.0974 89.3082 15.3191 88.3494 15.3191H83.7631V21.2395H88.3494C89.3082 21.2395 90.0865 20.4613 90.0865 19.5023V17.0702Z" fill="black"/>
<path d="M102.036 13.3457C102.981 13.3457 103.746 14.0962 103.746 15.0412V23.213H101.758V19.9749H95.4349V23.213H93.4614V15.0412C93.4614 14.0962 94.2117 13.3457 95.1568 13.3457H102.036ZM101.758 15.3191H95.4349V18.0014H101.758V15.3191Z" fill="black"/>
<path d="M105.133 13.3457H115V15.3191H111.054V23.213H109.08V15.3191H105.133V13.3457Z" fill="black"/>
<path d="M118.371 23.213H116.398V13.3457H118.371V23.213Z" fill="black"/>
<path d="M127.936 13.3457C129.103 13.3457 130.048 14.2768 130.048 15.4442V21.1145C130.048 22.2818 129.103 23.213 127.936 23.213H121.862C120.695 23.213 119.764 22.2818 119.764 21.1145V15.4442C119.764 14.2768 120.695 13.3457 121.862 13.3457H127.936ZM128.061 15.3191H121.738V21.2395H128.061V15.3191Z" fill="black"/>
<path d="M139.733 13.3457H141.72V21.9344C141.72 22.6432 141.136 23.213 140.428 23.213H138.899C138.413 23.2269 137.982 22.9628 137.759 22.532L133.923 15.3191H133.409V23.213H131.436V14.6382C131.436 13.9155 132.006 13.3457 132.714 13.3457H134.327C134.799 13.3457 135.244 13.5959 135.466 14.0267L139.302 21.2395H139.733V13.3457Z" fill="black"/>
<mask id="mask0_1077_2108" style="mask-type:luminance" maskUnits="userSpaceOnUse" x="0" y="0" width="26" height="24">
<path d="M25.5145 0.640137H0V23.5004H25.5145V0.640137Z" fill="white"/>
</mask>
<g mask="url(#mask0_1077_2108)">
<path d="M25.383 18.6638L21.1711 23.1891C21.0796 23.2874 20.9688 23.3657 20.8457 23.4193C20.7226 23.4729 20.5898 23.5005 20.4556 23.5004H0.488974C0.393702 23.5004 0.300508 23.4725 0.220839 23.4202C0.14117 23.3679 0.0784985 23.2933 0.0405242 23.2058C0.0025495 23.1183 -0.00907357 23.0215 0.00708295 22.9275C0.0232395 22.8334 0.0664717 22.7461 0.131468 22.6763L4.34656 18.1511C4.43788 18.0531 4.54832 17.9749 4.67103 17.9213C4.79374 17.8678 4.9261 17.84 5.05995 17.8398H25.0255C25.1208 17.8398 25.214 17.8676 25.2936 17.92C25.3733 17.9723 25.4359 18.0469 25.474 18.1344C25.5119 18.2219 25.5235 18.3186 25.5074 18.4127C25.4912 18.5068 25.448 18.5941 25.383 18.6638ZM21.1711 9.55129C21.0796 9.45297 20.9688 9.3746 20.8457 9.32105C20.7226 9.2675 20.5898 9.23988 20.4556 9.23996H0.488974C0.393702 9.23996 0.300508 9.26786 0.220839 9.32018C0.14117 9.37251 0.0784985 9.44703 0.0405242 9.53457C0.0025495 9.62207 -0.00907357 9.71882 0.00708295 9.81289C0.0232395 9.90696 0.0664717 9.99423 0.131468 10.064L4.34656 14.5892C4.43788 14.6873 4.54832 14.7655 4.67103 14.8191C4.79374 14.8726 4.9261 14.9004 5.05995 14.9006H25.0255C25.1208 14.9006 25.214 14.8727 25.2936 14.8204C25.3733 14.768 25.4359 14.6935 25.474 14.606C25.5119 14.5185 25.5235 14.4217 25.5074 14.3276C25.4912 14.2336 25.448 14.1463 25.383 14.0766L21.1711 9.55129ZM0.488974 6.30079H20.4556C20.5898 6.30083 20.7226 6.27325 20.8457 6.21966C20.9688 6.16611 21.0796 6.08774 21.1711 5.98946L25.383 1.46419C25.448 1.39441 25.4912 1.30713 25.5074 1.21307C25.5235 1.11901 25.5119 1.02228 25.474 0.934743C25.4359 0.847209 25.3733 0.772699 25.2936 0.72036C25.214 0.668024 25.1208 0.640141 25.0255 0.640137H5.05995C4.9261 0.640365 4.79374 0.668114 4.67103 0.721666C4.54832 0.775217 4.43788 0.853434 4.34656 0.951472L0.132555 5.47672C0.067621 5.54644 0.024408 5.63363 0.00821477 5.72758C-0.00797843 5.82154 0.00355243 5.91817 0.0413933 6.00567C0.0792338 6.09317 0.141739 6.16769 0.221244 6.22009C0.300749 6.27254 0.393797 6.30055 0.488974 6.30079Z" fill="url(#paint0_linear_1077_2108)"/>
</g>
<defs>
<linearGradient id="paint0_linear_1077_2108" x1="2.15372" y1="24.0452" x2="23.1341" y2="0.436649" gradientUnits="userSpaceOnUse">
<stop offset="0.08" stop-color="#9945FF"/>
<stop offset="0.3" stop-color="#8752F3"/>
<stop offset="0.5" stop-color="#5497D5"/>
<stop offset="0.6" stop-color="#43B4CA"/>
<stop offset="0.72" stop-color="#28E0B9"/>
<stop offset="0.97" stop-color="#19FB9B"/>
</linearGradient>
</defs>
</svg>
