<svg width="102" height="24" viewBox="0 0 102 24" fill="none" xmlns="http://www.w3.org/2000/svg">
<path style="mix-blend-mode:multiply" d="M11.7534 1.3999C5.8966 1.3999 1.13281 6.16369 1.13281 12.0204C1.13281 17.8772 5.8966 22.641 11.7534 22.641C17.6101 22.641 22.3739 17.8772 22.3739 12.0204C22.3739 6.16369 17.6101 1.3999 11.7534 1.3999Z" fill="url(#paint0_linear_1077_6591)"/>
<path d="M2.68179 15.3223C3.2302 16.8304 5.19017 17.6318 7.75648 17.6318C9.4519 17.6318 11.4119 17.2823 13.4066 16.5562C18.4176 14.7333 21.7408 11.2228 20.8275 8.71824H20.8294C19.4796 5.01071 15.9266 2.36523 11.7537 2.36523C6.42215 2.36523 2.09863 6.68876 2.09863 12.0203C2.09863 13.1808 2.30332 14.2931 2.67793 15.3223H2.67986H2.68179Z" fill="white"/>
<path d="M20.0376 13.557C18.5353 15.1443 16.2973 16.5327 13.7348 17.4635C11.6976 18.205 9.62952 18.5969 7.75451 18.5969C6.33908 18.5969 5.11869 18.373 4.1416 17.9578C5.90847 20.219 8.66015 21.675 11.7517 21.675C17.0832 21.675 21.4067 17.3515 21.4067 12.0199C21.4067 11.9041 21.4028 11.7882 21.397 11.6724C21.0784 12.2999 20.6246 12.9314 20.0357 13.5551L20.0376 13.557Z" fill="white"/>
<path d="M7.75648 17.631C8.40529 17.631 9.09466 17.5788 9.8072 17.4746C9.79562 17.4707 9.78403 17.4668 9.77245 17.463C7.21 16.5303 4.97197 15.1438 3.46964 13.5566C2.87876 12.9328 2.42497 12.3014 2.10828 11.6738C2.10442 11.7897 2.09863 11.9036 2.09863 12.0214C2.09863 13.1819 2.30332 14.2942 2.67793 15.3234H2.67986C3.22827 16.8315 5.18824 17.631 7.75455 17.631H7.75648Z" fill="url(#paint1_linear_1077_6591)"/>
<path d="M11.7536 18.0674C10.3788 18.413 9.02318 18.5965 7.75451 18.5965C6.33908 18.5965 5.11869 18.3725 4.1416 17.9573C5.90847 20.2185 8.66015 21.6745 11.7517 21.6745C14.8432 21.6745 17.5949 20.2185 19.3618 17.9573C18.3847 18.3744 17.1662 18.5965 15.7489 18.5965C14.4821 18.5965 13.1246 18.413 11.7517 18.0674H11.7536Z" fill="url(#paint2_linear_1077_6591)"/>
<path d="M30.4197 15.8268L32.2228 13.965C32.8543 15.3276 34.0706 15.7368 35.6037 15.7368C36.9327 15.7368 37.6769 15.3276 37.6769 14.7149C37.6769 14.1921 37.0688 13.875 35.423 13.5343C31.906 12.8295 30.7344 11.7411 30.7344 9.85573C30.7344 7.97033 32.4695 6.19849 35.8057 6.19849C38.3977 6.19849 39.7948 6.96979 40.8324 8.60665L38.9166 10.2413C38.2638 9.06086 37.3622 8.46953 35.8504 8.46953C34.5873 8.46953 33.8218 8.96874 33.8218 9.56006C33.8218 10.1514 34.3853 10.5584 36.2778 10.9462C39.5694 11.604 40.7856 12.6045 40.7856 14.4899C40.7856 16.5338 39.0059 18.01 35.6462 18.01C33.3243 18.01 31.4531 17.3737 30.4175 15.829L30.4197 15.8268Z" fill="#0F2A43"/>
<path d="M67.5714 10.3292V17.7786H64.484V11.2376C64.484 9.28364 63.6504 8.64946 62.4788 8.64946C61.1711 8.64946 59.8868 9.51289 59.8868 11.7839V17.7786H56.7993V1.45068H59.8868V8.3538C60.6076 6.90119 61.9153 6.19631 63.5165 6.19631C65.8597 6.19631 67.5735 7.5825 67.5735 10.3292H67.5714Z" fill="#0F2A43"/>
<path d="M80.3868 13.2815H72.4066C72.7213 14.9163 73.7143 15.6897 75.224 15.6897C76.5317 15.6897 77.3887 15.1905 77.7034 14.2821L80.2274 15.2141C79.5065 17.0309 77.7714 18.0079 75.224 18.0079C71.4817 18.0079 69.3638 15.8268 69.3638 12.1032C69.3638 8.37955 71.4157 6.19849 75.0433 6.19849C78.6709 6.19849 80.4761 8.33242 80.4761 12.0582C80.4761 12.3753 80.4315 12.9902 80.3868 13.2837V13.2815ZM72.3854 11.1005H77.6375C77.3887 9.39723 76.4424 8.48882 75.022 8.48882C73.6016 8.48882 72.632 9.37367 72.3854 11.1005Z" fill="#0F2A43"/>
<path d="M89.8957 6.44696L89.5129 9.17221C89.1982 8.96867 88.6794 8.83155 88.0925 8.83155C86.7402 8.83155 85.3878 9.82996 85.3878 11.8974V17.7807H82.3003V6.42339H84.9838V8.64944C85.5707 7.08328 86.9209 6.19629 88.6794 6.19629C89.1748 6.19629 89.6256 6.28627 89.8957 6.44696Z" fill="#0F2A43"/>
<path d="M101.461 13.2815H93.4808C93.7955 14.9163 94.7885 15.6897 96.2982 15.6897C97.6059 15.6897 98.4628 15.1905 98.7775 14.2821L101.302 15.2141C100.581 17.0309 98.8456 18.0079 96.2982 18.0079C92.5558 18.0079 90.438 15.8268 90.438 12.1032C90.438 8.37955 92.4899 6.19849 96.1175 6.19849C99.745 6.19849 101.55 8.33242 101.55 12.0582C101.55 12.3753 101.506 12.9902 101.461 13.2837V13.2815ZM93.4595 11.1005H98.7116C98.4628 9.39723 97.5166 8.48882 96.0962 8.48882C94.6758 8.48882 93.7062 9.37367 93.4595 11.1005Z" fill="#0F2A43"/>
<path d="M54.9472 12.0796C54.9472 15.8032 52.4615 18.0078 49.4867 18.0078C47.8197 18.0078 46.3886 17.168 45.7358 15.8953V22.5499H42.6484V6.42339H45.7358V8.36663C46.3674 6.91402 47.6836 6.19629 49.4867 6.19629C52.4849 6.19629 54.9472 8.37735 54.9472 12.0796ZM52.049 12.1031C52.049 9.78711 50.4202 8.58303 48.7744 8.58303C47.1286 8.58303 45.7337 9.78711 45.7337 11.9896V12.2167C45.7337 14.3742 47.1499 15.6232 48.7744 15.6232C50.3989 15.6232 52.049 14.4192 52.049 12.1031Z" fill="#0F2A43"/>
<defs>
<linearGradient id="paint0_linear_1077_6591" x1="4.63794" y1="4.54284" x2="19.2893" y2="21.8463" gradientUnits="userSpaceOnUse">
<stop stop-color="#2C61F9"/>
<stop offset="1" stop-color="#1DCBFA"/>
</linearGradient>
<linearGradient id="paint1_linear_1077_6591" x1="10.7302" y1="11.6738" x2="10.7302" y2="21.6745" gradientUnits="userSpaceOnUse">
<stop stop-color="#27D8FF"/>
<stop offset="1" stop-color="white"/>
</linearGradient>
<linearGradient id="paint2_linear_1077_6591" x1="10.7302" y1="11.6738" x2="10.7302" y2="21.6745" gradientUnits="userSpaceOnUse">
<stop stop-color="#27D8FF"/>
<stop offset="1" stop-color="white"/>
</linearGradient>
</defs>
</svg>
