<svg width="122" height="24" viewBox="0 0 122 24" fill="none" xmlns="http://www.w3.org/2000/svg">
<g clip-path="url(#clip0_1079_677)">
<mask id="mask0_1079_677" style="mask-type:luminance" maskUnits="userSpaceOnUse" x="0" y="0" width="122" height="24">
<path d="M121.92 0H0V24H121.92V0Z" fill="white"/>
</mask>
<g mask="url(#mask0_1079_677)">
<path d="M0 20.2893V24.0001H23.9524V20.1827H6.98583L23.5572 8.70731V3.98059L0 20.2893Z" fill="black"/>
<path d="M108.168 0L112.965 13.2408H103.367L108.168 0H103.602L94.4917 24H99.4321L101.64 17.0948H114.736L116.944 24H121.92L112.976 0H108.168Z" fill="black"/>
<path d="M89.7704 0H85.1055V24H89.7704V0Z" fill="black"/>
<path d="M72.203 24L64.832 0H69.0919L74.9688 19.5032L80.8423 0H85.1056L77.7345 24H72.203Z" fill="black"/>
<path d="M64.832 0H60.167V24H64.832V0Z" fill="black"/>
<path d="M41.3311 0L46.1322 13.2408H36.5333L41.3311 0H36.7691L27.6582 24H32.5988L34.8067 17.0948H47.8986L50.1066 24H55.0869L46.1388 0H41.3311Z" fill="black"/>
<path d="M0.394531 0V4.08716L23.5567 3.98057V0H0.394531Z" fill="black"/>
</g>
</g>
<defs>
<clipPath id="clip0_1079_677">
<rect width="121.92" height="24" fill="white"/>
</clipPath>
</defs>
</svg>
