<svg xmlns="http://www.w3.org/2000/svg" width="144" height="24" fill="none" viewBox="0 0 144 24"><g fill="#fff" clip-path="url(#a)"><path d="M88.529 23.5c-.664-.179-1.329-.324-1.947-.543a11.988 11.988 0 0 1-1.88-.788 13.64 13.64 0 0 1-2.233-1.41 10.415 10.415 0 0 1-3.21-4.575 12.16 12.16 0 0 1 .712-9.93 11.16 11.16 0 0 1 2.99-3.44A11.207 11.207 0 0 1 87.08.85C88.27.601 89.486.489 90.7.52c1.75-.063 3.49.296 5.07 1.046a8.637 8.637 0 0 1 3.024 2.191c.599.628 1.158 1.29 1.675 1.987a10.466 10.466 0 0 1 1.661 5.157c.046.867.113 1.728.179 2.648H83.22c-.047.086-.08.113-.08.146.015.584.17 1.156.452 1.668.924 2.437 2.884 3.681 5.316 4.072a8.453 8.453 0 0 0 5.734-.867 12.366 12.366 0 0 0 1.608-1.417c.166-.181.385-.306.625-.358h4.093c.121.012.241.032.359.06-.385.662-.704 1.258-1.09 1.827a11.038 11.038 0 0 1-6.844 4.582c-.538.125-1.083.185-1.628.271L88.53 23.5ZM83.346 9.73h14.16a.66.66 0 0 0 0-.246 6.096 6.096 0 0 0-2.425-3.601 8.21 8.21 0 0 0-6.42-1.219 7.602 7.602 0 0 0-2.152.702 6.453 6.453 0 0 0-3.09 3.847 2.23 2.23 0 0 0-.073.516ZM0 10.775c.113-.602.213-1.205.346-1.8a10.383 10.383 0 0 1 2.598-4.84 11.24 11.24 0 0 1 5.9-3.35c1.159-.181 2.33-.265 3.502-.252a9.998 9.998 0 0 1 4.877 1.02c.994.527 1.928 1.16 2.785 1.887a8.742 8.742 0 0 1 2.551 3.449c.665 1.483 1.23 3.059 1.017 4.68a34.674 34.674 0 0 0-.113 3.8c-.053 2.265-.04 4.536 0 6.807 0 .457-.16.563-.585.55h-3.13v-4.079l-.106-.04c-.206.331-.399.663-.618 1a8.621 8.621 0 0 1-2.544 2.516 8.657 8.657 0 0 1-3.35 1.271c-.06 0-.113.073-.173.113H9.921c-.067-.033-.127-.093-.193-.093a9.324 9.324 0 0 1-4.558-1.563 9.766 9.766 0 0 1-3.064-2.88 11.241 11.241 0 0 1-1.594-3.158C.306 15.08.179 14.317.02 13.57L0 10.775Zm4.273 1.636c.1.47.219 1.324.438 2.112a6.536 6.536 0 0 0 1.84 3.138 7.05 7.05 0 0 0 3.788 1.728c.556.068 1.116.09 1.675.066a8.001 8.001 0 0 0 1.541-.113 11.947 11.947 0 0 0 1.682-.562 6.082 6.082 0 0 0 3.415-3.45 7.765 7.765 0 0 0 .538-4.68A8.918 8.918 0 0 0 18.36 8a6.227 6.227 0 0 0-3.602-2.999 7.611 7.611 0 0 0-2.166-.496c-1.01.01-2.018.111-3.01.304a5.725 5.725 0 0 0-3.509 2.105c-1.19 1.464-1.68 3.225-1.8 5.496ZM112.49 23.5c-.804-.166-1.628-.272-2.412-.517a7.647 7.647 0 0 1-4.718-3.813 9.278 9.278 0 0 1-.584-2.377c0-.092.179-.324.279-.324h4.1a2.63 2.63 0 0 0 0 .867c.115.382.325.728.611 1.006a5.693 5.693 0 0 0 3.628 1.278 8.335 8.335 0 0 0 3.402-.483c1.329-.583 2.193-1.629 1.728-3.198a1.744 1.744 0 0 0-.844-1.006 12.004 12.004 0 0 0-2.532-.748c-1.814-.338-3.668-.477-5.449-.914a5.88 5.88 0 0 1-3.907-2.807 7.243 7.243 0 0 1-.471-1.721 3.337 3.337 0 0 1-.153-.623 6.272 6.272 0 0 1 .824-3.754 7.368 7.368 0 0 1 2.937-2.78 10.215 10.215 0 0 1 5.036-1.053 9.328 9.328 0 0 1 5.489 1.476 6.537 6.537 0 0 1 3.043 5.297h-4.226c-.086-.258-.172-.563-.279-.854a2.954 2.954 0 0 0-2.252-1.794 6.955 6.955 0 0 0-4.399.205 3.127 3.127 0 0 0-1.887 2.608 2.052 2.052 0 0 0 1.568 1.834c1.329.265 2.658.424 3.987.702 1.577.256 3.132.632 4.651 1.126a4.893 4.893 0 0 1 3.116 3.238c.104.444.151.9.14 1.356.046.622.046 1.246 0 1.867a5.998 5.998 0 0 1-2.16 3.734 8.785 8.785 0 0 1-3.8 1.927l-1.11.265-3.356-.02Zm9.084-16.333v-.04h-2.937v.04h2.937ZM132.85 23.5c-.844-.252-1.708-.457-2.518-.775a7.22 7.22 0 0 1-4.3-4.184 11.799 11.799 0 0 1-.385-2.092h4.2c.093 0 .272.126.272.205.073 1.735 1.329 2.377 2.731 2.701a7.648 7.648 0 0 0 5.316-.463 2.473 2.473 0 0 0 1.056-.91 2.45 2.45 0 0 0 .392-1.334c.06-1.066-.491-1.556-1.329-1.94a12.623 12.623 0 0 0-3.388-.715c-1.994-.305-4.114-.417-5.941-1.477a5.025 5.025 0 0 1-2.016-1.852 4.998 4.998 0 0 1-.742-2.63 6.573 6.573 0 0 1 1.642-4.846 7.803 7.803 0 0 1 4.904-2.55 13.707 13.707 0 0 1 5.169.186 7.35 7.35 0 0 1 4.811 3.615c.301.606.535 1.244.698 1.9.053.166-.1.384-.166.603l.179.06v.059h-4.272c-.16-1.37-1.117-2.072-2.319-2.417a6.669 6.669 0 0 0-4.805.345 2.558 2.558 0 0 0-1.276 3.27 2.09 2.09 0 0 0 1.642 1.132c1.189.259 2.405.398 3.615.596 1.727.278 3.488.47 5.063 1.291a4.89 4.89 0 0 1 2.857 3.734c.326 2.35-.173 4.443-1.993 6.118a8.588 8.588 0 0 1-5.442 2.27.588.588 0 0 0-.193.1h-3.462ZM37.35 23.5c-.305-.053-.61-.1-.916-.159a11.318 11.318 0 0 1-4.758-1.986 11.268 11.268 0 0 1-3.376-3.887 11.84 11.84 0 0 1-1.289-6.19c.1-1.944.685-3.832 1.701-5.495a11.379 11.379 0 0 1 4.06-3.827 9.42 9.42 0 0 1 4.28-1.324 25.816 25.816 0 0 1 3.854 0 10.3 10.3 0 0 1 5.315 2.205 8.913 8.913 0 0 1 2.97 3.549c.353.854.771 1.681 1.203 2.595a5.06 5.06 0 0 1-.664.086h-3.322a.766.766 0 0 1-.751-.444 28.957 28.957 0 0 0-1.09-1.721 4.451 4.451 0 0 0-2.286-1.675 9.062 9.062 0 0 0-2.538-.722c-2.107-.125-4.153.186-5.834 1.63a7.174 7.174 0 0 0-2.479 4.951 8.578 8.578 0 0 0 .585 4.25c.365.92.94 1.742 1.68 2.401a6.405 6.405 0 0 0 2.58 1.4 9.25 9.25 0 0 0 2.51.37 8.496 8.496 0 0 0 4.619-1.284 5.525 5.525 0 0 0 2.2-2.714.868.868 0 0 1 .963-.603c1.083.04 2.173 0 3.263 0 .138.006.275.02.412.04-.317 1.562-1 3.028-1.994 4.277a10.771 10.771 0 0 1-3.09 2.701 11.074 11.074 0 0 1-4.04 1.424c-.101.032-.197.08-.285.139l-3.482.013ZM62.654 23.5c-.631-.172-1.276-.318-1.9-.53a9.468 9.468 0 0 1-4.486-2.727c-.332-.398-.757-.715-1.09-1.106a11.234 11.234 0 0 1-2.298-5.197 11.828 11.828 0 0 1-.094-1.986 7.559 7.559 0 0 1 0-.868c.033-.189.089-.373.167-.55a4.99 4.99 0 0 1 .046-.787 10.434 10.434 0 0 1 2.824-5.614 11.136 11.136 0 0 1 3.562-2.543A12.895 12.895 0 0 1 63.299.546c.538-.046 1.083.04 1.62 0 1.257-.05 2.513.123 3.709.51a12.9 12.9 0 0 1 3.568 1.887 10.35 10.35 0 0 1 3.097 3.847c.317.742.584 1.505.797 2.284h-1.994a11.338 11.338 0 0 0-1.574 0 .94.94 0 0 1-1.09-.662 6.796 6.796 0 0 0-1.815-2.31 6.827 6.827 0 0 0-2.624-1.332 8.262 8.262 0 0 0-3.003-.304 7.012 7.012 0 0 0-4.3 1.668 7.513 7.513 0 0 0-2.405 4.535 8.392 8.392 0 0 0 .153 3.456 6.71 6.71 0 0 0 3.25 4.443 7.702 7.702 0 0 0 3.322.973 8.167 8.167 0 0 0 5.727-1.715 5 5 0 0 0 1.582-2.171.986.986 0 0 1 1.15-.742c1.149.066 2.305 0 3.528 0a8.337 8.337 0 0 1-1.33 3.43c-.337.52-.715 1.013-1.129 1.476a10.629 10.629 0 0 1-3.654 2.648 9.07 9.07 0 0 1-3.529.934c-.066 0-.126.066-.193.099h-3.508Z"/><path d="M141.302 7.3c1.67 0 3.024-.024 3.024-.054 0-.029-1.354-.053-3.024-.053s-3.023.024-3.023.053c0 .03 1.353.053 3.023.053ZM92.689 13.417c6.84 0 12.386-.006 12.386-.013 0-.008-5.546-.014-12.386-.014-6.84 0-12.386.006-12.386.014 0 .007 5.545.013 12.386.013ZM121.574 7.167h-2.937v-.04h2.937v.04Z"/></g><defs><clipPath id="a"><path fill="#fff" d="M0 .5h144v23H0z"/></clipPath></defs></svg>