<svg xmlns="http://www.w3.org/2000/svg" width="163" height="59" fill="none" viewBox="0 0 163 59">
  <rect width="162.118" height="59" fill="#090909" rx="9"/>
  <path fill="#fff" d="M37.16 30.395a7.404 7.404 0 0 1 3.48-6.157c-1.334-1.914-3.57-3.127-5.895-3.2-2.48-.262-4.885 1.49-6.15 1.49-1.288 0-3.234-1.464-5.33-1.42-2.731.088-5.278 1.647-6.607 4.044-2.856 4.966-.726 12.263 2.011 16.277 1.37 1.965 2.97 4.16 5.063 4.082 2.049-.085 2.814-1.311 5.287-1.311 2.45 0 3.168 1.311 5.305 1.262 2.198-.036 3.583-1.974 4.904-3.958.984-1.4 1.741-2.948 2.243-4.586-2.583-1.097-4.309-3.707-4.312-6.523ZM33.124 18.398a7.244 7.244 0 0 0 1.646-5.176 7.313 7.313 0 0 0-4.738 2.461 6.955 6.955 0 0 0-1.689 4.985 6.117 6.117 0 0 0 4.781-2.27ZM110.238 27.82v3.02h-1.886v1.981h1.886v6.731c0 2.299 1.036 3.218 3.641 3.218.458 0 .894-.055 1.276-.12v-1.96c-.327.033-.534.055-.894.055-1.167 0-1.679-.547-1.679-1.795v-6.129h2.573v-1.98h-2.573V27.82h-2.344ZM121.792 42.934c3.467 0 5.593-2.331 5.593-6.194 0-3.842-2.137-6.184-5.593-6.184-3.466 0-5.603 2.342-5.603 6.183 0 3.864 2.126 6.195 5.603 6.195Zm0-2.09c-2.038 0-3.183-1.5-3.183-4.105 0-2.582 1.145-4.093 3.183-4.093 2.028 0 3.184 1.51 3.184 4.093 0 2.594-1.156 4.105-3.184 4.105ZM129.204 42.704h2.344v-7.037c0-1.675 1.253-2.802 3.03-2.802.415 0 1.112.077 1.309.142v-2.32c-.251-.065-.698-.098-1.047-.098-1.548 0-2.867.853-3.205 2.025h-.175v-1.828h-2.256v11.918ZM141.706 32.559c1.734 0 2.868 1.215 2.922 3.086h-5.996c.131-1.86 1.341-3.086 3.074-3.086Zm2.911 6.928c-.436.93-1.406 1.444-2.823 1.444-1.875 0-3.086-1.324-3.162-3.414v-.132h8.384v-.82c0-3.744-1.995-6.009-5.299-6.009-3.346 0-5.472 2.419-5.472 6.227 0 3.809 2.082 6.151 5.483 6.151 2.715 0 4.612-1.313 5.146-3.447h-2.257ZM94.867 38.303c.181 2.927 2.61 4.798 6.226 4.798 3.865 0 6.283-1.962 6.283-5.093 0-2.462-1.379-3.823-4.723-4.605l-1.797-.443c-2.124-.499-2.983-1.168-2.983-2.337 0-1.474 1.333-2.439 3.333-2.439 1.898 0 3.209.942 3.447 2.45h2.463c-.147-2.756-2.565-4.695-5.876-4.695-3.56 0-5.932 1.94-5.932 4.855 0 2.404 1.344 3.834 4.294 4.526l2.101.51c2.159.51 3.108 1.26 3.108 2.507 0 1.452-1.492 2.507-3.526 2.507-2.18 0-3.695-.987-3.91-2.541h-2.508ZM70.587 30.589c-1.614 0-3.01.81-3.729 2.167h-.174v-1.97h-2.257v15.88h2.344v-5.768h.186c.62 1.259 1.962 2.003 3.652 2.003 2.998 0 4.906-2.375 4.906-6.162 0-3.786-1.908-6.15-4.928-6.15Zm-.665 10.2c-1.962 0-3.194-1.554-3.194-4.038 0-2.496 1.232-4.05 3.205-4.05 1.984 0 3.172 1.521 3.172 4.038 0 2.529-1.188 4.05-3.183 4.05ZM83.716 30.589c-1.613 0-3.009.81-3.728 2.167h-.175v-1.97h-2.256v15.88H79.9v-5.768h.186c.621 1.259 1.962 2.003 3.652 2.003 2.998 0 4.906-2.375 4.906-6.162 0-3.786-1.908-6.15-4.928-6.15Zm-.665 10.2c-1.962 0-3.194-1.554-3.194-4.038 0-2.496 1.232-4.05 3.205-4.05 1.984 0 3.172 1.521 3.172 4.038 0 2.529-1.188 4.05-3.183 4.05ZM60.222 42.704h2.69l-5.888-16.369h-2.723l-5.887 16.37h2.599l1.503-4.345h6.214l1.492 4.344Zm-4.69-13.396h.193l2.361 6.92H53.16l2.373-6.92ZM48.349 14.79v6.47h2.327c1.92 0 3.032-1.188 3.032-3.255 0-2.036-1.12-3.215-3.032-3.215h-2.327Zm1 .915h1.215c1.335 0 2.126.852 2.126 2.313 0 1.485-.777 2.328-2.126 2.328h-1.215v-4.641ZM57.114 21.354c1.42 0 2.292-.955 2.292-2.537 0-1.574-.876-2.534-2.292-2.534-1.42 0-2.295.96-2.295 2.534 0 1.582.87 2.537 2.295 2.537Zm0-.856c-.835 0-1.304-.614-1.304-1.681 0-1.059.47-1.677 1.304-1.677.831 0 1.305.618 1.305 1.677 0 1.062-.474 1.68-1.305 1.68ZM66.823 16.377h-.96l-.867 3.726h-.076l-1-3.726H63l-1.001 3.726h-.072l-.87-3.726h-.974l1.34 4.883h.987l1-3.596h.076l1.005 3.596h.996l1.336-4.883ZM67.928 21.26h.96v-2.856c0-.762.452-1.238 1.162-1.238s1.05.39 1.05 1.175v2.92h.96v-3.162c0-1.161-.599-1.816-1.684-1.816-.733 0-1.215.327-1.452.87h-.071v-.776h-.925v4.883ZM73.572 21.26h.96v-6.788h-.96v6.788ZM78.144 21.354c1.42 0 2.291-.955 2.291-2.537 0-1.574-.875-2.534-2.291-2.534-1.42 0-2.296.96-2.296 2.534 0 1.582.871 2.537 2.296 2.537Zm0-.856c-.835 0-1.304-.614-1.304-1.681 0-1.059.469-1.677 1.304-1.677.83 0 1.304.618 1.304 1.677 0 1.062-.473 1.68-1.304 1.68ZM83.296 20.53c-.522 0-.902-.256-.902-.696 0-.43.304-.659.974-.704l1.188-.076v.408c0 .605-.536 1.067-1.26 1.067Zm-.245.81c.638 0 1.17-.277 1.46-.766h.076v.686h.924v-3.336c0-1.031-.687-1.64-1.907-1.64-1.103 0-1.889.537-1.987 1.376h.929c.107-.346.478-.543 1.014-.543.656 0 .996.292.996.807v.422l-1.318.076c-1.157.072-1.809.578-1.809 1.457 0 .892.684 1.462 1.622 1.462ZM88.77 21.34c.67 0 1.237-.317 1.528-.851h.076v.771h.92v-6.788h-.96v2.681h-.072c-.263-.538-.826-.856-1.492-.856-1.228 0-2.019.977-2.019 2.52 0 1.546.782 2.524 2.02 2.524Zm.273-4.178c.804 0 1.308.641 1.308 1.659 0 1.022-.5 1.654-1.308 1.654-.813 0-1.3-.623-1.3-1.659 0-1.026.491-1.654 1.3-1.654ZM97.52 21.354c1.421 0 2.292-.955 2.292-2.537 0-1.574-.875-2.534-2.291-2.534-1.42 0-2.296.96-2.296 2.534 0 1.582.871 2.537 2.296 2.537Zm0-.856c-.834 0-1.303-.614-1.303-1.681 0-1.059.469-1.677 1.304-1.677.83 0 1.304.618 1.304 1.677 0 1.062-.474 1.68-1.304 1.68ZM101.083 21.26h.96v-2.856c0-.762.451-1.238 1.162-1.238.71 0 1.049.39 1.049 1.175v2.92h.961v-3.162c0-1.161-.599-1.816-1.684-1.816-.733 0-1.215.327-1.452.87h-.071v-.776h-.925v4.883ZM109.637 15.162V16.4h-.773v.811h.773v2.758c0 .941.424 1.318 1.492 1.318.187 0 .366-.022.522-.05v-.802c-.134.014-.218.023-.366.023-.478 0-.688-.225-.688-.736v-2.51h1.054V16.4h-1.054v-1.238h-.96ZM112.94 21.26h.961v-2.852c0-.74.437-1.237 1.224-1.237.678 0 1.04.395 1.04 1.175v2.914h.96v-3.152c0-1.161-.638-1.82-1.674-1.82-.733 0-1.247.327-1.483.874h-.076v-2.69h-.952v6.788ZM120.59 17.104c.71 0 1.174.497 1.197 1.264h-2.457c.054-.762.549-1.264 1.26-1.264Zm1.192 2.838c-.179.381-.576.592-1.157.592-.768 0-1.264-.543-1.295-1.4v-.053h3.435v-.336c0-1.534-.818-2.462-2.171-2.462-1.371 0-2.242.991-2.242 2.551s.853 2.52 2.246 2.52c1.113 0 1.89-.538 2.109-1.412h-.925Z"/>
</svg>
