<svg width="620" height="636" viewBox="0 6 620 622" fill="none" xmlns="http://www.w3.org/2000/svg">
  <g opacity="0.2">
    <path
      d="M0.999981 294.254L0.999987 224.836L0.999994 150.224L1 40.9991C1.00001 18.9077 18.9086 0.999124 41 0.999126L579 0.999173C601.091 0.999175 619 18.9078 619 40.9992L619 150.224L619 224.836L619 294.254"
      stroke="#E5E1E8" stroke-width="2" stroke-linecap="round" stroke-linejoin="round" />
    <path
      d="M0.999981 327.713L0.999987 397.124L0.999994 471.738L1 580.968C1.00001 603.059 18.9086 620.968 41 620.968L579 620.968C601.091 620.968 619 603.059 619 580.968L619 471.738L619 397.124L619 327.713"
      stroke="#E5E1E8" stroke-width="2" stroke-linecap="round" stroke-linejoin="round" />
    <path
      d="M299.63 409.391H261.78H236.577C223.322 409.391 212.577 398.646 212.577 385.391V236.576C212.577 223.321 223.322 212.576 236.577 212.576H385.392C398.647 212.576 409.392 223.321 409.392 236.576V385.391C409.392 398.646 398.647 409.391 385.392 409.391H360.188H326.124"
      stroke="#E5E1E8" stroke-width="2" stroke-linecap="round" stroke-linejoin="round" />
    <path
      d="M306.269 352H290.5H278C273.582 352 270 348.418 270 344V278C270 273.582 273.582 270 278 270H344C348.418 270 352 273.582 352 278V344C352 348.418 348.418 352 344 352H331.5H317.308"
      stroke="#E5E1E8" stroke-width="2" stroke-linecap="round" stroke-linejoin="round" />
    <path
      d="M318.846 243L345 243L363 243C371.837 243 379 250.163 379 259L379 363C379 371.837 371.837 379 363 379L259 379C250.163 379 243 371.837 243 363L243 259C243 250.163 250.163 243 259 243L277 243L300.538 243"
      stroke="#E5E1E8" stroke-width="2" stroke-linecap="round" stroke-linejoin="round" />
    <path
      d="M407.898 182.07H214.07C196.397 182.07 182.07 196.397 182.07 214.07V407.898C182.07 425.571 196.397 439.898 214.07 439.898H407.898C425.571 439.898 439.898 425.571 439.898 407.898V214.07C439.898 196.397 425.571 182.07 407.898 182.07Z"
      stroke="#E5E1E8" stroke-width="2" stroke-linecap="round" stroke-linejoin="round" />
    <path
      d="M421.42 152.547H200.548C174.038 152.547 152.548 174.037 152.548 200.547V421.42C152.548 447.929 174.038 469.42 200.548 469.42H421.42C447.93 469.42 469.42 447.929 469.42 421.42V200.547C469.42 174.037 447.93 152.547 421.42 152.547Z"
      stroke="#E5E1E8" stroke-width="2" stroke-linecap="round" stroke-linejoin="round" />
    <path
      d="M435.927 122.041H186.042C150.695 122.041 122.042 150.695 122.042 186.041V435.926C122.042 471.273 150.695 499.926 186.041 499.926H435.927C471.273 499.926 499.927 471.273 499.927 435.926V186.041C499.927 150.695 471.273 122.041 435.927 122.041Z"
      stroke="#E5E1E8" stroke-width="2" stroke-linecap="round" stroke-linejoin="round" />
    <path
      d="M91.5352 293.012V163.535C91.5352 123.771 123.771 91.5352 163.535 91.5352H458.433C498.198 91.5352 530.433 123.771 530.433 163.535V293.012M91.5352 324.227V458.433C91.5352 498.198 123.771 530.433 163.535 530.433H458.433C498.198 530.433 530.433 498.198 530.433 458.433V324.227"
      stroke="#E5E1E8" stroke-width="2" stroke-linecap="round" stroke-linejoin="round" />
    <path
      d="M536.939 61.0293H85.0286C71.7737 61.0293 61.0286 71.7745 61.0286 85.0293V536.94C61.0286 550.195 71.7737 560.94 85.0286 560.94H536.939C550.194 560.94 560.939 550.195 560.939 536.94V85.0293C560.939 71.7745 550.194 61.0293 536.939 61.0293Z"
      stroke="#E5E1E8" stroke-width="2" stroke-linecap="round" stroke-linejoin="round" />
    <path
      d="M293.517 590.461H276.05H241.115H171.245H55.5066C42.2518 590.461 31.5066 579.716 31.5066 566.461V55.5059C31.5066 42.251 42.2518 31.5059 55.5066 31.5059H566.462C579.717 31.5059 590.462 42.251 590.462 55.5059V566.461C590.462 579.716 579.717 590.461 566.462 590.461H450.723H380.854H345.919H328.452"
      stroke="#E5E1E8" stroke-width="2" stroke-linecap="round" stroke-linejoin="round" />
  </g>
</svg>