<svg xmlns="http://www.w3.org/2000/svg" width="239" height="40" fill="none" viewBox="0 0 239 40"><path fill="#fff" d="M40.654.572a20.876 20.876 0 0 0-13.193 4.657l12.36 12.287a3.418 3.418 0 0 1 0 4.834L27.183 34.94a20.797 20.797 0 0 0 13.522 5.035 19.835 19.835 0 0 0 7.865-1.201 19.777 19.777 0 0 0 6.752-4.193 19.688 19.688 0 0 0 4.545-6.506 19.624 19.624 0 0 0 0-15.528 19.689 19.689 0 0 0-4.545-6.506 19.778 19.778 0 0 0-6.752-4.193 19.835 19.835 0 0 0-7.865-1.2l-.05-.076ZM20.064 20.4a18.793 18.793 0 0 1 1.932-8.315 19.244 19.244 0 0 1 5.433-6.673l-4.5-4.421A3.52 3.52 0 0 0 20.473 0a3.52 3.52 0 0 0-2.455.99L1.014 17.603A3.358 3.358 0 0 0 0 20c0 .899.365 1.761 1.014 2.398L18.02 39.009a3.52 3.52 0 0 0 2.455.991 3.52 3.52 0 0 0 2.454-.99l4.168-4.072a19.246 19.246 0 0 1-5.15-6.515 18.816 18.816 0 0 1-1.882-8.023Z"/><g fill="#fff" clip-path="url(#a)"><path d="M74.845 24.816a5.633 5.633 0 0 1-2.116-2.138 6.29 6.29 0 0 1 0-6.067 5.721 5.721 0 0 1 2.116-2.148 6.068 6.068 0 0 1 5.53-.222 5.274 5.274 0 0 1 1.923 1.557c.517.632.85 1.396.962 2.206h-2.635a2.196 2.196 0 0 0-.962-1.306 3.188 3.188 0 0 0-1.799-.522 3.15 3.15 0 0 0-1.683.464c-.505.3-.92.73-1.202 1.248a3.52 3.52 0 0 0-.442 1.761c-.009.61.144 1.211.442 1.742.284.513.7.94 1.202 1.238.51.304 1.092.46 1.683.455a3.16 3.16 0 0 0 1.818-.532c.479-.326.822-.819.962-1.384h2.654a4.57 4.57 0 0 1-.962 2.284 5.235 5.235 0 0 1-1.98 1.577 6.161 6.161 0 0 1-5.56-.213h.049Z"/><path d="M77.835 25.735a5.965 5.965 0 0 1-3.058-.793 5.73 5.73 0 0 1-2.173-2.197 6.416 6.416 0 0 1 0-6.202 5.915 5.915 0 0 1 2.173-2.215 5.963 5.963 0 0 1 3.058-.794 6.095 6.095 0 0 1 2.597.571 5.49 5.49 0 0 1 2.02 1.597c.523.657.856 1.447.961 2.283v.165h-2.885v-.107a2.117 2.117 0 0 0-.962-1.229 3.13 3.13 0 0 0-1.711-.483 3.034 3.034 0 0 0-1.606.435c-.48.29-.878.7-1.154 1.19a3.48 3.48 0 0 0-.423 1.693c-.007.583.14 1.156.423 1.664a3.121 3.121 0 0 0 2.76 1.626c.615.01 1.219-.17 1.731-.513a2.086 2.086 0 0 0 .962-1.296v-.107h2.933v.165a4.631 4.631 0 0 1-.962 2.35 5.419 5.419 0 0 1-2.03 1.626 6.24 6.24 0 0 1-2.654.571Zm0-11.91a5.628 5.628 0 0 0-2.884.764 5.615 5.615 0 0 0-2.097 2.119 6.125 6.125 0 0 0 0 5.912 5.585 5.585 0 0 0 2.068 2.09c.879.5 1.874.761 2.885.754a5.81 5.81 0 0 0 2.51-.551 5.102 5.102 0 0 0 1.923-1.539 4.283 4.283 0 0 0 .866-2.041h-2.347a2.427 2.427 0 0 1-1.029 1.354c-.567.384-1.24.58-1.923.561a3.36 3.36 0 0 1-1.76-.474 3.502 3.502 0 0 1-1.25-1.296 3.616 3.616 0 0 1-.462-1.81c-.008-.64.151-1.27.462-1.828.294-.544.73-.997 1.26-1.312a3.398 3.398 0 0 1 1.75-.478 3.4 3.4 0 0 1 1.875.542c.483.293.847.749 1.029 1.287h2.375a4.325 4.325 0 0 0-.894-1.936 5.314 5.314 0 0 0-1.923-1.519 5.744 5.744 0 0 0-2.434-.619v.02ZM87.424 24.806a5.787 5.787 0 0 1-2.126-2.138 5.982 5.982 0 0 1-.779-3.058 6.06 6.06 0 0 1 .78-3.038 5.786 5.786 0 0 1 2.125-2.148 6.105 6.105 0 0 1 5.981 0 5.789 5.789 0 0 1 2.136 2.148c.532.923.807 1.972.798 3.038a5.887 5.887 0 0 1-1.716 4.222 5.84 5.84 0 0 1-4.199 1.72 5.885 5.885 0 0 1-3-.746Zm.067-3.415c.288.516.71.944 1.222 1.238.52.301 1.11.458 1.711.455a3.292 3.292 0 0 0 1.702-.455c.522-.307.952-.749 1.246-1.28a3.42 3.42 0 0 0 .428-1.739 3.53 3.53 0 0 0-.452-1.76 3.367 3.367 0 0 0-1.222-1.249 3.217 3.217 0 0 0-1.702-.464 3.292 3.292 0 0 0-1.712.464 3.231 3.231 0 0 0-1.221 1.249 3.624 3.624 0 0 0-.442 1.76 3.551 3.551 0 0 0 .442 1.78Z"/><path d="M90.424 25.735a6.032 6.032 0 0 1-3.068-.803 5.913 5.913 0 0 1-2.192-2.196 6.12 6.12 0 0 1-.79-3.087 6.184 6.184 0 0 1 .79-3.106 6.098 6.098 0 0 1 2.223-2.228 6.05 6.05 0 0 1 6.064 0 6.094 6.094 0 0 1 2.224 2.228c.537.946.815 2.017.808 3.106a6.074 6.074 0 0 1-.796 3.05 5.984 5.984 0 0 1-5.263 3.035Zm0-11.91a5.685 5.685 0 0 0-2.885.764 5.498 5.498 0 0 0-2.116 2.119 6.108 6.108 0 0 0 0 5.902A5.54 5.54 0 0 0 87.5 24.7a5.745 5.745 0 0 0 2.885.764 5.745 5.745 0 0 0 2.886-.764 5.786 5.786 0 0 0 2.112-2.127 5.829 5.829 0 0 0 .773-2.904 5.745 5.745 0 0 0-.78-2.961 5.599 5.599 0 0 0-2.009-2.12 5.62 5.62 0 0 0-2.943-.783v.02Zm0 9.404a3.457 3.457 0 0 1-1.78-.474 3.434 3.434 0 0 1-1.278-1.296 3.617 3.617 0 0 1-.462-1.81c-.007-.64.152-1.27.462-1.829.3-.544.742-.996 1.279-1.306a3.514 3.514 0 0 1 3.558 0c.528.315.965.762 1.27 1.297.316.56.478 1.194.47 1.838a3.53 3.53 0 0 1-.47 1.81 3.64 3.64 0 0 1-1.27 1.296 3.427 3.427 0 0 1-1.779.474Zm0-6.898a3.188 3.188 0 0 0-1.635.435c-.498.28-.91.691-1.192 1.19-.29.516-.44 1.1-.433 1.693a3.258 3.258 0 0 0 .433 1.664c.278.505.69.92 1.192 1.2.497.29 1.061.44 1.635.435a3.148 3.148 0 0 0 1.625-.435c.501-.295.914-.72 1.197-1.23.282-.511.424-1.088.41-1.673a3.323 3.323 0 0 0-.433-1.683 3.185 3.185 0 0 0-1.174-1.2 3.101 3.101 0 0 0-1.625-.396ZM108.754 25.358h-2.644v-6.512a2.916 2.916 0 0 0-.674-2.012 2.293 2.293 0 0 0-1.769-.745 2.87 2.87 0 0 0-1.501.431c-.451.28-.817.68-1.057 1.155v7.74h-2.607V13.913h2.607v1.47a4.242 4.242 0 0 1 1.385-1.2 4.007 4.007 0 0 1 2.057-.503 3.589 3.589 0 0 1 1.975.423 3.615 3.615 0 0 1 1.439 1.425 5.474 5.474 0 0 1 1.626-1.325 4.352 4.352 0 0 1 2.106-.523 4.873 4.873 0 0 1 2.414.58c.69.38 1.26.946 1.644 1.636.408.753.613 1.6.596 2.458v7.005h-2.635v-6.512a2.91 2.91 0 0 0-.663-2.022 2.328 2.328 0 0 0-1.827-.736c-.52.007-1.027.161-1.462.446-.465.276-.849.67-1.116 1.141l.068.397.038 7.286Z"/><path d="M116.496 25.503h-2.933v-6.657a2.808 2.808 0 0 0-.626-1.935 2.213 2.213 0 0 0-1.721-.687c-.492.01-.972.157-1.385.426a3.018 3.018 0 0 0-1.029 1.025l.058.34v7.478h-2.885v-6.656a2.79 2.79 0 0 0-.635-1.936 2.158 2.158 0 0 0-1.664-.696 2.7 2.7 0 0 0-1.452.406 2.805 2.805 0 0 0-.962 1.026v7.837h-2.885V13.805h2.885v1.21c.336-.381.729-.708 1.164-.968a4.308 4.308 0 0 1 2.135-.513 3.772 3.772 0 0 1 1.958.398c.605.306 1.118.77 1.485 1.344a5.516 5.516 0 0 1 1.519-1.2 4.432 4.432 0 0 1 2.183-.542 4.998 4.998 0 0 1 2.491.6 4.396 4.396 0 0 1 1.693 1.693c.418.775.63 1.645.615 2.526l-.009 7.15Zm-2.635-.29h2.336v-6.86a4.856 4.856 0 0 0-.567-2.38 4.108 4.108 0 0 0-1.587-1.587 4.782 4.782 0 0 0-2.346-.561 4.164 4.164 0 0 0-2.039.503 5.304 5.304 0 0 0-1.577 1.287l-.135.164-.105-.184a3.478 3.478 0 0 0-1.384-1.38 3.447 3.447 0 0 0-1.906-.41 3.968 3.968 0 0 0-1.99.484 4.28 4.28 0 0 0-1.337 1.161l-.26.368v-1.78h-2.317v11.155h2.317V17.55a3.036 3.036 0 0 1 2.693-1.626 2.401 2.401 0 0 1 1.923.794c.493.588.747 1.34.712 2.109v6.366h2.318v-7.16l-.077-.425c.284-.497.692-.91 1.183-1.2.459-.298.992-.46 1.538-.465a2.448 2.448 0 0 1 1.924.784c.494.59.746 1.349.702 2.12l-.019 6.366ZM129.286 25.358h-2.606v-6.512a2.915 2.915 0 0 0-.673-2.012 2.313 2.313 0 0 0-1.77-.745 2.873 2.873 0 0 0-2.567 1.586v7.74h-2.607V13.913h2.607v1.47c.374-.492.845-.9 1.385-1.2a4.045 4.045 0 0 1 2.067-.503 3.589 3.589 0 0 1 1.975.423 3.615 3.615 0 0 1 1.439 1.425 5.318 5.318 0 0 1 1.616-1.325 4.352 4.352 0 0 1 2.106-.523 4.906 4.906 0 0 1 2.423.58 4.248 4.248 0 0 1 1.645 1.636c.404.754.606 1.601.587 2.458v7.005h-2.626v-6.512a2.915 2.915 0 0 0-.663-2.022 2.328 2.328 0 0 0-1.828-.736 2.749 2.749 0 0 0-1.471.446 3.19 3.19 0 0 0-1.116 1.141l.077.397v7.286Z"/><path d="M137.057 25.503h-2.885v-6.657a2.809 2.809 0 0 0-.626-1.935 2.221 2.221 0 0 0-1.721-.687c-.495.01-.978.157-1.394.426a3.11 3.11 0 0 0-1.068 1.025l.058.339v7.48h-2.885v-6.657a2.79 2.79 0 0 0-.635-1.936 2.115 2.115 0 0 0-1.654-.697 2.698 2.698 0 0 0-1.452.407 2.645 2.645 0 0 0-.962 1.026v7.837h-2.885V13.805h2.885v1.21c.334-.383.727-.71 1.164-.968a4.276 4.276 0 0 1 2.135-.513 3.762 3.762 0 0 1 1.953.399c.604.306 1.115.77 1.48 1.343a5.533 5.533 0 0 1 1.529-1.2 4.42 4.42 0 0 1 2.173-.542 4.946 4.946 0 0 1 2.491.6c.714.393 1.304.98 1.703 1.693.414.776.623 1.645.605 2.526l-.009 7.15Zm-2.626-.29h2.337v-6.86a4.76 4.76 0 0 0-.577-2.38 4.025 4.025 0 0 0-1.577-1.587 4.786 4.786 0 0 0-2.356-.561 4.152 4.152 0 0 0-2.029.503 5.452 5.452 0 0 0-1.578 1.287l-.134.164-.106-.184a3.473 3.473 0 0 0-1.392-1.385 3.444 3.444 0 0 0-1.916-.405 3.945 3.945 0 0 0-1.991.484c-.525.284-.981.68-1.337 1.161l-.269.368v-1.78h-2.308v11.155h2.308V17.55c.246-.485.622-.891 1.087-1.171a2.986 2.986 0 0 1 1.606-.455 2.408 2.408 0 0 1 1.923.794c.493.588.747 1.34.712 2.109v6.366h2.308v-7.16l-.067-.425c.286-.484.69-.887 1.173-1.171.459-.298.992-.46 1.539-.465a2.472 2.472 0 0 1 1.923.784 3.07 3.07 0 0 1 .702 2.12l.019 6.337ZM141.961 24.806a5.79 5.79 0 0 1-2.125-2.138 5.974 5.974 0 0 1-.779-3.019 6.058 6.058 0 0 1 .779-3.038 5.789 5.789 0 0 1 2.125-2.148 6.11 6.11 0 0 1 5.982 0 5.786 5.786 0 0 1 2.164 2.148 5.97 5.97 0 0 1 .798 3.038 5.903 5.903 0 0 1-1.715 4.222 5.82 5.82 0 0 1-4.199 1.72 5.89 5.89 0 0 1-3.03-.785Zm.068-3.415c.288.516.71.944 1.221 1.238a3.38 3.38 0 0 0 1.712.455 3.291 3.291 0 0 0 1.702-.455 3.4 3.4 0 0 0 1.673-2.98 3.522 3.522 0 0 0-.452-1.76 3.36 3.36 0 0 0-1.221-1.249 3.217 3.217 0 0 0-1.702-.464 3.293 3.293 0 0 0-1.712.464 3.23 3.23 0 0 0-1.221 1.248 3.62 3.62 0 0 0-.443 1.761c-.004.61.148 1.21.443 1.742Z"/><path d="M144.962 25.735a6.033 6.033 0 0 1-3.068-.803 5.784 5.784 0 0 1-2.183-2.196 6.13 6.13 0 0 1-.798-3.087 6.193 6.193 0 0 1 .798-3.106 5.88 5.88 0 0 1 2.183-2.215 6.054 6.054 0 0 1 4.615-.625 6.094 6.094 0 0 1 3.704 2.84c.547.93.842 1.987.856 3.067a6.022 6.022 0 0 1-.818 3.087 5.847 5.847 0 0 1-2.192 2.196 5.986 5.986 0 0 1-3.097.842Zm0-11.91a5.685 5.685 0 0 0-2.885.764 5.505 5.505 0 0 0-2.078 2.1 6.11 6.11 0 0 0 0 5.901 5.603 5.603 0 0 0 2.078 2.09 5.74 5.74 0 0 0 2.885.765 5.672 5.672 0 0 0 2.878-.75 5.721 5.721 0 0 0 2.113-2.105 5.981 5.981 0 0 0 0-5.901 5.586 5.586 0 0 0-2.087-2.1 5.618 5.618 0 0 0-2.904-.784v.02Zm0 9.404a3.454 3.454 0 0 1-1.779-.474 3.427 3.427 0 0 1-1.279-1.296 3.613 3.613 0 0 1-.452-1.849c-.008-.64.152-1.27.461-1.828.3-.545.742-.997 1.279-1.306a3.514 3.514 0 0 1 3.558 0 3.56 3.56 0 0 1 1.27 1.296 3.65 3.65 0 0 1 .471 1.838 3.52 3.52 0 0 1-.471 1.81c-.307.533-.744.979-1.27 1.296a3.421 3.421 0 0 1-1.788.513Zm0-6.898a3.186 3.186 0 0 0-1.635.435c-.487.284-.89.695-1.164 1.19-.29.516-.439 1.1-.433 1.693a3.266 3.266 0 0 0 .433 1.664c.283.508.703.924 1.212 1.2.497.29 1.061.44 1.635.435a3.119 3.119 0 0 0 1.625-.435 3.266 3.266 0 0 0 1.606-2.903 3.327 3.327 0 0 0-.432-1.683 3.263 3.263 0 0 0-1.174-1.2 3.097 3.097 0 0 0-1.673-.396ZM155.646 15.43a3.696 3.696 0 0 1 1.452-1.286 4.707 4.707 0 0 1 5.386.967 5.403 5.403 0 0 1 1.26 3.755v6.53h-2.587v-6.114a3.088 3.088 0 0 0-.731-2.177 2.576 2.576 0 0 0-1.924-.794 3.183 3.183 0 0 0-1.663.397c-.493.272-.91.665-1.212 1.142v7.517h-2.606V13.912h2.606l.019 1.519Z"/><path d="M163.888 25.503h-2.885v-6.26a2.918 2.918 0 0 0-.692-2.07 2.42 2.42 0 0 0-1.857-.755 3.05 3.05 0 0 0-1.538.406 3.32 3.32 0 0 0-1.135 1.064v7.615h-2.885V13.805h2.885v1.22c.346-.402.768-.731 1.24-.968a4.89 4.89 0 0 1 5.559.967 5.55 5.55 0 0 1 1.298 3.87l.01 6.609Zm-2.587-.29h2.27v-6.386a5.265 5.265 0 0 0-1.222-3.658 4.242 4.242 0 0 0-3.289-1.345 4.294 4.294 0 0 0-1.923.446 3.645 3.645 0 0 0-1.404 1.238l-.26.416v-1.867h-2.289v11.155h2.318v-7.41c.32-.495.752-.906 1.26-1.2a3.39 3.39 0 0 1 1.683-.436 2.676 2.676 0 0 1 2.068.842c.535.631.81 1.445.769 2.273l.019 5.931ZM169.572 25.19h2.677l2.634-8.361h.128l2.614 8.36h2.698l3.319-11.269h-2.398l-2.292 8.597h-.15l-2.655-8.597h-2.378l-2.677 8.597h-.15l-2.291-8.597h-2.377l3.298 11.27ZM190.576 25.47c2.762 0 4.754-1.509 5.332-3.685h-2.184c-.45 1.099-1.67 1.788-3.084 1.788-2.056 0-3.362-1.336-3.448-3.296h8.823v-.84c0-3.211-1.991-5.797-5.482-5.797-3.191 0-5.59 2.37-5.59 5.947 0 3.383 2.27 5.882 5.633 5.882Zm-3.341-6.939c.171-1.767 1.585-2.995 3.298-2.995 1.735 0 3.105 1.1 3.255 2.995h-6.553ZM203.606 25.47a4.303 4.303 0 0 0 3.62-1.875h.128v1.594h2.206V13.92h-2.249v1.638h-.15c-.364-.582-1.52-1.918-3.662-1.918-3.127 0-5.333 2.456-5.333 5.947 0 3.49 2.228 5.882 5.44 5.882Zm.321-2.047c-2.056 0-3.469-1.509-3.469-3.857 0-2.263 1.413-3.857 3.448-3.857 1.97 0 3.469 1.422 3.469 3.857 0 2.133-1.306 3.857-3.448 3.857ZM215.674 25.19h.921v-2.005h-.471c-.557 0-.857-.323-.857-.926V9.029h-2.249v13.36c0 1.766.964 2.8 2.656 2.8ZM223.777 25.19h1.863V23.27h-1.52c-1.178 0-1.628-.646-1.628-1.723v-5.775h3.256V13.92h-3.256v-3.189h-2.12v2.478c0 .453-.278.733-.664.733h-1.478v1.831h2.014v5.84c0 2.348 1.327 3.576 3.533 3.576ZM228.63 25.19h2.249v-6.68c0-1.595 1.243-2.758 2.763-2.758 1.413 0 2.549 1.056 2.549 2.628v6.81h2.248v-7.24c0-2.435-1.585-4.31-4.133-4.31-1.67 0-2.827.862-3.298 1.788h-.15V9.03h-2.228v16.16Z"/><path fill-rule="evenodd" d="m169.413 25.403-3.423-11.696h2.824l2.213 8.305 2.587-8.305h2.689l2.565 8.303 2.213-8.303h2.846l-3.446 11.696h-3.012l-2.522-8.07-2.543 8.07h-2.991Zm5.47-8.574h.129l2.613 8.36h2.698l3.32-11.269h-2.399l-2.292 8.597h-.15l-2.655-8.597h-2.377l-2.678 8.597h-.149l-2.292-8.597h-2.377l3.298 11.27h2.677l2.634-8.361Zm21.302 4.742-.072.269c-.606 2.283-2.694 3.843-5.537 3.843-1.736 0-3.201-.647-4.232-1.74-1.029-1.091-1.613-2.616-1.613-4.356 0-1.837.617-3.38 1.658-4.463 1.041-1.084 2.495-1.697 4.144-1.697 1.801 0 3.231.668 4.208 1.764.975 1.094 1.487 2.596 1.487 4.245v1.054h-8.809c.08.834.4 1.524.906 2.017.549.535 1.334.853 2.315.853 1.353 0 2.479-.659 2.888-1.657l.054-.132h2.603Zm-8.979-1.081c.169 1.844 1.453 3.083 3.434 3.083 1.413 0 2.634-.69 3.084-1.788h2.184a3.869 3.869 0 0 1-.062.213c-.648 2.06-2.599 3.471-5.27 3.471-3.363 0-5.633-2.5-5.633-5.882 0-3.577 2.399-5.947 5.59-5.947 3.491 0 5.482 2.586 5.482 5.796v.84h-8.823c.003.072.008.144.014.214Zm.028-1.959h6.554a3.644 3.644 0 0 0-.022-.213c-.233-1.765-1.565-2.782-3.233-2.782-1.643 0-3.011 1.13-3.271 2.782-.011.07-.02.141-.028.213Zm.243-.213h6.075c-.11-.787-.451-1.405-.937-1.835-.535-.473-1.26-.733-2.082-.733-1.531 0-2.8 1.04-3.056 2.568Zm19.834-4.398h2.249v11.27h-2.206v-1.595h-.129a4.294 4.294 0 0 1-3.619 1.875c-3.212 0-5.44-2.392-5.44-5.883 0-3.49 2.206-5.947 5.333-5.947 2.032 0 3.177 1.202 3.6 1.822l.062.096h.15V13.92Zm-.212 1.186v-1.4h2.673v11.697h-2.63v-1.348c-.515.615-1.63 1.628-3.536 1.628-1.661 0-3.078-.62-4.08-1.7-1-1.08-1.572-2.605-1.572-4.396 0-1.79.566-3.33 1.548-4.426.984-1.096 2.375-1.734 3.997-1.734 1.891 0 3.051.997 3.6 1.68Zm-5.521 7.124c.567.623 1.375.979 2.349.979 1.01 0 1.813-.404 2.366-1.054.557-.653.87-1.566.87-2.59 0-1.172-.36-2.08-.938-2.694-.577-.613-1.386-.95-2.319-.95-.959 0-1.763.375-2.329 1.01-.568.637-.907 1.548-.907 2.634 0 1.132.34 2.041.908 2.665Zm15.229 3.173h-1.133c-.89 0-1.615-.273-2.116-.805-.5-.53-.752-1.289-.752-2.21V8.815h2.673V22.26c0 .268.067.44.163.544.093.1.244.169.482.169h.683v2.43Zm-.212-.214h-.921c-1.692 0-2.656-1.034-2.656-2.801V9.028h2.249v13.23c0 .604.3.927.857.927h.471v2.004Zm9.258.214h-2.076c-1.141 0-2.084-.319-2.742-.97-.66-.65-1.004-1.606-1.004-2.82v-5.626h-2.013v-2.259h1.69c.14 0 .248-.05.322-.129a.556.556 0 0 0 .13-.39v-2.691h2.545v3.189h3.255v2.28h-3.255v5.56c0 .515.108.885.318 1.125.207.236.546.386 1.097.386h1.733v2.345Zm-.105-9.63h-3.256v5.775c0 1.077.45 1.723 1.628 1.723h1.52v1.918h-1.863c-2.206 0-3.534-1.228-3.534-3.577v-5.839h-2.013v-1.831h1.478c.386 0 .664-.28.664-.733v-2.478h2.12v3.19h3.256v1.852Zm2.67 9.63V8.815h2.652v6.11c.608-.828 1.731-1.498 3.236-1.498 1.329 0 2.42.49 3.178 1.31.756.817 1.168 1.949 1.168 3.212v7.454h-2.674V18.38c0-1.454-1.039-2.415-2.336-2.415-1.409 0-2.551 1.073-2.551 2.545v6.893h-2.673Zm2.652-10.09a2.047 2.047 0 0 0-.062.115h-.15v-6.4h-2.228V25.19h2.249v-6.68c0-1.594 1.243-2.757 2.763-2.757 1.413 0 2.549 1.055 2.549 2.628v6.81h2.248v-7.24c0-2.435-1.585-4.31-4.133-4.31-1.601 0-2.73.792-3.236 1.673Zm-30.612 4.252c0 2.349 1.413 3.857 3.469 3.857 2.142 0 3.448-1.724 3.448-3.857 0-2.434-1.499-3.857-3.469-3.857-2.035 0-3.448 1.595-3.448 3.857Z" clip-rule="evenodd"/></g><defs><clipPath id="a"><path fill="#fff" d="M44 8.571h194.857v18.857H44z"/></clipPath></defs></svg>