<svg xmlns="http://www.w3.org/2000/svg" width="24" height="24" viewBox="0 0 24 24" fill="none">
<path fill-rule="evenodd" clip-rule="evenodd" d="M6.01 2H13.17C13.7 2 14.21 2.21 14.58 2.59L19.41 7.42C19.79 7.79 20 8.3 20 8.83V20C20 21.1 19.1 22 18 22H6C4.9 22 4 21.1 4 20L4.01 4C4.01 2.89 4.91 2 6.01 2ZM13 3.5V8C13 8.55 13.45 9 14 9H18.5L13 3.5ZM16.4427 18H7.55731C7.10193 18 6.83537 17.4931 7.11304 17.1372L8.64577 15.1636C8.8679 14.8724 9.31217 14.8724 9.53431 15.1636L10.8893 16.9215L13.355 13.7184C13.5772 13.4272 14.0214 13.4272 14.2436 13.7184L16.887 17.1372C17.1646 17.4931 16.8981 18 16.4427 18Z" fill="#E53935"/>
</svg>