<svg xmlns="http://www.w3.org/2000/svg" width="14" height="18" viewBox="0 0 14 18" fill="none">
<path d="M7.97516 0.666016H2.0085C1.09183 0.666016 0.34183 1.40768 0.34183 2.33268L0.333496 15.666C0.333496 16.5827 1.0835 17.3327 2.00016 17.3327H12.0002C12.9168 17.3327 13.6668 16.5827 13.6668 15.666V6.35768C13.6668 5.91602 13.4918 5.49102 13.1752 5.18268L9.15016 1.15768C8.84183 0.841016 8.41683 0.666016 7.97516 0.666016ZM7.8335 5.66602V1.91602L12.4168 6.49935H8.66683C8.2085 6.49935 7.8335 6.12435 7.8335 5.66602ZM8.66683 10.666L9.72516 10.1077C10.0002 9.95768 10.3335 10.1577 10.3335 10.4743V12.5243C10.3335 12.841 10.0002 13.041 9.72516 12.891L8.66683 12.3327V13.166C8.66683 13.6243 8.29183 13.9993 7.8335 13.9993H4.50016C4.04183 13.9993 3.66683 13.6243 3.66683 13.166V9.83268C3.66683 9.37435 4.04183 8.99935 4.50016 8.99935H7.8335C8.29183 8.99935 8.66683 9.37435 8.66683 9.83268V10.666Z" fill="#E53935"/>
</svg>