<svg xmlns="http://www.w3.org/2000/svg" width="24" height="24" viewBox="0 0 24 24" fill="none">
<path d="M7 14.5H8V13.5H7V14.5Z" fill="#E53935"/>
<path d="M12 16.5H13V13.5H12V16.5Z" fill="#E53935"/>
<path fill-rule="evenodd" clip-rule="evenodd" d="M6.01 2H13.17C13.7 2 14.21 2.21 14.58 2.59L19.41 7.42C19.79 7.79 20 8.3 20 8.83V20C20 21.1 19.1 22 18 22H6C4.9 22 4 21.1 4 20L4.01 4C4.01 2.89 4.91 2 6.01 2ZM13 3.5V8C13 8.55 13.45 9 14 9H18.5L13 3.5ZM8 16C8.83 16 9.5 15.33 9.5 14.5V13.5C9.5 12.67 8.83 12 8 12H6.5C5.95 12 5.5 12.45 5.5 13V17.25C5.5 17.66 5.84 18 6.25 18C6.66 18 7 17.66 7 17.25V16H8ZM13 18C13.83 18 14.5 17.33 14.5 16.5V13.5C14.5 12.67 13.83 12 13 12H11C10.72 12 10.5 12.22 10.5 12.5V17.5C10.5 17.78 10.72 18 11 18H13ZM17.75 13.5C18.16 13.5 18.5 13.16 18.5 12.75C18.5 12.34 18.16 12 17.75 12H16.5C15.95 12 15.5 12.45 15.5 13V17.25C15.5 17.66 15.84 18 16.25 18C16.66 18 17 17.66 17 17.25V16H17.75C18.16 16 18.5 15.66 18.5 15.25C18.5 14.84 18.16 14.5 17.75 14.5H17V13.5H17.75Z" fill="#E53935"/>
</svg>