<svg width="24" height="24" viewBox="0 0 24 24" fill="none" xmlns="http://www.w3.org/2000/svg">
<path d="M3.5 10.5C3.5 6.08172 7.08172 2.5 11.5 2.5H12.5C16.9183 2.5 20.5 6.08172 20.5 10.5V13C20.5 13.5523 20.0523 14 19.5 14C18.9477 14 18.5 13.5523 18.5 13V10.5C18.5 7.18629 15.8137 4.5 12.5 4.5H11.5C8.18629 4.5 5.5 7.18629 5.5 10.5V21C5.5 21.5523 5.05228 22 4.5 22C3.94772 22 3.5 21.5523 3.5 21V10.5Z" fill="#1F1A23"/>
<path d="M9.5 11.0093C9.5 9.62346 10.6235 8.5 12.0093 8.5C13.3952 8.5 14.5186 9.62346 14.5186 11.0093V15C14.5186 15.5523 14.0709 16 13.5186 16C12.9663 16 12.5186 15.5523 12.5186 15V11.0093C12.5186 10.728 12.2906 10.5 12.0093 10.5C11.728 10.5 11.5 10.728 11.5 11.0093V15C11.5 15.5523 11.0523 16 10.5 16C9.94772 16 9.5 15.5523 9.5 15V11.0093Z" fill="#1F1A23"/>
<path d="M8.5 10.5C8.5 8.84315 9.84315 7.5 11.5 7.5H12.5C14.1569 7.5 15.5 8.84315 15.5 10.5V14.5C15.5 16.1569 14.1569 17.5 12.5 17.5H11C9.61929 17.5 8.5 16.3807 8.5 15C8.5 14.4477 8.05228 14 7.5 14C6.94772 14 6.5 14.4477 6.5 15C6.5 17.4853 8.51472 19.5 11 19.5H12.5C15.2614 19.5 17.5 17.2614 17.5 14.5V10.5C17.5 7.73858 15.2614 5.5 12.5 5.5H11.5C8.73858 5.5 6.5 7.73858 6.5 10.5V11C6.5 11.5523 6.94772 12 7.5 12C8.05228 12 8.5 11.5523 8.5 11V10.5Z" fill="#1F1A23"/>
</svg>
