<svg width="42" height="42" viewBox="0 0 42 42"
fill="none" xmlns="http://www.w3.org/2000/svg">
  <path d="M0 10.2439C0 4.58635 4.58635 0 10.2439 0H31.7561C37.4136 0 42 4.58635 42 10.2439V31.7561C42 37.4136 37.4136 42 31.7561 42H10.2439C4.58635 42 0 37.4136 0 31.7561V10.2439Z"
  fill="#E6D5FA"/>
  <path d="M21.25 11.8311C19.9633 11.8311 18.6893 12.0884 17.5005 12.5884C16.3118 13.0884 15.2317 13.8213 14.3219 14.7452C13.4121 15.669 12.6904 16.7659 12.198 17.973C11.7056 19.1801 11.4521 20.4739 11.4521 21.7804C11.4521 23.087 11.7056 24.3808 12.198 25.5879C12.6904 26.795 13.4121 27.8918 14.3219 28.8157C15.2317 29.7396 16.3118 30.4725 17.5005 30.9725C18.6893 31.4725 19.9633 31.7298 21.25 31.7298L21.25 11.8311Z"
  fill="#771AC9"/>
  <path d="M22.7433 11.8311H23.3965C27.7254 11.8311 31.2347 15.3947 31.2347 19.7906L22.7433 11.8311Z"
  fill="#771AC9"/>
  <path d="M31.2347 24.6303V31.73H22.7433V24.6303C22.7433 22.3238 24.6441 20.454 26.989 20.454C29.3338 20.454 31.2347 22.3238 31.2347 24.6303Z"
  fill="#771AC9"/>
  </svg>
