<svg xmlns="http://www.w3.org/2000/svg" width="131" height="36" fill="none" viewBox="0 0 131 36"><g fill="#fff" clip-path="url(#a)"><path fill-rule="evenodd" d="M106.098 34.205a17.488 17.488 0 0 0 6.748 1.294 17.472 17.472 0 0 0 6.751-1.286 17.404 17.404 0 0 0 5.725-3.789 17.33 17.33 0 0 0 3.807-5.7 17.26 17.26 0 0 0 1.292-6.722 17.265 17.265 0 0 0-1.292-6.724 17.33 17.33 0 0 0-3.805-5.701 17.414 17.414 0 0 0-5.726-3.79 17.472 17.472 0 0 0-6.752-1.286 17.501 17.501 0 0 0-6.748 1.294 17.428 17.428 0 0 0-5.721 3.789 17.36 17.36 0 0 0-3.806 5.696A17.297 17.297 0 0 0 95.27 18a17.314 17.314 0 0 0 5.106 12.416 17.43 17.43 0 0 0 5.722 3.79Zm19.867-16.206c0 7.437-5.65 13.303-13.119 13.303-7.423 0-13.074-5.863-13.074-13.303s5.651-13.304 13.074-13.304c7.469 0 13.119 5.866 13.119 13.303Z" clip-rule="evenodd"/><path d="M86.37 34.75h4.57V7.953a6.979 6.979 0 0 0-2.058-4.934A7.035 7.035 0 0 0 83.927.972a7.063 7.063 0 0 0-3.756 1.093 7.02 7.02 0 0 0-2.59 2.92L66.736 27.97a2.45 2.45 0 0 1-4.47-.103 2.427 2.427 0 0 1-.186-.932V10.22a9.237 9.237 0 0 0-2.723-6.537 9.316 9.316 0 0 0-6.564-2.71 9.316 9.316 0 0 0-6.562 2.711 9.236 9.236 0 0 0-2.721 6.536v24.526h4.568V10.22a4.694 4.694 0 0 1 1.383-3.32 4.735 4.735 0 0 1 3.332-1.379c1.251.002 2.45.497 3.335 1.378a4.694 4.694 0 0 1 1.384 3.32v16.716a6.974 6.974 0 0 0 2.055 4.936 7.035 7.035 0 0 0 4.957 2.046 7.06 7.06 0 0 0 3.756-1.092 7.02 7.02 0 0 0 2.59-2.92L81.715 6.92a2.453 2.453 0 0 1 3.939-.685c.458.456.716 1.074.717 1.72v26.794ZM32.932.988h4.428v33.764h-4.428V.988Z"/><path fill-rule="evenodd" d="M28.19 17.868C28.19 8.213 20.55.988 10.14.988H.22v33.735h4.618l5.3.03c10.411 0 18.052-7.23 18.052-16.885ZM4.838 5.125h5.3c8.167 0 13.562 5.421 13.562 12.743s-5.395 12.747-13.561 12.747h-5.3V5.125Z" clip-rule="evenodd"/></g><defs><clipPath id="a"><path fill="#fff" d="M.22.5h130.375v35H.22z"/></clipPath></defs></svg>