<svg xmlns="http://www.w3.org/2000/svg" width="105" height="40" fill="none" viewBox="0 0 105 40"><path fill="#fff" d="M12.09 27.229.725 29.948c-.414.107-.725.537-.725.967v8.09c0 .68.518 1.11 1.174.967l15.855-3.795c.656-.143.933-.788.656-1.396l-2.867-6.122c-.449-.966 0-1.968 1.002-2.183l10.363-2.578c.725-.179 1.347-.966 1.347-1.754v-7.481c0-.68-.518-1.146-1.175-.967L11.4 17.384c-.933.215-1.347 1.146-.933 2.04l2.625 5.62c.45.967 0 1.934-1.001 2.184Z"/><path fill="#fff" d="M4.634 6.7 7.61 13.04c.38.828 0 1.693-.865 1.873l-5.499 1.332c-.692.18-1.245.9-1.245 1.62v6.807c0 1.152.9 1.873 1.971 1.62l5.119-1.224c.692-.144 1.245-.9 1.245-1.62l.035-6.987c0-.972.76-1.945 1.66-2.16l16.774-4.178c.415-.108.726-.54.726-.972V1.01c0-.684-.519-1.152-1.176-.972L5.292 5.296c-.658.145-.934.793-.658 1.405ZM58.01 26.617H46.572V8.849h-5.278v22.614h16.714v-4.846ZM60.959 31.463h4.916V8.849h-4.916v22.614ZM69.808 31.463h4.916v-4.916h-4.916v4.916ZM83.766 22.643h10.69v-4.458h-10.69v-4.749H95.37V8.85H78.657v22.614h5.109v-8.82ZM99.304 31.463h4.916V8.849h-4.916v22.614Z"/></svg>