<svg xmlns="http://www.w3.org/2000/svg" width="194" height="40" fill="none" viewBox="0 0 194 40"><g clip-path="url(#a)"><path fill="#fff" fill-rule="evenodd" d="M41.023 2.45C36.305-2.848 24.501.693 13.571 10.7 2.641 20.705-2.039 32.25 2.691 37.55a8.089 8.089 0 0 0 2.87 1.914A7.995 7.995 0 0 0 8.953 40c4.87 0 11.297-2.745 17.71-7.761a6.585 6.585 0 0 1 2.38-1.27 6.527 6.527 0 0 1 2.681-.206 10.971 10.971 0 0 1 5.2 3.028.491.491 0 0 0 .53.115.466.466 0 0 0 0-.526c-2.53-4.862-1.631-8.98 1.823-12.893a.451.451 0 0 0 .075-.577.454.454 0 0 0-.581-.102c-4.643 2.283-8.856 1.95-12.714-1.835a.441.441 0 0 0-.52-.103h-.1a.466.466 0 0 0 0 .565c2.112 4.13 1.404 8.377-.127 10.263-8.919 7.287-17.47 9.378-20.013 6.517-2.784-3.118.91-12.829 10.626-21.68C25.64 4.681 35.495 1.91 38.266 5.015c1.543 1.745 1.037 5.593-1.329 10.07-.21.428-.248.921-.105 1.376.142.455.454.836.87 1.061.414.226.9.278 1.352.147a1.813 1.813 0 0 0 1.071-.852c3.277-6.17 3.58-11.366.898-14.368ZM30.776 30.674c.32.036.636.092.95.166l-.95-.166Z" clip-rule="evenodd"/></g><g fill="#fff" clip-path="url(#b)"><path d="M63.269 30.629a10.606 10.606 0 0 1-4.134-.803 10.21 10.21 0 0 1-3.374-2.33 10.632 10.632 0 0 1-2.246-3.493 12.107 12.107 0 0 1 0-8.686 10.586 10.586 0 0 1 2.245-3.494 10.07 10.07 0 0 1 3.363-2.27 10.789 10.789 0 0 1 4.146-.792 10.38 10.38 0 0 1 4.146.815 10.253 10.253 0 0 1 3.378 2.274c.965.978 1.727 2.14 2.242 3.42a11.765 11.765 0 0 1 0 8.687 10.664 10.664 0 0 1-2.303 3.493c-.957.995-2.1 1.787-3.363 2.329a10.576 10.576 0 0 1-4.1.85Zm0-2.573a7.54 7.54 0 0 0 3.155-.64 7.269 7.269 0 0 0 2.476-1.782 7.98 7.98 0 0 0 1.624-2.655 9.318 9.318 0 0 0 0-6.451 8.037 8.037 0 0 0-1.624-2.644 7.27 7.27 0 0 0-2.476-1.781 8.042 8.042 0 0 0-6.287 0 7.383 7.383 0 0 0-2.476 1.781 8.468 8.468 0 0 0-1.636 2.644 9.153 9.153 0 0 0 0 6.45 8.4 8.4 0 0 0 1.636 2.656 7.383 7.383 0 0 0 2.476 1.735 7.509 7.509 0 0 0 3.132.687ZM78.505 30.291V9.238h6.818a11.23 11.23 0 0 1 5.505 1.293 9.137 9.137 0 0 1 3.639 3.656 12.667 12.667 0 0 1 0 11.097 9.149 9.149 0 0 1-3.64 3.691 11.116 11.116 0 0 1-5.504 1.316h-6.818Zm2.741-2.55h4.1a7.773 7.773 0 0 0 4.02-.99 6.676 6.676 0 0 0 2.613-2.783 9.143 9.143 0 0 0 .922-4.227 8.908 8.908 0 0 0-.945-4.238 6.675 6.675 0 0 0-2.625-2.748 7.819 7.819 0 0 0-3.985-.978h-4.1V27.74ZM104.774 30.291V20.65l-7.21-11.412h3.11l6.046 9.572h-1.152l6.012-9.572h3.097l-7.151 11.412v9.641h-2.752ZM126.009 30.629a8.792 8.792 0 0 1-3.627-.745 8.189 8.189 0 0 1-2.799-2.05 7.9 7.9 0 0 1-1.647-2.91l2.373-.99a6.604 6.604 0 0 0 2.303 3.12 5.827 5.827 0 0 0 3.455 1.083 5.39 5.39 0 0 0 2.153-.396 3.265 3.265 0 0 0 1.44-1.164 2.776 2.776 0 0 0 .518-1.677 2.95 2.95 0 0 0-.748-2.108 4.597 4.597 0 0 0-2.165-1.164l-3.824-1.165a6.905 6.905 0 0 1-3.455-2.235 5.87 5.87 0 0 1-.38-6.544 5.779 5.779 0 0 1 2.304-2.062 7.242 7.242 0 0 1 3.339-.756 8.247 8.247 0 0 1 3.455.687 7.852 7.852 0 0 1 2.591 1.816 7.37 7.37 0 0 1 1.555 2.62l-2.303.99a5.29 5.29 0 0 0-1.989-2.683 5.197 5.197 0 0 0-3.182-.939 4.81 4.81 0 0 0-1.981.385c-.533.228-.99.608-1.313 1.094a3.218 3.218 0 0 0-.46 1.712c-.01.753.247 1.484.725 2.061a4.526 4.526 0 0 0 2.05 1.444l3.455 1.048a8.04 8.04 0 0 1 3.708 2.177 5.08 5.08 0 0 1 1.267 3.494 5.39 5.39 0 0 1-.887 3.05 5.957 5.957 0 0 1-2.43 2.085 8.325 8.325 0 0 1-3.501.722ZM146.336 30.629a8.827 8.827 0 0 1-3.628-.745 8.29 8.29 0 0 1-2.798-2.05 8.04 8.04 0 0 1-1.647-2.91l2.372-.99a6.55 6.55 0 0 0 2.303 3.12 5.794 5.794 0 0 0 3.455 1.083 5.353 5.353 0 0 0 2.154-.396 3.199 3.199 0 0 0 1.439-1.164 2.776 2.776 0 0 0 .518-1.677 2.942 2.942 0 0 0-.737-2.108 4.759 4.759 0 0 0-2.165-1.164l-3.835-1.165a6.956 6.956 0 0 1-3.454-2.235 5.56 5.56 0 0 1-1.152-3.494 5.64 5.64 0 0 1 .818-3.039 5.77 5.77 0 0 1 2.303-2.06 7.255 7.255 0 0 1 3.351-.758 8.19 8.19 0 0 1 3.386.687 7.733 7.733 0 0 1 2.591 1.817 7.403 7.403 0 0 1 1.566 2.62l-2.303.99a5.294 5.294 0 0 0-1.988-2.683 5.2 5.2 0 0 0-3.183-.939 4.72 4.72 0 0 0-1.969.384 2.876 2.876 0 0 0-1.313 1.095 3.133 3.133 0 0 0-.461 1.712c-.01.752.248 1.484.726 2.06a4.479 4.479 0 0 0 2.096 1.433l3.455 1.048a8.092 8.092 0 0 1 3.719 2.178 5.06 5.06 0 0 1 1.256 3.493 5.471 5.471 0 0 1-.876 3.05 5.988 5.988 0 0 1-2.441 2.085 8.258 8.258 0 0 1-3.558.722ZM159.568 30.291V9.238h13.554v2.539h-10.825v6.672h10.261v2.538h-10.261v6.754h10.825v2.55h-13.554ZM184.017 30.291V20.65l-7.21-11.412h3.098l6.046 9.572H184.8l6-9.572h3.155l-7.152 11.412v9.641h-2.786Z"/></g><defs><clipPath id="a"><path fill="#fff" d="M.857 0h41.975v40H.857z"/></clipPath><clipPath id="b"><path fill="#fff" d="M52.71 8.889h141.234v21.728H52.71z"/></clipPath></defs></svg>