<svg xmlns="http://www.w3.org/2000/svg" width="153" height="40" fill="none" viewBox="0 0 153 40"><g fill="#fff" clip-path="url(#a)"><path fill-rule="evenodd" d="M22.613 1.625a6.788 6.788 0 0 0-6.487 0L4.402 8.002a6.788 6.788 0 0 0-3.545 5.963v12.07a6.788 6.788 0 0 0 3.545 5.963l11.724 6.377a6.788 6.788 0 0 0 6.487 0l11.724-6.377a6.788 6.788 0 0 0 3.544-5.963v-12.07a6.788 6.788 0 0 0-3.544-5.963L22.613 1.625Zm6.62 16.942c1.564-1.549 2.144-4.212 1.74-7.989-2.749-.474-5.403-.002-7.964 1.416a10.062 10.062 0 0 0-3.432-.6c-1.054 0-2.071.162-3.027.463l-.406.137-.382-.205c-2.442-1.258-4.969-1.661-7.58-1.21-.405 3.776.176 6.44 1.74 7.988a10.08 10.08 0 0 0-.425 2.907c0 5.567 4.513 10.08 10.08 10.08s10.08-4.512 10.08-10.08c0-1.01-.149-1.987-.425-2.907Zm-6.224-6.573-.022.012.022-.012ZM15.257 24.08c0-1.59 1.934-2.88 4.32-2.88s4.32 1.29 4.32 2.88c0 1.59-1.934 2.88-4.32 2.88s-4.32-1.29-4.32-2.88Zm3.6.12a.6.6 0 1 0-1.2 0 .6.6 0 0 0 1.2 0Zm2.4 0a.6.6 0 1 0-1.2 0 .6.6 0 0 0 1.2 0Z" clip-rule="evenodd"/><path d="M49.298 23.398v-3.513h4.377c.557 0 1.066-.115 1.527-.346.46-.23.825-.566 1.094-1.008.269-.441.403-.979.403-1.612 0-.615-.134-1.143-.403-1.585a2.639 2.639 0 0 0-1.094-1.008c-.461-.23-.97-.345-1.527-.345h-4.377v-3.514h5.04c1.286 0 2.448.26 3.484.778a5.886 5.886 0 0 1 2.448 2.246c.615.96.922 2.103.922 3.428 0 1.324-.307 2.476-.922 3.456a6.148 6.148 0 0 1-2.448 2.246c-1.036.518-2.198.777-3.484.777h-5.04ZM45.842 30.8V10.467h4.521V30.8h-4.521ZM63.523 30.8V16.803h4.406V30.8h-4.406Zm2.217-15.926c-.69 0-1.267-.23-1.728-.691a2.463 2.463 0 0 1-.662-1.728c0-.692.22-1.268.662-1.728.461-.461 1.037-.692 1.728-.692.692 0 1.258.23 1.7.692.441.46.662 1.036.662 1.728 0 .672-.22 1.248-.662 1.728-.442.46-1.008.69-1.7.69ZM76.965 37.079c-1.536 0-2.89-.27-4.06-.807-1.153-.518-2.065-1.257-2.737-2.217l2.707-2.708c.5.596 1.056 1.047 1.67 1.354.634.307 1.393.46 2.276.46 1.094 0 1.949-.268 2.563-.806.634-.537.95-1.296.95-2.275V26.51l.75-3.053-.663-3.053v-3.6h4.32v13.162c0 1.44-.336 2.688-1.008 3.744-.672 1.056-1.594 1.882-2.765 2.477s-2.505.893-4.003.893Zm-.202-6.71c-1.286 0-2.428-.308-3.427-.922a6.59 6.59 0 0 1-2.361-2.506c-.576-1.056-.864-2.227-.864-3.514 0-1.305.287-2.476.864-3.513a6.376 6.376 0 0 1 2.361-2.477c.999-.614 2.14-.922 3.427-.922.96 0 1.815.183 2.563.548a4.43 4.43 0 0 1 1.844 1.497c.48.634.748 1.373.806 2.218v5.328a4.155 4.155 0 0 1-.806 2.217c-.461.634-1.076 1.133-1.844 1.498-.767.365-1.622.547-2.563.547Zm.835-3.918c.615 0 1.143-.134 1.585-.403.46-.269.806-.624 1.036-1.065.25-.461.375-.98.375-1.556 0-.576-.125-1.094-.375-1.555a2.587 2.587 0 0 0-1.036-1.094c-.442-.269-.97-.403-1.585-.403-.595 0-1.123.134-1.584.403a2.78 2.78 0 0 0-1.065 1.094c-.25.461-.374.98-.374 1.555 0 .538.124 1.047.374 1.527.25.46.595.825 1.037 1.094.46.269.998.403 1.612.403ZM93.784 37.079c-1.536 0-2.89-.27-4.061-.807-1.152-.518-2.064-1.257-2.736-2.217l2.707-2.708c.5.596 1.056 1.047 1.67 1.354.634.307 1.392.46 2.276.46 1.094 0 1.948-.268 2.563-.806.633-.537.95-1.296.95-2.275V26.51l.749-3.053-.662-3.053v-3.6h4.32v13.162c0 1.44-.336 2.688-1.008 3.744-.672 1.056-1.594 1.882-2.765 2.477s-2.506.893-4.003.893Zm-.202-6.71c-1.286 0-2.429-.308-3.427-.922a6.59 6.59 0 0 1-2.362-2.506c-.576-1.056-.864-2.227-.864-3.514 0-1.305.288-2.476.864-3.513a6.376 6.376 0 0 1 2.362-2.477c.998-.614 2.14-.922 3.427-.922.96 0 1.814.183 2.563.548a4.43 4.43 0 0 1 1.843 1.497c.48.634.75 1.373.807 2.218v5.328a4.155 4.155 0 0 1-.807 2.217c-.46.634-1.075 1.133-1.843 1.498s-1.622.547-2.563.547Zm.835-3.918c.615 0 1.143-.134 1.584-.403.461-.269.807-.624 1.037-1.065.25-.461.374-.98.374-1.556 0-.576-.124-1.094-.374-1.555a2.587 2.587 0 0 0-1.037-1.094c-.441-.269-.97-.403-1.584-.403-.595 0-1.123.134-1.584.403a2.78 2.78 0 0 0-1.065 1.094c-.25.461-.375.98-.375 1.555 0 .538.125 1.047.375 1.527.25.46.595.825 1.036 1.094.461.269.999.403 1.613.403ZM108.99 30.858l-5.76-14.055h4.752l3.657 11.146h-1.756l3.744-11.146h4.752l-5.991 14.055h-3.398Zm-3.6 5.846 4.205-9.072 2.793 3.226-2.477 5.846h-4.521ZM119.717 30.8V9.891h4.406v20.91h-4.406ZM134.138 31.117c-1.517 0-2.87-.307-4.061-.922a7.124 7.124 0 0 1-2.765-2.62c-.672-1.114-1.008-2.372-1.008-3.773 0-1.402.327-2.65.98-3.744a7.235 7.235 0 0 1 2.707-2.621c1.133-.634 2.409-.95 3.83-.95 1.383 0 2.602.297 3.658.892a6.404 6.404 0 0 1 2.477 2.477c.614 1.056.921 2.266.921 3.629 0 .25-.019.518-.057.806-.02.27-.068.586-.144.95l-12.068.03v-3.024l10.196-.03-1.901 1.268c-.019-.806-.144-1.469-.375-1.987-.23-.538-.576-.941-1.036-1.21-.442-.288-.989-.432-1.642-.432-.691 0-1.296.163-1.814.49-.5.307-.893.749-1.181 1.325-.269.576-.403 1.276-.403 2.102 0 .826.144 1.536.432 2.131a3.441 3.441 0 0 0 1.267 1.354c.557.307 1.209.46 1.958.46.691 0 1.315-.115 1.872-.345a4.264 4.264 0 0 0 1.469-1.094l2.419 2.419a6.53 6.53 0 0 1-2.505 1.814c-.98.403-2.055.605-3.226.605ZM144.71 30.8V11.015h4.406V30.8h-4.406Zm-3.168-10.253v-3.744h10.742v3.744h-10.742Z"/></g><defs><clipPath id="a"><path fill="#fff" d="M.857 0h152v40h-152z"/></clipPath></defs></svg>