<svg xmlns="http://www.w3.org/2000/svg" width="159" height="59" fill="none" viewBox="0 0 159 59">
  <rect width="158.298" height="59" x=".118" fill="#090909" rx="9"/>
  <g filter="url(#a)">
    <path fill="url(#b)" d="M15.917 14.94c-.342.364-.544.928-.544 1.658v26.097c0 .731.202 1.294.544 1.658l.087.085 14.562-14.62v-.344l-14.562-14.62-.087.086Z"/>
    <path fill="url(#c)" d="m35.42 34.693-4.854-4.874v-.345l4.855-4.873.11.062 5.75 3.28c1.642.937 1.642 2.47 0 3.408l-5.75 3.28-.111.062Z"/>
    <g filter="url(#d)">
      <path fill="url(#e)" d="m35.53 34.63-4.965-4.984-14.648 14.707c.54.576 1.435.646 2.443.073l17.17-9.795Z"/>
    </g>
    <path fill="url(#f)" d="m35.53 24.662-17.17-9.794c-1.008-.574-1.902-.502-2.443.073l14.65 14.707 4.963-4.986Z"/>
  </g>
  <path fill="#fff" d="M79.447 31.074c-2.61 0-4.739 1.985-4.739 4.72 0 2.717 2.128 4.719 4.74 4.719 2.611 0 4.74-2.002 4.74-4.72-.002-2.733-2.13-4.719-4.74-4.719Zm0 7.581c-1.43 0-2.664-1.18-2.664-2.86 0-1.7 1.234-2.86 2.664-2.86 1.431 0 2.665 1.16 2.665 2.86 0 1.68-1.234 2.86-2.665 2.86Zm-10.34-7.58c-2.61 0-4.739 1.985-4.739 4.719 0 2.717 2.128 4.719 4.74 4.719s4.74-2.002 4.74-4.72c0-2.733-2.128-4.719-4.74-4.719Zm0 7.58c-1.43 0-2.664-1.18-2.664-2.86 0-1.7 1.234-2.86 2.664-2.86 1.431 0 2.665 1.16 2.665 2.86 0 1.68-1.234 2.86-2.665 2.86ZM56.81 32.523v2.002h4.794c-.143 1.126-.519 1.949-1.091 2.52-.698.697-1.789 1.466-3.703 1.466-2.95 0-5.257-2.378-5.257-5.327 0-2.95 2.306-5.327 5.257-5.327 1.592 0 2.755.626 3.613 1.43l1.413-1.413c-1.2-1.144-2.79-2.019-5.026-2.019-4.042 0-7.44 3.289-7.44 7.329 0 4.04 3.398 7.329 7.44 7.329 2.182 0 3.828-.716 5.115-2.057 1.323-1.322 1.735-3.182 1.735-4.683 0-.464-.036-.893-.108-1.25H56.81Zm50.298 1.555c-.393-1.054-1.592-3.004-4.042-3.004-2.432 0-4.453 1.913-4.453 4.72 0 2.645 2.003 4.719 4.685 4.719 2.164 0 3.416-1.323 3.936-2.092l-1.61-1.073c-.536.787-1.27 1.305-2.326 1.305-1.054 0-1.806-.483-2.289-1.43l6.314-2.61-.215-.535Zm-6.438 1.573c-.054-1.824 1.413-2.752 2.469-2.752.822 0 1.519.411 1.752 1l-4.221 1.752Zm-5.132 4.576h2.073v-13.87h-2.073v13.87Zm-3.4-8.097h-.07c-.466-.555-1.36-1.056-2.486-1.056-2.362 0-4.525 2.074-4.525 4.738 0 2.646 2.163 4.702 4.525 4.702 1.126 0 2.02-.5 2.485-1.072h.071v.679c0 1.805-.966 2.77-2.52 2.77-1.27 0-2.058-.91-2.38-1.68l-1.806.752c.518 1.25 1.895 2.788 4.185 2.788 2.432 0 4.49-1.43 4.49-4.916v-8.473h-1.968v.768Zm-2.378 6.525c-1.43 0-2.629-1.198-2.629-2.843 0-1.663 1.198-2.878 2.63-2.878 1.411 0 2.52 1.215 2.52 2.878 0 1.645-1.109 2.843-2.52 2.843Zm27.067-12.299h-4.964v13.871h2.071v-5.255h2.891c2.296 0 4.554-1.66 4.554-4.307 0-2.646-2.257-4.308-4.552-4.308Zm.053 6.686h-2.946v-4.755h2.946c1.549 0 2.428 1.282 2.428 2.378 0 1.074-.879 2.377-2.428 2.377Zm12.802-1.992c-1.5 0-3.053.66-3.696 2.124l1.839.767c.393-.767 1.125-1.018 1.892-1.018 1.072 0 2.161.642 2.179 1.784v.143c-.376-.214-1.179-.535-2.161-.535-1.981 0-4 1.089-4 3.123 0 1.856 1.626 3.051 3.446 3.051 1.392 0 2.161-.624 2.642-1.357h.071v1.07h2.001v-5.317c.001-2.461-1.84-3.835-4.213-3.835Zm-.251 7.602c-.677 0-1.624-.34-1.624-1.179 0-1.07 1.179-1.48 2.197-1.48.909 0 1.339.195 1.892.463a2.511 2.511 0 0 1-2.465 2.196Zm11.749-7.3-2.375 6.015h-.071l-2.464-6.014h-2.232l3.696 8.405-2.107 4.676h2.16l5.696-13.081h-2.303Zm-18.657 8.875h2.07v-13.87h-2.07v13.87ZM56.551 18.152c0 .913-.275 1.64-.826 2.182-.626.645-1.442.968-2.445.968-.96 0-1.778-.327-2.449-.981-.672-.655-1.008-1.465-1.008-2.433 0-.968.336-1.779 1.008-2.433.671-.654 1.489-.981 2.45-.981.476 0 .932.091 1.365.273.434.183.78.426 1.04.73l-.584.575c-.44-.517-1.047-.775-1.823-.775-.7 0-1.306.242-1.818.725-.51.484-.766 1.113-.766 1.885 0 .773.255 1.401.766 1.885a2.556 2.556 0 0 0 1.818.726c.743 0 1.363-.243 1.86-.73.32-.317.507-.759.557-1.324H53.28v-.786h3.225c.033.171.047.336.047.494ZM61.665 15.422h-3.03v2.072h2.732v.785h-2.733v2.073h3.03v.804H57.78v-6.537h3.886v.803ZM65.27 21.156h-.855v-5.734h-1.859v-.803h4.573v.803H65.27v5.734ZM70.438 21.156v-6.537h.855v6.537h-.855ZM75.085 21.156h-.855v-5.734h-1.859v-.803h4.573v.803h-1.859v5.734ZM85.6 20.311c-.654.66-1.467.99-2.44.99-.972 0-1.785-.33-2.438-.99-.655-.66-.98-1.468-.98-2.424 0-.955.325-1.764.98-2.424.653-.66 1.466-.991 2.439-.991.967 0 1.779.332 2.435.995.657.664.985 1.47.985 2.42 0 .956-.327 1.764-.98 2.424Zm-4.247-.548c.492.49 1.095.735 1.808.735.713 0 1.316-.246 1.808-.735.492-.49.74-1.115.74-1.876 0-.76-.248-1.386-.74-1.876s-1.095-.734-1.808-.734c-.713 0-1.316.245-1.808.734-.492.49-.739 1.116-.739 1.876 0 .76.247 1.386.739 1.876ZM87.781 21.156v-6.537h1.04l3.235 5.084h.037l-.037-1.26V14.62h.855v6.537h-.893l-3.384-5.332h-.036l.036 1.26v4.072h-.853Z"/>
  <path stroke="#fff" stroke-miterlimit="10" stroke-width=".046" d="M56.551 18.152c0 .913-.275 1.64-.826 2.182-.626.645-1.442.968-2.445.968-.96 0-1.778-.327-2.449-.981-.672-.655-1.008-1.465-1.008-2.433 0-.968.336-1.779 1.008-2.433.671-.654 1.489-.981 2.45-.981.476 0 .932.091 1.365.273.434.183.78.426 1.04.73l-.584.575c-.44-.517-1.047-.775-1.823-.775-.7 0-1.306.242-1.818.725-.51.484-.766 1.113-.766 1.885 0 .773.255 1.401.766 1.885a2.556 2.556 0 0 0 1.818.726c.743 0 1.363-.243 1.86-.73.32-.317.507-.759.557-1.324H53.28v-.786h3.225c.033.171.047.336.047.494ZM61.665 15.422h-3.03v2.072h2.732v.785h-2.733v2.073h3.03v.804H57.78v-6.537h3.886v.803ZM65.27 21.156h-.855v-5.734h-1.859v-.803h4.573v.803H65.27v5.734ZM70.438 21.156v-6.537h.855v6.537h-.855ZM75.085 21.156h-.855v-5.734h-1.859v-.803h4.573v.803h-1.859v5.734ZM85.6 20.311c-.654.66-1.467.99-2.44.99-.972 0-1.785-.33-2.438-.99-.655-.66-.98-1.468-.98-2.424 0-.955.325-1.764.98-2.424.653-.66 1.466-.991 2.439-.991.967 0 1.779.332 2.435.995.657.664.985 1.47.985 2.42 0 .956-.327 1.764-.98 2.424Zm-4.247-.548c.492.49 1.095.735 1.808.735.713 0 1.316-.246 1.808-.735.492-.49.74-1.115.74-1.876 0-.76-.248-1.386-.74-1.876s-1.095-.734-1.808-.734c-.713 0-1.316.245-1.808.734-.492.49-.739 1.116-.739 1.876 0 .76.247 1.386.739 1.876ZM87.781 21.156v-6.537h1.04l3.235 5.084h.037l-.037-1.26V14.62h.855v6.537h-.893l-3.384-5.332h-.036l.036 1.26v4.072h-.853Z"/>
  <defs>
    <linearGradient id="b" x1="29.276" x2="9.473" y1="16.322" y2="36.047" gradientUnits="userSpaceOnUse">
      <stop stop-color="#00A0FF"/>
      <stop offset=".007" stop-color="#00A1FF"/>
      <stop offset=".26" stop-color="#00BEFF"/>
      <stop offset=".512" stop-color="#00D2FF"/>
      <stop offset=".76" stop-color="#00DFFF"/>
      <stop offset="1" stop-color="#00E3FF"/>
    </linearGradient>
    <linearGradient id="c" x1="43.419" x2="14.979" y1="29.646" y2="29.646" gradientUnits="userSpaceOnUse">
      <stop stop-color="#FFE000"/>
      <stop offset=".409" stop-color="#FFBD00"/>
      <stop offset=".775" stop-color="orange"/>
      <stop offset="1" stop-color="#FF9C00"/>
    </linearGradient>
    <linearGradient id="e" x1="32.834" x2="5.979" y1="32.353" y2="59.104" gradientUnits="userSpaceOnUse">
      <stop stop-color="#FF3A44"/>
      <stop offset="1" stop-color="#C31162"/>
    </linearGradient>
    <linearGradient id="f" x1="12.228" x2="24.219" y1="6.254" y2="18.199" gradientUnits="userSpaceOnUse">
      <stop stop-color="#32A071"/>
      <stop offset=".069" stop-color="#2DA771"/>
      <stop offset=".476" stop-color="#15CF74"/>
      <stop offset=".801" stop-color="#06E775"/>
      <stop offset="1" stop-color="#00F076"/>
    </linearGradient>
    <filter id="a" width="27.14" height="30.351" x="15.373" y="14.472" color-interpolation-filters="sRGB" filterUnits="userSpaceOnUse">
      <feFlood flood-opacity="0" result="BackgroundImageFix"/>
      <feBlend in="SourceGraphic" in2="BackgroundImageFix" result="shape"/>
      <feColorMatrix in="SourceAlpha" result="hardAlpha" values="0 0 0 0 0 0 0 0 0 0 0 0 0 0 0 0 0 0 127 0"/>
      <feOffset dy="-.177"/>
      <feComposite in2="hardAlpha" k2="-1" k3="1" operator="arithmetic"/>
      <feColorMatrix values="0 0 0 0 0 0 0 0 0 0 0 0 0 0 0 0 0 0 0.12 0"/>
      <feBlend in2="shape" result="effect1_innerShadow_9170_9068"/>
      <feColorMatrix in="SourceAlpha" result="hardAlpha" values="0 0 0 0 0 0 0 0 0 0 0 0 0 0 0 0 0 0 127 0"/>
      <feOffset dy=".177"/>
      <feComposite in2="hardAlpha" k2="-1" k3="1" operator="arithmetic"/>
      <feColorMatrix values="0 0 0 0 1 0 0 0 0 1 0 0 0 0 1 0 0 0 0.25 0"/>
      <feBlend in2="effect1_innerShadow_9170_9068" result="effect2_innerShadow_9170_9068"/>
    </filter>
    <filter id="d" width="19.613" height="15.176" x="15.917" y="29.646" color-interpolation-filters="sRGB" filterUnits="userSpaceOnUse">
      <feFlood flood-opacity="0" result="BackgroundImageFix"/>
      <feBlend in="SourceGraphic" in2="BackgroundImageFix" result="shape"/>
      <feColorMatrix in="SourceAlpha" result="hardAlpha" values="0 0 0 0 0 0 0 0 0 0 0 0 0 0 0 0 0 0 127 0"/>
      <feOffset dy="-.177"/>
      <feComposite in2="hardAlpha" k2="-1" k3="1" operator="arithmetic"/>
      <feColorMatrix values="0 0 0 0 0 0 0 0 0 0 0 0 0 0 0 0 0 0 0.08 0"/>
      <feBlend in2="shape" result="effect1_innerShadow_9170_9068"/>
    </filter>
  </defs>
</svg>
