<svg xmlns="http://www.w3.org/2000/svg" width="176" height="50" fill="none" viewBox="0 0 176 50"><path fill="#fff" d="M57.61 41.246V13.428h3.907l.157 4.157h.237c.5-1.36 1.368-2.452 2.605-3.278 1.263-.826 2.762-1.239 4.499-1.239 1.263 0 2.407.24 3.433.72a7.514 7.514 0 0 1 2.724 2.118c.763.933 1.341 2.078 1.736 3.437.421 1.36.632 2.918.632 4.677 0 2.344-.356 4.33-1.066 5.955-.71 1.625-1.71 2.864-3 3.717-1.262.826-2.749 1.24-4.459 1.24-1.131 0-2.184-.187-3.157-.56a7.29 7.29 0 0 1-2.447-1.56 7.075 7.075 0 0 1-1.5-2.397h-.237v10.831H57.61Zm9.984-9.712c1.158 0 2.17-.28 3.04-.84.867-.56 1.538-1.398 2.012-2.518.5-1.119.75-2.504.75-4.156 0-1.679-.25-3.065-.75-4.157-.474-1.12-1.145-1.959-2.013-2.518-.868-.586-1.881-.88-3.039-.88-1.263 0-2.341.307-3.236.92a5.547 5.547 0 0 0-1.973 2.358 7.193 7.193 0 0 0-.671 3.078v2.358c0 .826.118 1.625.355 2.398a6.753 6.753 0 0 0 1.145 2.038 5.446 5.446 0 0 0 1.854 1.4c.737.346 1.58.519 2.526.519Zm14.258 3.037V5.434h4.064v29.137h-4.064Zm17.013.36c-1.552 0-2.894-.306-4.025-.92-1.132-.639-2-1.585-2.605-2.837-.58-1.279-.868-2.851-.868-4.716v-13.03h4.064v11.99c0 1.306.158 2.412.474 3.318.342.906.881 1.599 1.618 2.078.737.453 1.684.68 2.842.68 1.157 0 2.157-.28 2.999-.84.868-.56 1.539-1.345 2.013-2.358.473-1.012.71-2.158.71-3.437V13.428h4.065V34.57h-3.868l-.197-4.276h-.237c-.526 1.439-1.42 2.571-2.683 3.397-1.263.826-2.697 1.24-4.302 1.24Zm16.787-.36V13.428h3.867l.158 4.197h.237c.579-1.493 1.487-2.612 2.723-3.358 1.263-.772 2.658-1.159 4.184-1.159 1.526 0 2.894.373 4.104 1.12 1.237.745 2.118 2.024 2.644 3.836h.316c.579-1.652 1.526-2.89 2.842-3.717 1.341-.826 2.841-1.239 4.499-1.239 1.368 0 2.591.293 3.671.88 1.104.586 1.971 1.532 2.603 2.837.632 1.306.948 3.038.948 5.196v12.55h-4.025v-11.71c0-1.44-.171-2.625-.514-3.558-.341-.959-.855-1.665-1.539-2.118-.684-.453-1.579-.68-2.684-.68-1.131 0-2.118.294-2.959.88-.842.586-1.5 1.372-1.974 2.358-.447.96-.671 2.052-.671 3.277v11.551h-4.065v-11.71c0-1.44-.171-2.625-.513-3.558-.342-.959-.855-1.665-1.539-2.118-.684-.453-1.565-.68-2.644-.68-1.158 0-2.158.294-3 .88-.841.586-1.499 1.372-1.973 2.358-.447.96-.671 2.052-.671 3.277v11.551h-4.025Zm46.953.36c-2.078 0-3.881-.44-5.407-1.319-1.499-.906-2.657-2.171-3.473-3.797-.815-1.652-1.223-3.557-1.223-5.715 0-2.239.408-4.184 1.223-5.836.816-1.652 1.961-2.918 3.434-3.797 1.499-.906 3.262-1.359 5.288-1.359 2.289 0 4.171.52 5.644 1.559 1.499 1.012 2.578 2.411 3.236 4.197.658 1.758.881 3.743.671 5.955h-15.47c.026 1.439.289 2.678.789 3.717.499 1.013 1.197 1.785 2.092 2.318.921.533 1.986.8 3.196.8 1.395 0 2.579-.32 3.552-.96.973-.666 1.592-1.545 1.855-2.638h3.868c-.185 1.386-.697 2.598-1.539 3.638-.842 1.012-1.934 1.812-3.276 2.398-1.316.56-2.803.84-4.46.84Zm-6.039-12.43-.393-.6h12.234l-.395.68c.052-1.466-.171-2.652-.67-3.557-.474-.933-1.146-1.613-2.013-2.039-.842-.426-1.816-.64-2.921-.64-1.157 0-2.171.254-3.039.76-.869.48-1.539 1.186-2.013 2.118-.474.933-.736 2.025-.79 3.278Z"/><path fill="#fff" fill-opacity=".95" d="M43.26 7.137V21.41l-7.046-7.136 7.047-7.137Z"/><path fill="#fff" d="M43.26 7.137H29.168l7.047 7.137 7.047-7.137Z"/><path fill="#fff" fill-opacity=".75" d="M22.12 14.274v14.274l-7.047-7.137 7.047-7.137Z"/><path fill="#fff" fill-opacity=".55" d="M15.073 21.41v14.275l-7.047-7.137 7.047-7.137Z"/><path fill="#fff" fill-opacity=".85" d="M29.167 21.41H43.26l-7.047-7.136-7.047 7.137Z"/><path fill="#fff" fill-opacity=".7" d="M22.12 28.547h14.094l-7.047-7.136-7.047 7.136Z"/><path fill="#fff" fill-opacity=".5" d="M15.073 35.684h14.094l-7.047-7.137-7.047 7.137Z"/><path fill="#fff" fill-opacity=".8" d="M43.26 21.41H29.168l7.047 7.138 7.047-7.137Z"/><path fill="#fff" fill-opacity=".65" d="M36.214 28.548H22.12l7.047 7.137 7.047-7.137Z"/><path fill="#fff" fill-opacity=".45" d="M29.167 35.684H15.073l7.047 7.137 7.047-7.137Z"/><path fill="#fff" fill-opacity=".9" d="M29.167 21.41V7.137l7.047 7.137-7.047 7.136Z"/><path fill="#fff" fill-opacity=".8" d="M22.12 28.548V14.274l7.047 7.137-7.047 7.137Z"/><path fill="#fff" fill-opacity=".6" d="M15.073 35.684V21.412l7.047 7.136-7.047 7.137Z"/><path fill="#F8F8F8" fill-opacity=".3" fill-rule="evenodd" d="m8.025 42.821 7.047-7.137 7.047 7.137H9.99l-5.302 3.38 3.338-3.38Z" clip-rule="evenodd"/><path fill="#F9F9F9" fill-opacity=".4" fill-rule="evenodd" d="m9.35 41.48-4.662 4.722 3.337-5.368V28.547l7.047 7.137L9.35 41.48Z" clip-rule="evenodd"/></svg>