<svg xmlns="http://www.w3.org/2000/svg" width="118" height="42" fill="none" viewBox="0 0 118 42"><mask id="a" width="42" height="42" x="0" y="0" maskUnits="userSpaceOnUse" style="mask-type:luminance"><path fill="#fff" d="M41.595.658h-41v40.684h41V.658Z"/></mask><g mask="url(#a)"><path fill="#fff" d="M27.057 1.537v7.591c0 2.458-2.009 4.451-4.493 4.451h-.066c-1.247-.008-2.362 0-2.362 0-.213 0-.442-.024-.648 0-1.402.147-2.607.773-3.632 1.888-.033.032-.057.065-.082.098-.82 1.057-1.271 2.424-1.271 3.897v.073c0 .944.197 1.847.55 2.653.352.805.171 1.741-.51 2.31-.671.554-1.459 1.205-1.992 1.636-1.55-1.741-2.46-4.027-2.46-6.526v-.08c0-5.428 4.37-9.944 10.316-9.944h2.148V.715a21.63 21.63 0 0 0-1.451-.057C9.78.658.604 9.763.604 21c0 9.178 6.125 16.932 14.539 19.463v-7.535c0-2.481 2.033-4.5 4.534-4.5h.017c1.246.009 2.361 0 2.361 0 .213 0 .443.025.648 0 1.402-.146 2.608-.772 3.633-1.887a.864.864 0 0 0 .082-.098c.82-1.057 1.27-2.424 1.27-3.897v-.073c0-.74-.311-1.725-.623-2.523a2.224 2.224 0 0 1 .656-2.514 69.94 69.94 0 0 1 1.927-1.554c1.55 1.741 2.46 4.028 2.46 6.525v.074c0 5.427-4.37 9.943-10.315 9.943h-2.149v8.86c.484.033.968.058 1.452.058 11.324 0 20.5-9.105 20.5-20.342 0-9.178-6.126-16.933-14.539-19.463Z"/></g><path fill="#fff" d="M56.372 30.39V11.601h6.47c1.59 0 2.968.252 4.116.772 1.157.521 2.05 1.237 2.665 2.19.624.951.935 2.074.935 3.392 0 1.319-.311 2.45-.935 3.401-.615.952-1.508 1.693-2.656 2.214-1.148.52-2.518.78-4.1.78h-2.624v6.054h-3.887.016v-.016Zm3.887-9.431h2.222c1.32 0 2.337-.26 3.05-.79.706-.52 1.067-1.26 1.067-2.229 0-.968-.353-1.676-1.066-2.197-.706-.52-1.73-.79-3.05-.79h-2.223v6.006Z"/><path fill="#fff" d="M79.39 30.764c-1.436 0-2.764-.245-3.978-.733a9.543 9.543 0 0 1-3.165-2.05 9.283 9.283 0 0 1-2.083-3.1c-.492-1.188-.738-2.482-.738-3.882s.246-2.7.738-3.889a9.124 9.124 0 0 1 2.083-3.1c.894-.879 1.951-1.554 3.165-2.05 1.214-.489 2.542-.733 3.977-.733s2.764.244 3.977.733a9.509 9.509 0 0 1 3.157 2.05 9.515 9.515 0 0 1 2.075 3.1c.492 1.196.746 2.49.746 3.89 0 1.399-.254 2.693-.746 3.88a9.513 9.513 0 0 1-2.075 3.1 9.344 9.344 0 0 1-3.157 2.051c-1.213.488-2.542.733-3.977.733Zm0-3.37c.844 0 1.64-.162 2.369-.487a5.846 5.846 0 0 0 1.902-1.36 6.127 6.127 0 0 0 1.255-2.025 7.002 7.002 0 0 0 .451-2.523c0-.91-.148-1.749-.451-2.53a6.08 6.08 0 0 0-1.255-2.034 5.705 5.705 0 0 0-1.902-1.35c-.73-.326-1.517-.481-2.37-.481-.853 0-1.656.155-2.386.48a5.942 5.942 0 0 0-1.91 1.35 6.183 6.183 0 0 0-1.264 2.035 7.049 7.049 0 0 0-.45 2.53c0 .912.155 1.75.45 2.531a6.1 6.1 0 0 0 1.263 2.034 5.737 5.737 0 0 0 1.91 1.35c.73.318 1.526.48 2.387.48Z"/><path fill="#fff" d="M92.542 30.39h-3.886V11.601h3.886v9.243c.378-.553.747-1.058 1.083-1.53.344-.472.64-.854.885-1.147l5.248-6.558h4.584l-6.945 8.657 8.282 10.122h-5.035l-5.732-7.03-2.378 2.97.008 4.06Z"/><path fill="#fff" d="M112.386 30.39h-3.887V14.979h-5.576V11.61h15.055v3.369h-5.592v15.41Z"/></svg>