<svg xmlns="http://www.w3.org/2000/svg" width="172" height="42" fill="none" viewBox="0 0 172 42"><path fill="#fff" d="M4.964 26.675c.92 2.577 4.205 3.946 8.508 3.946 2.842 0 6.128-.597 9.472-1.838 8.4-3.114 13.972-9.11 12.44-13.39h.004C33.125 9.06 27.168 4.542 20.173 4.542c-8.938 0-16.187 7.386-16.187 16.494 0 1.982.343 3.882.971 5.64h.007Z"/><path fill="#fff" d="M34.06 23.66c-2.518 2.711-6.27 5.083-10.566 6.673-3.415 1.267-6.882 1.937-10.026 1.937-2.373 0-4.419-.383-6.057-1.092 2.962 3.863 7.575 6.35 12.758 6.35 8.939 0 16.187-7.386 16.187-16.494 0-.198-.007-.396-.017-.594-.534 1.072-1.294 2.151-2.282 3.216l.003.004Z"/><path fill="url(#a)" d="M13.472 30.62c1.087 0 2.243-.09 3.437-.268l-.058-.02C12.555 28.74 8.803 26.37 6.285 23.66c-.99-1.066-1.752-2.144-2.283-3.216-.006.198-.016.392-.016.593 0 1.983.343 3.883.971 5.641h.004c.919 2.577 4.205 3.942 8.507 3.942h.004Z"/><path fill="url(#b)" d="M20.172 31.365c-2.304.59-4.577.904-6.704.904-2.373 0-4.419-.383-6.057-1.092 2.962 3.863 7.575 6.35 12.758 6.35 5.183 0 9.796-2.487 12.758-6.35-1.638.713-3.68 1.092-6.056 1.092-2.124 0-4.4-.313-6.702-.904h.003Z"/><path fill="#fff" d="m51.466 27.538 3.023-3.181c1.059 2.328 3.098 3.027 5.668 3.027 2.228 0 3.476-.7 3.476-1.746 0-.893-1.02-1.435-3.78-2.017-5.895-1.204-7.86-3.063-7.86-6.284 0-3.221 2.91-6.248 8.502-6.248 4.346 0 6.688 1.318 8.428 4.114l-3.212 2.793c-1.095-2.017-2.606-3.027-5.14-3.027-2.118 0-3.401.853-3.401 1.863s.944 1.705 4.117 2.368c5.518 1.124 7.557 2.833 7.557 6.054 0 3.491-2.983 6.013-8.616 6.013-3.892 0-7.03-1.087-8.766-3.726l.004-.003ZM113.75 18.146v12.726h-5.176V19.698c0-3.338-1.398-4.422-3.362-4.422-2.192 0-4.345 1.475-4.345 5.355v10.24H95.69V2.979h5.177v11.793c1.208-2.481 3.4-3.686 6.085-3.686 3.928 0 6.801 2.368 6.801 7.06h-.003ZM135.234 23.19h-13.378c.527 2.792 2.192 4.113 4.723 4.113 2.192 0 3.629-.852 4.157-2.404l4.231 1.592c-1.208 3.104-4.117 4.773-8.388 4.773-6.274 0-9.824-3.726-9.824-10.088 0-6.36 3.44-10.087 9.521-10.087 6.082 0 9.108 3.646 9.108 10.01 0 .542-.075 1.593-.15 2.094v-.004Zm-13.414-3.727h8.805c-.417-2.91-2.003-4.461-4.385-4.461-2.381 0-4.006 1.511-4.42 4.461ZM151.176 11.513l-.642 4.656c-.527-.348-1.397-.582-2.381-.582-2.267 0-4.534 1.706-4.534 5.238v10.05h-5.176V11.473h4.498v3.803c.984-2.675 3.248-4.19 6.196-4.19.831 0 1.586.153 2.039.427ZM170.565 23.19h-13.379c.528 2.792 2.193 4.113 4.724 4.113 2.192 0 3.629-.852 4.156-2.404l4.232 1.592c-1.209 3.104-4.118 4.773-8.388 4.773-6.274 0-9.825-3.726-9.825-10.088 0-6.36 3.44-10.087 9.522-10.087 6.081 0 9.107 3.646 9.107 10.01 0 .542-.074 1.593-.149 2.094v-.004Zm-13.414-3.727h8.805c-.417-2.91-2.004-4.461-4.385-4.461s-4.007 1.511-4.42 4.461ZM92.585 21.136c0 6.361-4.167 10.127-9.154 10.127-2.795 0-5.194-1.434-6.288-3.609v11.369h-5.176v-27.55h5.176v3.32c1.059-2.482 3.265-3.708 6.288-3.708 5.026 0 9.154 3.726 9.154 10.05Zm-4.858.04c0-3.956-2.73-6.013-5.49-6.013-2.76 0-5.098 2.056-5.098 5.82v.387c0 3.686 2.374 5.82 5.098 5.82 2.723 0 5.49-2.057 5.49-6.014Z"/><defs><linearGradient id="a" x1="18.457" x2="18.457" y1="20.443" y2="37.527" gradientUnits="userSpaceOnUse"><stop stop-color="#CECECE"/><stop offset="1" stop-color="#fff"/></linearGradient><linearGradient id="b" x1="18.457" x2="18.457" y1="20.443" y2="37.527" gradientUnits="userSpaceOnUse"><stop stop-color="#BCBCBC"/><stop offset="1" stop-color="#fff"/></linearGradient></defs></svg>