<svg width="82" height="102" viewBox="0 0 82 102" fill="none" xmlns="http://www.w3.org/2000/svg">
<path d="M0 54.0167V98.24C0 101.583 4.00666 103.257 6.34995 100.893L18.4171 88.7198H57.2019C70.8975 88.7198 82 77.5195 82 63.7031V54.0167C82 40.2004 70.8975 29 57.2019 29H24.7981C11.1025 29 0 40.2004 0 54.0167Z" fill="#69DCED"/>
<path d="M20 19.9212C20.0733 8.9061 29.2193 0 40.5 0C51.8262 0 61 8.97598 61 20.0546C61 26.4871 57.0077 29.9489 53.1191 33.3208L53.1137 33.3255C49.4243 36.5205 45.83 39.6332 45.83 45.1276V46.5506C45.83 49.3572 43.5355 51.6325 40.705 51.6325C37.8745 51.6325 35.58 49.3572 35.58 46.5506V45.1276C35.58 36.005 40.3372 32.3829 44.5236 29.1955L44.5315 29.1894C47.8177 26.6929 50.75 24.4632 50.75 20.0546C50.75 14.5407 46.1375 10.0305 40.5 10.0305C34.8625 10.0305 30.25 14.5407 30.25 20.0546V21.3441C30.25 24.1508 27.9555 26.4261 25.125 26.4261C22.2945 26.4261 20 24.1508 20 21.3441V19.9212Z" fill="#771AC9"/>
<path d="M35.375 60.9858C35.375 63.7551 37.6389 66 40.4317 66H40.5683C43.361 66 45.625 63.7551 45.625 60.9858C45.625 58.2166 43.361 55.9716 40.5683 55.9716H40.4317C37.6389 55.9716 35.375 58.2166 35.375 60.9858Z" fill="#771AC9"/>
</svg>
