<svg width="149" height="24" viewBox="0 0 149 24" fill="none" xmlns="http://www.w3.org/2000/svg">
<path d="M20.3603 17.4543V2.77431e-05C19.6391 -0.00164259 18.9197 0.0721157 18.2132 0.220116C16.1294 0.654358 14.2196 1.71005 12.727 3.25282C11.2343 4.79559 10.2263 6.75564 9.83126 8.88346C9.43623 11.0113 9.67201 13.2107 10.5086 15.2017C11.3452 17.1927 12.7448 18.8852 14.5291 20.0638C13.0329 19.5059 11.6783 18.6143 10.5644 17.4543H0V19.6364H6.64339C8.31996 19.637 9.95886 20.1426 11.3537 21.0897L13.5059 22.5467C14.8997 23.4936 16.5376 23.9993 18.2132 24H18.4272C20.1038 23.9999 21.7428 23.4942 23.1375 22.5467L25.2897 21.0897C26.6842 20.1418 28.3234 19.6361 30 19.6364V17.4543H20.3603Z" fill="black"/>
<path fill-rule="evenodd" clip-rule="evenodd" d="M36.3955 7.91211H40.9462C44.1245 7.91211 45.6004 8.98803 45.6004 11.0088C45.6004 12.2919 44.9539 13.1226 43.8421 13.557C45.1867 13.9544 45.9106 14.9203 45.9106 16.3144C45.9106 18.165 44.8391 19.6764 41.3103 19.6764H36.3955V7.91211ZM38.523 9.44143V12.8584H41.6619C43.0468 12.8584 43.3953 12.8584 43.3953 11.4242V11.0099C43.3953 9.44143 43.1181 9.44143 41.4633 9.44143H38.523ZM43.6539 16.4845V15.9561C43.6539 14.3327 43.2319 14.3327 41.7354 14.3327H38.523V18.146H41.6619C43.1771 18.146 43.6539 18.146 43.6539 16.4845ZM49.9362 7.91211H52.1136V18.1079H57.6215L56.9405 19.6764H49.9362V7.91211ZM106.82 7.91211H102.27V19.6764H107.183C110.713 19.6764 111.784 18.1659 111.784 16.3151C111.784 14.9178 111.061 13.9549 109.716 13.5575C110.828 13.123 111.474 12.2923 111.474 11.0091C111.474 8.98812 109.998 7.91211 106.82 7.91211ZM104.397 12.8588V9.44157L107.332 9.44263C108.995 9.44263 109.269 9.44262 109.269 11.0101V11.4245C109.269 12.8588 108.922 12.8588 107.536 12.8588H104.397ZM109.532 15.9568V16.4853C109.532 18.1469 109.051 18.1469 107.536 18.1469H104.397V14.3333H107.612C109.109 14.3333 109.532 14.3333 109.532 15.9568ZM116.908 7.91211H118.738V19.6764H116.908V7.91211ZM129.386 7.91211H124.227V19.6764H126.352V14.4257H129.477C131.032 14.4257 131.304 15.0683 131.304 16.4084V19.6764H133.431V16.2763C133.431 14.9362 133.011 14.1996 131.987 13.7462C132.497 13.5582 132.939 13.2128 133.253 12.7569C133.567 12.3009 133.738 11.7564 133.743 11.1969C133.743 8.89608 132.039 7.91211 129.386 7.91211ZM126.352 12.8774V9.46046H129.295C130.849 9.46046 131.45 9.46045 131.45 10.9708V11.6091C131.45 12.8774 130.995 12.8774 129.862 12.8774H126.352ZM138.5 7.91211H142.211C146.512 7.91211 148.766 10.1599 148.747 13.8614C148.709 17.7532 146.379 19.6764 142.287 19.6764H138.5V7.91211ZM146.206 14.2769V13.1625C146.206 9.46207 144.808 9.46207 142.283 9.46207H140.693V18.1116H142.3L142.377 18.1116C144.983 18.112 146.206 18.1121 146.206 14.2769ZM99.0113 7.91211L93.5942 12.4719L99.3417 19.6764H96.6962L91.9898 13.8217L90.2374 15.2878V19.6764H89.491H87.9967V7.91211H89.491H90.2374V13.2985L96.5224 7.91211H99.0113ZM69.2257 19.6764H71.5281L66.5212 7.91211H64.5487L59.4513 19.6764H61.2878L62.6831 16.4H67.8562L69.2257 19.6764ZM63.3506 14.8316L65.2941 10.27L67.2002 14.8294L63.3506 14.8316ZM84.6933 16.233H82.7662C82.4756 18.3991 80.6687 18.4514 79.7807 18.477C79.7623 18.4776 79.7441 18.4781 79.7266 18.4786H79.5949H79.4707H79.3444H79.2126C78.1442 18.463 77.3516 18.3403 76.8647 17.6965C76.4983 17.2097 76.3067 16.4223 76.3067 15.1565V12.7954C76.3067 11.5244 76.4983 10.736 76.8679 10.2492C77.3551 9.60958 78.1473 9.48892 79.2126 9.47228H79.3444H79.5949H79.7266L79.7441 9.47296C80.6159 9.50644 82.4718 9.5777 82.7684 11.7605H84.7029C84.4171 9.27258 82.3998 7.91211 79.5178 7.91211H79.4214C76.3048 7.91211 74.5616 9.56381 74.0187 11.7657C73.8162 12.4833 73.7169 13.2247 73.7242 13.9687C73.7185 14.6577 73.8016 15.3447 73.9715 16.0136C74.4642 18.2758 76.2116 20.044 79.4236 20.044H79.5197C82.4791 20.044 84.4097 18.6118 84.6933 16.233Z" fill="black"/>
</svg>
