<svg width="69" height="24" viewBox="0 0 69 24" fill="none" xmlns="http://www.w3.org/2000/svg">
<path d="M24.9232 24C23.1814 24 21.8475 23.5 20.9214 22.5C20.0174 21.5 19.5654 20.0889 19.5654 18.2667V5.73338C19.5654 3.9111 20.0174 2.50003 20.9214 1.50002C21.8475 0.500006 23.1814 0 24.9232 0C26.6652 0 27.988 0.500006 28.892 1.50002C29.8181 2.50003 30.2811 3.9111 30.2811 5.73338V8.20004H26.8415V5.49999C26.8415 4.05555 26.2352 3.33332 25.0225 3.33332C23.8098 3.33332 23.2035 4.05555 23.2035 5.49999V18.5334C23.2035 19.9555 23.8098 20.6667 25.0225 20.6667C26.2352 20.6667 26.8415 19.9555 26.8415 18.5334V14.9667H30.2811V18.2667C30.2811 20.0889 29.8181 21.5 28.892 22.5C27.988 23.5 26.6652 24 24.9232 24ZM32.458 0.33336H37.8488C39.723 0.33336 41.09 0.777794 41.9499 1.66666C42.8098 2.53333 43.2397 3.8778 43.2397 5.70001V7.13335C43.2397 9.55554 42.446 11.0889 40.8585 11.7334V11.8C41.7404 12.0667 42.3578 12.6111 42.7106 13.4333C43.0854 14.2555 43.2728 15.3556 43.2728 16.7334V20.8333C43.2728 21.5 43.2949 22.0444 43.339 22.4667C43.3831 22.8667 43.4933 23.2667 43.6697 23.6667H39.9655C39.8332 23.2889 39.745 22.9333 39.7009 22.6C39.6569 22.2667 39.6348 21.6667 39.6348 20.8V16.5334C39.6348 15.4667 39.4584 14.7222 39.1056 14.3C38.7749 13.8778 38.1906 13.6667 37.3527 13.6667H36.096V23.6667H32.458V0.33336ZM37.4189 10.3333C38.1465 10.3333 38.6867 10.1445 39.0395 9.76666C39.4143 9.3889 39.6013 8.75555 39.6013 7.86668V6.06667C39.6013 5.22221 39.4474 4.61112 39.1387 4.23336C38.8521 3.8556 38.389 3.66669 37.7496 3.66669H36.096V10.3333H37.4189ZM45.7969 0.33336H55.7187V3.66669H49.435V9.83333H54.4289V13.1667H49.435V20.3334H55.7187V23.6667H45.7969V0.33336ZM57.8118 0.33336H63.368C65.1755 0.33336 66.5321 0.822265 67.4359 1.80001C68.3396 2.77782 68.7918 4.21109 68.7918 6.10004V17.9C68.7918 19.7889 68.3396 21.2223 67.4359 22.2C66.5321 23.1778 65.1755 23.6667 63.368 23.6667H57.8118V0.33336ZM63.3018 20.3334C63.8969 20.3334 64.3491 20.1556 64.6578 19.8C64.9888 19.4444 65.1539 18.8667 65.1539 18.0667V5.93333C65.1539 5.13333 64.9888 4.55555 64.6578 4.19999C64.3491 3.84443 63.8969 3.66669 63.3018 3.66669H61.4498V20.3334H63.3018Z" fill="black"/>
<path fill-rule="evenodd" clip-rule="evenodd" d="M0 11.8771L7.28273 0L14.5655 11.8771L7.28273 23.7543L0 11.8771ZM3.64138 11.8771L7.28273 5.9385L10.9241 11.8771L7.28273 17.8158L3.64138 11.8771Z" fill="#000AFF"/>
</svg>
