<svg width="90" height="24" viewBox="0 0 90 24" fill="none" xmlns="http://www.w3.org/2000/svg">
<g clip-path="url(#clip0_1078_601)">
<path fill-rule="evenodd" clip-rule="evenodd" d="M72.6016 23.112C74.0692 23.7107 75.6424 24.0122 77.2288 23.9994C78.8152 24.0149 80.3896 23.7151 81.8584 23.1178C83.3278 22.5202 84.6622 21.6368 85.7842 20.5196C86.9068 19.4026 87.7937 18.0737 88.3943 16.611C88.9943 15.1483 89.296 13.5811 89.2804 12.0011C89.296 10.4209 88.9948 8.85342 88.3948 7.3905C87.7942 5.92758 86.9074 4.59853 85.7854 3.48108C84.6628 2.36365 83.3285 1.48027 81.8591 0.882654C80.3897 0.285029 78.8158 -0.0148495 77.2288 0.000565499C75.6424 -0.0122393 74.0698 0.28935 72.6016 0.887766C71.134 1.48619 69.8002 2.36946 68.6788 3.48616C67.5574 4.60284 66.67 5.93062 66.0688 7.39212C65.4676 8.8536 65.164 10.4197 65.1766 11.999C65.164 13.5785 65.467 15.1447 66.0676 16.6064C66.6688 18.0682 67.5562 19.3962 68.6782 20.5132C69.7996 21.63 71.1334 22.5136 72.6016 23.112ZM86.2252 11.999C86.2252 17.0987 82.3504 21.1217 77.2288 21.1217C72.139 21.1217 68.2642 17.1008 68.2642 11.999C68.2642 6.89706 72.139 2.87626 77.2288 2.87626C82.3504 2.87626 86.2252 6.89922 86.2252 11.999Z" fill="black"/>
<path d="M59.0746 23.4852H62.2073V5.11155C62.2055 3.84226 61.6979 2.62544 60.7967 1.72792C59.8956 0.8304 58.6736 0.325425 57.3988 0.32373C56.4864 0.326145 55.5935 0.585905 54.8234 1.07293C54.0532 1.55995 53.4375 2.25429 53.0475 3.0755L45.6108 18.8363C45.4746 19.1224 45.2601 19.3644 44.9916 19.5342C44.7231 19.7039 44.4119 19.7944 44.094 19.7954C43.8738 19.7954 43.6559 19.7524 43.4525 19.6685C43.2494 19.5847 43.0646 19.4617 42.9089 19.3069C42.7535 19.1518 42.6299 18.9679 42.5457 18.7656C42.4616 18.563 42.4184 18.3462 42.4184 18.1268V6.6648C42.4166 4.98353 41.745 3.37165 40.5512 2.18284C39.3573 0.994038 37.7385 0.325427 36.0501 0.32373C34.362 0.325991 32.744 0.994842 31.5504 2.1836C30.357 3.37234 29.6856 4.98391 29.6841 6.6648V23.4829H32.8168V6.6648C32.8179 5.81101 33.1588 4.9925 33.7649 4.3886C34.3709 3.78471 35.1927 3.44467 36.0501 3.44296C36.9078 3.4441 37.7302 3.78389 38.3367 4.38785C38.9433 4.9918 39.2846 5.81065 39.2856 6.6648V18.1268C39.2867 19.3964 39.7938 20.6136 40.6952 21.5112C41.5968 22.4088 42.8189 22.9136 44.094 22.9148C45.0063 22.9127 45.8993 22.653 46.6695 22.166C47.4396 21.6787 48.0554 20.9843 48.4452 20.163L55.8819 4.40224C56.0182 4.11622 56.233 3.87439 56.5013 3.70466C56.7698 3.53492 57.0808 3.44421 57.3988 3.44296C57.8429 3.44353 58.2689 3.61949 58.5831 3.93229C58.8971 4.24509 59.0739 4.66918 59.0746 5.11155V23.4852Z" fill="black"/>
<path d="M22.4312 0.334351H25.4673V23.4873H22.4312V0.334351Z" fill="black"/>
<path fill-rule="evenodd" clip-rule="evenodd" d="M19.1795 11.9097C19.1795 5.28883 13.9398 0.334351 6.80136 0.334351H0L2.8497e-06 23.4671H3.16674L6.80136 23.4873C13.9398 23.4873 19.1795 18.5306 19.1795 11.9097ZM3.16674 3.17159L6.80136 3.17158C12.4014 3.17158 16.1005 6.88906 16.1005 11.9097C16.1005 16.9304 12.4014 20.65 6.80136 20.65H3.16674V3.17159Z" fill="black"/>
</g>
<defs>
<clipPath id="clip0_1078_601">
<rect width="89.4" height="24" fill="white"/>
</clipPath>
</defs>
</svg>
