<svg width="96px" viewBox="0 0 751 201" fill="none" xmlns="http://www.w3.org/2000/svg"><path d="M287.334 0.813965H310.465V157.825H287.334V88.559H207.471V157.825H184.34V0.813965H207.471V67.7535H287.334V0.813965Z" fill="black"></path><path d="M431.162 107.814H351.687C353.496 128.619 365.127 141.283 382.185 141.283C395.754 141.283 403.249 135.985 407.126 123.45H429.353C424.7 146.323 409.452 160.151 382.314 160.151C349.103 160.151 328.943 139.345 328.943 101.998C328.943 65.6857 349.232 43.5879 380.893 43.5879C412.295 43.5879 431.679 62.3258 431.679 98.1217C431.679 101.352 431.42 104.583 431.162 107.814ZM352.463 90.4973H408.547C407.901 74.0855 398.597 62.5843 380.893 62.5843C366.29 62.455 355.693 72.9224 352.463 90.4973Z" fill="black"></path><path d="M547.08 82.8729V157.954H525.111V87.5251C525.111 80.8053 525.111 62.0674 501.979 62.0674C483.242 62.0674 470.836 75.507 470.836 101.352V157.954H448.867V45.914H469.673V63.7473C477.814 50.3077 493.45 43.7171 507.019 43.7171C531.831 43.5879 547.08 58.5783 547.08 82.8729Z" fill="black"></path><path d="M635.731 44.4923L634.826 67.107C631.596 66.5901 628.624 66.4609 625.651 66.4609C603.683 66.4609 594.508 80.0297 594.508 108.201V157.824H572.539V45.7846H593.345V70.4669C599.16 53.6674 612.082 43.4585 628.494 43.4585C630.82 43.5877 633.405 43.8462 635.731 44.4923Z" fill="black"></path><path d="M728.126 45.9144H750.095V148.65C750.095 184.446 731.874 200.599 697.5 200.599C669.586 200.599 651.753 187.159 649.686 163.64H672.3C674.368 175.917 683.414 182.12 698.662 182.12C717.142 182.12 728.255 172.169 728.255 148.65V137.278C719.727 149.296 704.995 155.499 692.072 155.499C667.39 155.499 652.141 140.508 652.141 116.214V45.7852H674.109V111.691C674.109 118.411 674.109 137.149 697.241 137.149C715.979 137.149 728.385 123.709 728.385 97.8636V45.9144H728.126Z" fill="black"></path><path d="M62.0891 0.813965L80.0517 79.3839L98.0142 157.825H62.0891H26.1641L44.1266 79.3839L62.0891 0.813965Z" fill="black"></path><path d="M124.249 157.824L92.2003 104.454L60.2812 51.083L87.2897 42.4248L114.169 33.7666L119.209 95.7955L124.249 157.824Z" fill="black"></path><path d="M0.0625 157.824L31.9816 104.454L63.9006 51.083L37.0214 42.4248L10.013 33.7666L4.97312 95.7955L0.0625 157.824Z" fill="black"></path></svg>
