<svg width="143" height="24" viewBox="0 0 143 24" fill="none" xmlns="http://www.w3.org/2000/svg">
<g clip-path="url(#clip0_1078_574)">
<path fill-rule="evenodd" clip-rule="evenodd" d="M23.9607 23.2058C24.36 23.1315 24.7655 23.0953 25.1716 23.0978H25.1749C25.7509 23.1033 26.2953 23.244 26.7796 23.8091L13.1433 0.190918L0 23.5222C1.78364 22.6462 4.21091 21.7942 7.272 22.3178C8.12291 22.464 8.61273 22.5731 8.94982 22.6484C9.52036 22.776 9.65891 22.8066 10.3767 22.7586C11.5222 22.6855 13.884 21.8095 15.0775 20.4C15.7985 19.5491 16.3102 20.4 16.7967 21.2084C17.1142 21.7375 17.4207 22.248 17.7676 22.2513C18.0731 22.2524 18.1331 22.1727 18.4135 21.7953L18.5335 21.6349C18.9229 21.12 20.4371 21.3753 21.072 23.1742C21.072 23.1742 21.1462 22.3756 22.0211 22.3582C22.5513 22.3473 22.788 22.6724 22.9811 22.9364C23.1055 23.1076 23.2102 23.2527 23.3662 23.2636C23.5375 23.2767 23.7262 23.2451 23.9607 23.2058ZM42.5684 12.8356V17.5789H43.9396V7.0331H42.5684V11.6476H37.4651V7.0331H36.0938V17.5822H37.4651V12.8367H42.5684V12.8356ZM53.832 17.7578C56.3193 17.7578 57.8051 16.3069 57.8051 13.8895V7.0331H56.4338V13.7858C56.4338 15.4571 55.4487 16.452 53.832 16.452C52.2142 16.452 51.2433 15.4549 51.2433 13.7858V7.0331H49.872V13.8895C49.872 16.3069 51.3447 17.7578 53.832 17.7578ZM65.0651 17.5811V10.5186L68.4087 14.6782L71.7687 10.5186V17.5789H73.0974V6.85746H73.0833L68.4087 12.7015L63.7505 6.85746H63.7374V17.5811H65.0651ZM94.1051 10.2873L100.823 17.7578V17.7546H100.836V7.0331H99.4647V14.328L92.7469 6.85746H92.7338V17.5811H94.1051V10.2873ZM116.745 12.3098C116.745 9.21928 114.416 6.86074 111.47 6.86074C108.481 6.86074 106.196 9.21928 106.196 12.3098C106.196 15.4015 108.483 17.76 111.47 17.76C114.456 17.76 116.745 15.4015 116.745 12.3098ZM115.343 12.3098C115.343 14.6967 113.701 16.4553 111.47 16.4553C109.241 16.4553 107.583 14.6978 107.583 12.3098C107.583 9.92401 109.241 8.16546 111.47 8.16546C113.698 8.16546 115.343 9.92292 115.343 12.3098ZM122.103 7.0331V17.5822H125.12C128.392 17.5822 130.567 15.4713 130.567 12.3076C130.567 9.14401 128.365 7.0331 125.063 7.0331H122.103ZM123.476 16.3964V8.22546H125.047C127.517 8.22546 129.161 9.86619 129.161 12.3109C129.161 14.7567 127.534 16.3975 125.103 16.3975H123.476V16.3964ZM135.925 7.0331V17.5735H142.457V16.3876H137.297V12.8313H141.47V11.6455H137.297V8.21892H142.241V7.0331H135.925ZM79.1542 16.2229L82.8938 9.58801L86.6324 16.2229L88.9342 17.5844L82.8938 6.86292L76.8524 17.5844L79.1542 16.2229Z" fill="black"/>
</g>
<defs>
<clipPath id="clip0_1078_574">
<rect width="142.909" height="24" fill="white"/>
</clipPath>
</defs>
</svg>
