<svg width="189" height="40" viewBox="0 0 189 40" fill="none" xmlns="http://www.w3.org/2000/svg">
<circle cx="21.0343" cy="3.69991" r="3.33333" transform="rotate(15 21.0343 3.69991)" fill="#080B12"/>
<circle cx="18.1226" cy="14.5666" r="3.33333" transform="rotate(15 18.1226 14.5666)" fill="#080B12"/>
<circle cx="26.0777" cy="28.3452" r="3.33333" transform="rotate(15 26.0777 28.3452)" fill="#080B12"/>
<circle cx="7.25595" cy="11.655" r="3.33333" transform="rotate(15 7.25595 11.655)" fill="#080B12"/>
<circle cx="15.211" cy="25.4333" r="3.33333" transform="rotate(15 15.211 25.4333)" fill="#080B12"/>
<circle cx="12.2989" cy="36.3" r="3.33333" transform="rotate(15 12.2989 36.3)" fill="#080B12"/>
<path d="M41.667 14.4436H45.2423V33.0374H41.667V14.4436Z" fill="#080B12"/>
<path d="M48.4189 14.4437H51.9942V17.723C52.9962 15.4002 55.2052 14.1477 57.972 14.1477C62.1736 14.1477 64.9063 17.1765 64.9063 21.6057V33.0489H61.331V22.3117C61.331 19.3626 59.6003 17.37 56.9814 17.37C54.0665 17.37 51.9942 19.727 51.9942 22.9835V33.0603H48.4189V14.4437Z" fill="#080B12"/>
<path d="M70.3714 17.552H66.5684V14.455H70.3714V12.6445C70.3714 8.98955 72.7739 6.66675 76.4972 6.66675H79.5601V9.76381H76.7591C75.0625 9.76381 73.9581 10.9024 73.9581 12.7584V14.455H79.5715V17.552H73.9581V33.0487H70.3828V17.552H70.3714Z" fill="#080B12"/>
<path d="M97.6414 26.9909C96.981 30.8281 93.622 33.3331 89.0448 33.3331C83.2833 33.3331 79.708 28.79 79.708 23.632C79.708 18.474 82.9531 14.1472 88.6804 14.1472C94.4077 14.1472 97.5048 18.2463 97.5048 22.9716C97.5048 23.4498 97.4706 24.0419 97.4364 24.3721H83.2264C83.5224 27.8791 85.8111 30.2816 89.0561 30.2816C91.7889 30.2816 93.5537 29.0974 94.0775 27.0023H97.6528L97.6414 26.9909ZM83.3288 21.7532H93.8839C93.6676 18.9067 91.7433 17.0279 88.6804 17.0279C85.6175 17.0279 83.8868 18.6562 83.3288 21.7532Z" fill="#080B12"/>
<path d="M108.527 17.5521C105.134 17.5521 104.029 20.5808 104.029 24.6343V33.0488H100.454V14.4436H104.029V18.0189C104.883 15.5481 106.352 14.4436 108.971 14.4436H111.226V17.5407H108.527V17.5521Z" fill="#080B12"/>
<path d="M129.569 26.9909C128.909 30.8281 125.55 33.3331 120.972 33.3331C115.211 33.3331 111.636 28.79 111.636 23.632C111.636 18.474 114.881 14.1472 120.608 14.1472C126.335 14.1472 129.432 18.2463 129.432 22.9716C129.432 23.4498 129.398 24.0419 129.364 24.3721H115.154C115.45 27.8791 117.739 30.2816 120.984 30.2816C123.717 30.2816 125.481 29.0974 126.005 27.0023H129.581L129.569 26.9909ZM115.245 21.7532H125.8C125.584 18.9067 123.66 17.0279 120.597 17.0279C117.534 17.0279 115.803 18.6562 115.245 21.7532Z" fill="#080B12"/>
<path d="M131.903 14.4433H135.478V17.7225C136.48 15.3997 138.689 14.1472 141.456 14.1472C145.657 14.1472 148.39 17.176 148.39 21.6052V33.0484H144.815V22.3112C144.815 19.3621 143.084 17.3695 140.465 17.3695C137.55 17.3695 135.478 19.7265 135.478 22.983V33.0598H131.903V14.4433Z" fill="#080B12"/>
<path d="M150.748 23.7458C150.748 18.622 154.106 14.1472 159.97 14.1472C164.32 14.1472 168.089 16.7319 168.601 20.9334H165.026C164.696 18.827 162.555 17.2784 160.039 17.2784C156.315 17.2784 154.471 20.1592 154.471 23.7345C154.471 27.3098 156.35 30.1905 160.039 30.1905C162.589 30.1905 164.468 28.8583 165.06 26.7632H168.601C168.009 30.6801 164.684 33.3331 159.97 33.3331C154.106 33.3331 150.748 28.8697 150.748 23.7345V23.7458Z" fill="#080B12"/>
<path d="M188.163 26.9914C187.502 30.8286 184.144 33.3336 179.566 33.3336C173.805 33.3336 170.229 28.7905 170.229 23.6325C170.229 18.4745 173.475 14.1477 179.202 14.1477C184.929 14.1477 188.026 18.2468 188.026 22.9721C188.026 23.4503 187.992 24.0424 187.958 24.3726H173.748C174.044 27.8796 176.333 30.2821 179.578 30.2821C182.31 30.2821 184.075 29.0979 184.599 27.0028H188.174L188.163 26.9914ZM173.839 21.7537H184.394C184.178 18.9072 182.253 17.0284 179.19 17.0284C176.128 17.0284 174.397 18.6567 173.839 21.7537Z" fill="#080B12"/>
</svg>
