<svg width="48" height="24" viewBox="0 0 48 24" fill="none" xmlns="http://www.w3.org/2000/svg">
<g clip-path="url(#clip0_1079_689)">
<path d="M5.04 0H0V16.8H5.04V0ZM41.748 6H37.9344C37.6212 6 37.3416 5.7708 37.3116 5.4588C37.3034 5.37542 37.3128 5.29126 37.3392 5.21173C37.3655 5.13219 37.4081 5.05905 37.4644 4.997C37.5207 4.93495 37.5894 4.88536 37.666 4.85144C37.7426 4.81751 37.8254 4.79999 37.9092 4.8H45.9492V0H37.6692C36.1068 0 34.7004 0.6636 33.714 1.7244C33.6432 1.8012 33.5196 1.7184 33.5604 1.6224C33.792 1.074 34.02 0.5316 34.2444 0H29.0364L24.9228 10.2624L20.808 0H11.64C8.658 0 6.24 2.418 6.24 5.4V16.8H11.28V5.4288C11.28 5.082 11.562 4.8 11.9088 4.8H17.6136C19.6572 9.6768 22.302 16.002 22.302 16.002C21.0396 19.008 19.9188 21.6804 18.948 24H24.1524C26.5188 18.3516 29.3664 11.5764 31.9956 5.3352C32.0556 5.1924 32.268 5.2356 32.268 5.3904V5.4C32.268 8.382 34.686 10.8 37.668 10.8H41.4828C41.796 10.8 42.0756 11.0292 42.1056 11.3412C42.1138 11.4246 42.1044 11.5087 42.078 11.5883C42.0517 11.6678 42.009 11.741 41.9528 11.803C41.8965 11.8651 41.8278 11.9146 41.7512 11.9486C41.6746 11.9825 41.5918 12 41.508 12H32.748V16.8H41.748C44.73 16.8 47.148 14.382 47.148 11.4C47.148 8.418 44.73 6 41.748 6Z" fill="black"/>
</g>
<defs>
<clipPath id="clip0_1079_689">
<rect width="47.16" height="24" fill="white"/>
</clipPath>
</defs>
</svg>
