<svg width="144" height="24" viewBox="0 0 144 24" fill="none" xmlns="http://www.w3.org/2000/svg">
<g clip-path="url(#clip0_1078_566)">
<path d="M143.928 15.8466C143.928 16.6593 143.728 17.4022 143.329 18.0764C142.936 18.7375 142.382 19.2881 141.719 19.6767C141.048 20.077 140.28 20.2846 139.499 20.2767H127.924V17.3236H139.499C139.905 17.3236 140.253 17.1786 140.542 16.8895C140.831 16.6004 140.975 16.2524 140.975 15.8466C140.975 15.4407 140.831 15.0938 140.542 14.8036C140.407 14.6641 140.245 14.5537 140.065 14.4792C139.886 14.4047 139.693 14.3677 139.499 14.3706H128.141V11.4175H139.499C139.905 11.4175 140.253 11.2735 140.542 10.9844C140.831 10.6942 140.975 10.344 140.975 9.93056C140.975 9.52474 140.831 9.17783 140.542 8.88765C140.407 8.74809 140.245 8.63767 140.065 8.56318C139.886 8.4887 139.693 8.45173 139.499 8.45456H127.924V5.50146H139.499C140.311 5.50146 141.05 5.7011 141.719 6.10037C142.384 6.49076 142.939 7.04511 143.329 7.71056C143.729 8.38134 143.936 9.14954 143.928 9.93056C143.928 10.5022 143.828 11.0389 143.628 11.5407C143.432 12.0377 143.149 12.4958 142.792 12.8935C143.15 13.2861 143.433 13.7409 143.628 14.2353C143.828 14.7382 143.928 15.2749 143.928 15.8466ZM112.67 15.3513V20.2756H109.718V5.50146H120.177C121.085 5.50146 121.911 5.7251 122.654 6.17237C123.398 6.6131 123.989 7.20874 124.43 7.95819C124.877 8.70219 125.101 9.52474 125.101 10.4258C125.112 11.3598 124.846 12.276 124.337 13.0593C123.851 13.8299 123.161 14.4516 122.344 14.856L125.225 20.2244H121.87L119.258 15.3513H112.67ZM112.67 8.45456V12.3982H120.177C120.72 12.3982 121.185 12.2051 121.571 11.82C121.956 11.4349 122.149 10.9691 122.149 10.4258C122.149 9.88256 121.956 9.41783 121.571 9.03274C121.39 8.84636 121.173 8.69891 120.934 8.59948C120.694 8.50005 120.436 8.45073 120.177 8.45456H112.67ZM93.2225 20.2756H90.2695V5.50146H106.521V8.45456H93.2225V11.4175H103.568V14.3706H93.2225V17.3236H106.521V20.2756H93.2225ZM80.2102 20.2756H77.2582V14.5047L69.9273 5.50146H73.7367L78.8062 11.7273L83.8756 5.50146H87.6862L80.2102 14.6902V20.2756ZM58.4978 17.8189L57.1756 20.2756H53.82L61.7705 5.50146H64.8676L72.8171 20.2756H69.4625L68.1404 17.8189H58.4978ZM63.3196 8.86692L60.0873 14.856H66.5509L63.3196 8.86692ZM36 5.50146H38.9531V17.3236H51.7549L50.1316 20.2756H36V5.50146ZM7.18715e-07 15.3098C0.000289359 15.0903 0.0876175 14.8799 0.242835 14.7247C0.398053 14.5694 0.60849 14.4821 0.828001 14.4818H10.3451V24H0.828001C0.719174 24 0.611415 23.9786 0.510887 23.9369C0.410358 23.8952 0.319031 23.8341 0.24213 23.7571C0.165229 23.6801 0.104262 23.5887 0.0627151 23.4881C0.0211684 23.3875 -0.000142663 23.2797 7.18715e-07 23.1709V15.3098Z" fill="black"/>
<path d="M10.345 14.4818H23.1708C23.629 14.4818 23.9988 14.8527 23.9988 15.3098V23.172C23.9985 23.3915 23.9112 23.6019 23.7559 23.7572C23.6007 23.9124 23.3903 23.9997 23.1708 24H20.065C19.61 24 19.1748 23.8124 18.8628 23.4818L10.3428 14.4818H10.345Z" fill="black"/>
<path d="M0 0.828C0 0.369818 0.370909 0 0.828 0H9.51709C9.97527 0 10.3451 0.370909 10.3451 0.828V14.4829L0.474545 4.43236C0.17049 4.12295 8.01627e-05 3.70653 0 3.27273L0 0.828Z" fill="black"/>
</g>
<defs>
<clipPath id="clip0_1078_566">
<rect width="144" height="24" fill="white"/>
</clipPath>
</defs>
</svg>
