<svg width="116" height="24" viewBox="0 0 116 24" fill="none" xmlns="http://www.w3.org/2000/svg">
<g clip-path="url(#clip0_1079_630)">
<path fill-rule="evenodd" clip-rule="evenodd" d="M24.0997 1.47019C21.2684 -1.70877 14.1865 0.415661 7.62836 6.41951C1.07019 12.4234 -1.73828 19.3509 1.10055 22.5298C1.58674 23.0331 2.17373 23.4247 2.82189 23.6784C3.47005 23.932 4.16432 24.0417 4.85784 24C7.78018 24 11.6361 22.3528 15.4845 19.3432C15.9039 18.9928 16.3898 18.7334 16.912 18.5811C17.4343 18.4289 17.9818 18.387 18.5207 18.458C19.7063 18.7591 20.7863 19.3879 21.6404 20.2745C21.681 20.3165 21.7328 20.3454 21.7895 20.3577C21.8462 20.37 21.9052 20.3652 21.9592 20.3438C21.9908 20.2975 22.0078 20.2424 22.0078 20.186C22.0078 20.1296 21.9908 20.0746 21.9592 20.0282C20.4411 17.111 20.98 14.6402 23.0522 12.2925C23.0992 12.2497 23.1295 12.1913 23.1379 12.1278C23.1462 12.0643 23.132 11.9999 23.0977 11.9461C23.0563 11.8955 22.9983 11.8614 22.9343 11.8502C22.8704 11.8389 22.8045 11.8511 22.7486 11.8846C19.9629 13.2547 17.4352 13.0545 15.1202 10.7838C15.0817 10.741 15.0307 10.7119 14.9746 10.7008C14.9186 10.6897 14.8604 10.6973 14.8089 10.7223H14.7482C14.7113 10.7708 14.6913 10.8303 14.6913 10.8916C14.6913 10.9529 14.7113 11.0124 14.7482 11.0609C16.0158 13.5395 15.5908 16.0872 14.6723 17.2187C9.32104 21.5908 4.18987 22.8454 2.66419 21.1289C0.994283 19.2585 3.21072 13.4317 9.0402 8.1206C14.8697 2.80951 20.7827 1.1469 22.445 3.00964C23.371 4.05646 23.0674 6.36563 21.648 9.05196C21.5217 9.30825 21.499 9.60435 21.5847 9.87735C21.6703 10.1503 21.8575 10.3787 22.1065 10.514C22.3555 10.6493 22.6467 10.6808 22.9182 10.6018C23.1898 10.5229 23.4203 10.3396 23.5608 10.0911C25.5267 6.38872 25.7089 3.27134 24.0997 1.47019ZM17.9514 18.4041C18.1429 18.4262 18.333 18.4597 18.5207 18.5042L17.9514 18.4041Z" fill="url(#paint0_linear_1079_630)"/>
</g>
<g clip-path="url(#clip1_1079_630)">
<path d="M37.4474 18.3774C36.5972 18.3842 35.754 18.2203 34.9668 17.8953C34.2058 17.5721 33.5172 17.0968 32.9423 16.498C32.3607 15.8961 31.9027 15.1837 31.5949 14.402C30.9501 12.7258 30.9501 10.8661 31.5949 9.18994C31.9021 8.40783 32.3601 7.69534 32.9423 7.09395C33.5169 6.50664 34.2033 6.04318 34.9599 5.73156C35.7506 5.41082 36.5956 5.24943 37.4474 5.25648C38.3008 5.24712 39.1472 5.41351 39.9349 5.74554C40.6936 6.05936 41.3827 6.52321 41.9617 7.10988C42.5407 7.69655 42.9981 8.39423 43.3069 9.162C43.9718 10.8343 43.9718 12.7017 43.3069 14.374C42.9883 15.1584 42.5185 15.8709 41.9249 16.47C41.3513 17.0672 40.6653 17.5423 39.9073 17.8673C39.1286 18.1998 38.2926 18.3731 37.4474 18.3774ZM37.4474 16.8333C38.0984 16.8431 38.7439 16.7121 39.3407 16.449C39.9049 16.2026 40.4111 15.8383 40.8263 15.3801C41.2518 14.9193 41.5829 14.3779 41.8006 13.7871C42.2614 12.539 42.2614 11.1647 41.8006 9.91655C41.5813 9.32868 41.2503 8.78989 40.8263 8.33059C40.4111 7.87238 39.9049 7.5081 39.3407 7.26163C38.7434 7.00799 38.1021 6.87735 37.4543 6.87735C36.8065 6.87735 36.1652 7.00799 35.568 7.26163C35.0048 7.50992 34.4989 7.87395 34.0824 8.33059C33.6609 8.79316 33.3282 9.33096 33.1012 9.91655C32.6315 11.163 32.6315 12.5406 33.1012 13.7871C33.3266 14.3757 33.6594 14.916 34.0824 15.3801C34.5016 15.8267 35.0073 16.181 35.568 16.4211C36.1582 16.6924 36.799 16.833 37.4474 16.8333Z" fill="black"/>
<path d="M46.5889 18.1747V5.54291H50.6794C51.8275 5.51523 52.9638 5.78204 53.9823 6.31842C54.9034 6.82244 55.6614 7.58407 56.1657 8.51222C56.6704 9.54781 56.9329 10.6869 56.9329 11.8414C56.9329 12.9959 56.6704 14.1349 56.1657 15.1705C55.6643 16.1061 54.906 16.8753 53.9823 17.3852C52.9661 17.9294 51.829 18.2012 50.6794 18.1747H46.5889ZM48.2334 16.6447H50.6932C51.5351 16.6685 52.3679 16.4634 53.1047 16.0508C53.7773 15.6606 54.3224 15.0802 54.6732 14.381C55.0575 13.5932 55.2471 12.723 55.226 11.8448C55.2497 10.9626 55.0549 10.0884 54.6594 9.30171C54.3035 8.60928 53.7561 8.03641 53.084 7.65287C52.3522 7.24759 51.5274 7.04512 50.6932 7.066H48.2334V16.6447Z" fill="black"/>
<path d="M62.3499 18.1747V12.3898L58.0244 5.54291H59.89L63.5176 11.2859H62.8267L66.4335 5.54291H68.2922L64.0013 12.3898V18.1747H62.3499Z" fill="black"/>
<path d="M75.0918 18.3773C74.3432 18.3845 73.6016 18.2322 72.9152 17.9302C72.2754 17.6457 71.7029 17.2265 71.2361 16.7005C70.7863 16.197 70.4493 15.6012 70.248 14.9539L71.6714 14.36C71.9358 15.1102 72.4174 15.7626 73.0534 16.2324C73.6596 16.6641 74.3849 16.8915 75.1263 16.8822C75.5685 16.8922 76.008 16.8114 76.4184 16.6446C76.7668 16.5007 77.0667 16.2581 77.2821 15.946C77.4914 15.6538 77.6006 15.3006 77.5931 14.9399C77.6041 14.7096 77.5701 14.4794 77.493 14.2624C77.416 14.0454 77.2973 13.8459 77.1439 13.6753C76.7813 13.328 76.3324 13.0866 75.8449 12.9767L73.5509 12.278C72.7416 12.0533 72.0188 11.5855 71.478 10.9366C71.0545 10.3809 70.8062 9.70918 70.7655 9.00885C70.7248 8.30852 70.8937 7.61204 71.25 7.01008C71.5912 6.4788 72.0689 6.05133 72.6319 5.77345C73.2549 5.46393 73.9417 5.30829 74.6357 5.31932C75.3479 5.30574 76.0546 5.44628 76.7087 5.73153C77.2944 5.98484 77.8233 6.35561 78.2633 6.82144C78.6796 7.27368 78.9974 7.80922 79.1961 8.39343L77.8142 8.9873C77.5993 8.3344 77.1807 7.76963 76.6213 7.37782C76.0618 6.98602 75.3918 6.78833 74.7117 6.81446C74.304 6.80643 73.8991 6.88497 73.5232 7.04502C73.2032 7.18195 72.9295 7.41015 72.7356 7.70176C72.5493 8.0108 72.4534 8.36691 72.4592 8.72879C72.4532 9.18041 72.6076 9.61919 72.8945 9.96542C73.2159 10.3652 73.6421 10.6654 74.1244 10.8318L76.1973 11.4606C77.042 11.685 77.8109 12.1364 78.4223 12.7671C78.9306 13.3422 79.2025 14.092 79.1823 14.863C79.1927 15.5137 79.0072 16.1521 78.6503 16.6935C78.286 17.2368 77.7818 17.6693 77.1923 17.9441C76.5309 18.239 75.8146 18.3868 75.0918 18.3773Z" fill="black"/>
<path d="M87.2876 18.3773C86.5391 18.3839 85.7976 18.2316 85.111 17.9302C84.4721 17.6441 83.9 17.2251 83.4319 16.7005C82.9846 16.1952 82.6478 15.6 82.4438 14.9539L83.8672 14.36C84.1297 15.1113 84.6116 15.7642 85.2492 16.2324C85.8547 16.6654 86.5805 16.8929 87.3221 16.8822C87.7643 16.893 88.2041 16.8122 88.6142 16.6447C88.9639 16.5028 89.2643 16.2598 89.4779 15.946C89.6872 15.6538 89.7964 15.3006 89.7889 14.9399C89.8012 14.7101 89.7685 14.48 89.6926 14.263C89.6167 14.046 89.4991 13.8463 89.3466 13.6753C88.9811 13.3322 88.5334 13.0914 88.0476 12.9767L85.7467 12.278C84.9382 12.0513 84.2159 11.5839 83.6738 10.9366C83.2129 10.3385 82.969 9.59862 82.9828 8.84058C82.9704 8.19781 83.1407 7.56495 83.4734 7.01708C83.8146 6.48579 84.2923 6.05834 84.8553 5.78045C85.4805 5.47011 86.1697 5.31445 86.866 5.32631C87.5643 5.31762 88.2566 5.45809 88.8975 5.73853C89.4842 5.99011 90.0134 6.36111 90.4522 6.82844C90.8704 7.28042 91.1906 7.81589 91.3919 8.40043L90.01 8.99429C89.7951 8.34139 89.3765 7.77662 88.8171 7.38482C88.2576 6.99301 87.5875 6.79532 86.9075 6.82145C86.5019 6.81273 86.0992 6.89132 85.726 7.05201C85.4037 7.1853 85.129 7.4143 84.9382 7.70876C84.7491 8.01653 84.653 8.37352 84.6618 8.73579C84.6559 9.1874 84.8103 9.6262 85.0972 9.97242C85.426 10.3751 85.8626 10.6734 86.3547 10.8318L88.4276 11.4606C89.2742 11.6854 90.0451 12.1368 90.6595 12.7671C91.166 13.3429 91.4354 14.0928 91.4126 14.8631C91.4221 15.5125 91.2392 16.15 90.8875 16.6936C90.5205 17.2371 90.0141 17.6694 89.4226 17.9442C88.751 18.2453 88.0221 18.3932 87.2876 18.3773Z" fill="black"/>
<path d="M95.2266 18.1747V5.54291H103.359V7.066H96.8642V11.0693H103.021V12.5924H96.8642V16.6447H103.359V18.1747H95.2266Z" fill="black"/>
<path d="M109.896 18.1747V12.3898L105.57 5.54291H107.429L111.057 11.2859H110.366L113.966 5.54291H115.859L111.568 12.3898V18.1747H109.896Z" fill="black"/>
</g>
<defs>
<linearGradient id="paint0_linear_1079_630" x1="21.9259" y1="15.1111" x2="-0.0308727" y2="9.99217" gradientUnits="userSpaceOnUse">
<stop stop-color="#FE02B9"/>
<stop offset="0.513944" stop-color="#9A53FF"/>
<stop offset="1" stop-color="#0075FF"/>
</linearGradient>
<clipPath id="clip0_1079_630">
<rect width="25.1852" height="24" fill="white"/>
</clipPath>
<clipPath id="clip1_1079_630">
<rect width="84.7407" height="13.037" fill="white" transform="translate(31.1113 5.33331)"/>
</clipPath>
</defs>
</svg>
