<svg width="97" height="24" viewBox="0 0 97 24" fill="none" xmlns="http://www.w3.org/2000/svg">
<path d="M15.8121 0.510068V4.99329C15.8121 6.44295 14.6174 7.62416 13.1275 7.62416H13.0872C12.349 7.62416 11.6779 7.62416 11.6779 7.62416C11.557 7.62416 11.4094 7.61074 11.2886 7.62416C10.4564 7.7047 9.73154 8.08054 9.12752 8.73825C9.11409 8.75168 9.08725 8.77853 9.07383 8.79195C8.57718 9.4094 8.30872 10.2148 8.30872 11.0872V11.1275C8.30872 11.6913 8.42953 12.2148 8.64429 12.698C8.85906 13.1812 8.75168 13.7315 8.33557 14.0671C7.93289 14.3893 7.46309 14.7785 7.14094 15.0336C6.21476 14 5.67785 12.6577 5.67785 11.1812V11.1409C5.67785 7.94631 8.28188 5.27517 11.8255 5.27517C12.0403 5.27517 12.7651 5.27517 13.1007 5.27517V0.0402689C12.8188 0.0134232 12.5235 0 12.2282 0C5.47651 0 0 5.36913 0 12.0134C0 17.4362 3.65101 22.0134 8.67114 23.5034V19.0336C8.67114 17.5705 9.8792 16.3758 11.3826 16.3758H11.396C12.1342 16.3758 12.8054 16.3758 12.8054 16.3758C12.9262 16.3758 13.0738 16.3893 13.1946 16.3758C14.0268 16.2953 14.7517 15.9195 15.3557 15.2617C15.3691 15.2483 15.396 15.2215 15.4094 15.2081C15.906 14.5906 16.1745 13.7852 16.1745 12.9128V12.8725C16.1745 12.443 15.9866 11.8523 15.7987 11.3826C15.5839 10.8591 15.745 10.255 16.1879 9.89262C16.5638 9.58389 16.953 9.27517 17.3289 8.96644C18.255 10 18.7919 11.3423 18.7919 12.8188V12.8591C18.7919 16.0537 16.1879 18.7248 12.6443 18.7248C12.4161 18.7248 11.7047 18.7248 11.3691 18.7248V23.9597C11.651 23.9866 11.9463 24 12.2416 24C18.9933 24 24.4698 18.6309 24.4698 11.9866C24.4832 6.57718 20.8322 2 15.8121 0.510068Z" fill="#1D8AED"/>
<path d="M87.9195 10.3791V22.1208C89.8472 22.1208 91.4094 20.5907 91.4094 18.6948V6.95303C89.4816 6.95303 87.9195 8.48311 87.9195 10.3791Z" fill="#1D1D1B"/>
<path d="M81.4765 5.47652H93.2176C95.1828 5.47652 96.7785 3.91612 96.7785 1.98658H85.0375C83.0554 1.98658 81.4765 3.54699 81.4765 5.47652Z" fill="#1D1D1B"/>
<path d="M40.309 1.98658C39.9043 2.28709 39.331 2.75456 38.8252 3.17193C38.235 3.65609 38.0495 4.45745 38.353 5.15864C38.606 5.75966 38.7577 6.44416 38.7577 7.14535V7.19544C38.7577 8.3474 38.4036 9.41588 37.746 10.2339C37.7291 10.2506 37.7291 10.2506 37.7123 10.2673C36.886 11.1689 35.908 11.6697 34.7783 11.7866C34.6097 11.8033 34.4242 11.7866 34.2556 11.7866C34.2556 11.7866 33.3619 11.7866 32.367 11.7866H32.3502C30.3436 11.7866 28.7248 13.3559 28.7248 15.3092V22.1208C30.7145 22.1208 32.3333 20.5515 32.3333 18.6149V14.9085C32.7886 14.9085 33.7497 14.9085 34.0532 14.9085C38.7914 14.9085 42.2819 11.3692 42.2819 7.12866V7.07857C42.265 5.12525 41.5399 3.33888 40.309 1.98658Z" fill="#1D1D1B"/>
<path d="M68.9933 1.98658V19.2493C68.9933 20.8353 67.6168 22.1208 65.9267 22.1208H65.3691V4.87483C65.3691 3.2888 66.7282 2.00328 68.4183 2.00328H68.9933V1.98658Z" fill="#1D1D1B"/>
<path d="M43.3568 12.1124C43.2899 16.5382 46.3646 20.5282 50.609 21.8358C50.9933 21.9532 51.3776 22.0538 51.7787 22.1208C51.7954 22.1208 51.7954 22.1208 51.7954 22.104L51.8121 20.1091V20.042C51.8121 19.3547 51.4277 18.7512 50.8596 18.4326C50.7928 18.3991 50.7259 18.3656 50.6257 18.3153C49.0549 17.6112 47.8685 16.3371 47.1834 14.7612C45.763 11.4586 47.3171 7.40162 50.6257 5.92634C50.7092 5.89281 50.7761 5.85928 50.8596 5.80899C51.4277 5.4737 51.7954 4.88695 51.8121 4.1996V4.13255L51.7954 2.13757C51.7954 2.13757 51.7954 2.12081 51.7787 2.12081C51.3943 2.18787 50.9933 2.28846 50.609 2.40581C46.3646 3.71343 43.2899 7.70338 43.3568 12.1292V12.1124Z" fill="#1D1D1B"/>
<path d="M63.7573 12.1124C63.8252 16.5382 60.7017 20.5282 56.39 21.8358C55.9996 21.9532 55.6091 22.0538 55.2017 22.1208C55.1848 22.1208 55.1848 22.1208 55.1848 22.104L55.1678 20.1091V20.042C55.1678 19.3547 55.5582 18.7512 56.1354 18.4326C56.2033 18.3991 56.2712 18.3656 56.373 18.3153C57.9687 17.6112 59.174 16.3371 59.87 14.7612C61.3129 11.4586 59.7342 7.40162 56.373 5.92634C56.2882 5.89281 56.2203 5.85928 56.1354 5.80899C55.5582 5.4737 55.1848 4.88695 55.1678 4.1996V4.13255L55.1848 2.13757C55.1848 2.13757 55.1848 2.12081 55.2017 2.12081C55.5922 2.18787 55.9996 2.28846 56.39 2.40581C60.7017 3.71343 63.8252 7.70338 63.7573 12.1292V12.1124Z" fill="#1D1D1B"/>
<path d="M71.3781 12.8474C71.0956 12.3461 71.0624 11.7446 71.295 11.2266L75.8311 3.60735C76.2963 2.62152 77.2933 1.98658 78.4065 1.98658H80.4004L80.1844 2.47114L74.8175 12.0621L81.8792 22.1208H79.4035C78.3899 22.1208 77.4594 21.5861 76.9443 20.7173L71.3781 12.8474Z" fill="#1D1D1B"/>
</svg>
