<svg width="113" height="24" viewBox="0 0 113 24" fill="none" xmlns="http://www.w3.org/2000/svg">
<g clip-path="url(#clip0_1079_625)">
<path d="M19.9584 10.434C19.8611 10.1733 19.6118 10 19.3331 10H11.2831L15.9264 0.972C16.0724 0.688 15.9971 0.340667 15.7458 0.143333C15.6244 0.0473333 15.4784 0 15.3331 0C15.1778 0 15.0225 0.0546667 14.8978 0.162L9.99982 4.392L0.231223 12.8287C0.0205576 13.0107 -0.0554419 13.3047 0.0418908 13.5653C0.139223 13.826 0.387888 14 0.666553 14H8.7165L4.0732 23.028C3.9272 23.312 4.00253 23.6593 4.25386 23.8567C4.37519 23.9527 4.52119 24 4.66652 24C4.82186 24 4.97719 23.9453 5.10186 23.838L9.99982 19.608L19.7684 11.1713C19.9798 10.9893 20.0551 10.6953 19.9584 10.434Z" fill="#FFAC33"/>
<path d="M31.1775 17.1284C32.4085 17.1284 33.4097 16.8235 34.181 16.2137C34.9523 15.5962 35.338 14.7675 35.338 13.7279C35.3302 12.1409 34.4186 11.1325 32.6033 10.7026L30.3595 10.1749C29.6271 9.97946 29.2609 9.65114 29.2609 9.18992C29.2609 8.79124 29.4284 8.48636 29.7635 8.2753C30.0985 8.06423 30.4958 7.9587 30.9555 7.9587C32.0073 7.9587 32.654 8.34956 32.8955 9.13129H35.2445C35.0497 8.14631 34.5939 7.37631 33.8772 6.82128C33.1604 6.26625 32.206 5.98874 31.0139 5.98874C29.8219 5.98874 28.848 6.30534 28.0923 6.93854C27.3365 7.57174 26.9587 8.3691 26.9587 9.33063C26.9587 10.8706 27.8352 11.8478 29.5882 12.2621L31.7969 12.7898C32.2488 12.8992 32.5683 13.0399 32.7552 13.2119C32.9422 13.3839 33.0357 13.6419 33.0357 13.9858C33.0357 14.3376 32.8721 14.6229 32.5449 14.8418C32.2177 15.0607 31.7775 15.1701 31.2243 15.1701C30.0868 15.1701 29.3817 14.7206 29.109 13.8217H26.6665C26.8223 14.8379 27.3054 15.6431 28.1156 16.2372C28.9259 16.8313 29.9466 17.1284 31.1775 17.1284ZM40.0638 16.7958V9.84676C40.1883 9.3432 40.4565 8.93648 40.8687 8.6266C41.2808 8.31672 41.7863 8.16178 42.3851 8.16178C42.9839 8.16178 43.4504 8.35158 43.7848 8.73119C44.1192 9.11079 44.2864 9.64146 44.2864 10.3232V16.7958H46.6776V9.91648C46.6698 8.72344 46.3393 7.77056 45.6861 7.05783C45.0329 6.3451 44.1114 5.98874 42.9216 5.98874C41.7319 5.98874 40.7793 6.40321 40.0638 7.23214V6.23277H37.6726V16.7958H40.0638ZM52.9714 16.9602C53.5304 16.9756 54.0582 16.8983 54.5551 16.7282C55.0519 16.5581 55.3974 16.3764 55.5914 16.1831V16.7746H57.8505V9.86238C57.8505 8.65621 57.4779 7.70907 56.7326 7.02094C55.9874 6.33281 55.0131 5.98874 53.8098 5.98874C52.6143 5.98874 51.6284 6.28642 50.8521 6.88176C50.0758 7.47711 49.61 8.23483 49.4547 9.15492H51.7487C52.0204 8.38947 52.626 8.00674 53.5653 8.00674C54.2174 8.00674 54.7181 8.18457 55.0674 8.54024C55.4168 8.8959 55.5914 9.35208 55.5914 9.90877V10.767C55.3663 10.6046 55.0131 10.4577 54.5318 10.3263C54.0505 10.1948 53.5847 10.1291 53.1344 10.1291C51.9544 10.1369 50.9724 10.4577 50.1884 11.0917C49.4043 11.7257 49.0123 12.5492 49.0123 13.562C49.0123 14.5749 49.3888 15.3945 50.1418 16.0208C50.9026 16.647 51.8458 16.9602 52.9714 16.9602ZM53.2613 15.1332C52.7217 15.1332 52.24 15.0028 51.816 14.7419C51.3921 14.4809 51.1801 14.1088 51.1801 13.6253C51.1801 13.1419 51.3959 12.7736 51.8276 12.5203C52.2592 12.2671 52.7448 12.1405 53.2844 12.1405C53.824 12.1405 54.3019 12.2402 54.7181 12.4397C55.1343 12.6393 55.4002 12.8963 55.5159 13.211V14.0742C55.3925 14.3812 55.1228 14.6344 54.7065 14.8339C54.2826 15.0335 53.8008 15.1332 53.2613 15.1332ZM63.076 20.9524V15.9645C63.3326 16.2924 63.7057 16.5656 64.1955 16.7841C64.6853 17.0027 65.2101 17.112 65.7698 17.112C67.2625 17.112 68.4558 16.5734 69.3499 15.4962C70.2439 14.419 70.691 13.1037 70.691 11.5504C70.6832 9.99701 70.2362 8.68174 69.3499 7.60454C68.4636 6.52734 67.2703 5.98874 65.7698 5.98874C65.2101 5.98874 64.6853 6.10192 64.1955 6.32829C63.7057 6.55466 63.3326 6.82786 63.076 7.1479V6.23462H60.6854V20.9524H63.076ZM65.3546 14.9669C64.8543 14.9669 64.3938 14.8351 63.9729 14.5714C63.5521 14.3078 63.2344 13.9704 63.02 13.5594V9.55772C63.2344 9.1467 63.5521 8.80935 63.9729 8.54567C64.3938 8.282 64.8543 8.15016 65.3546 8.15016C66.2836 8.15016 67.0182 8.46812 67.5581 9.10405C68.0901 9.73997 68.3562 10.5581 68.3562 11.5586C68.3641 12.559 68.0981 13.3771 67.5581 14.0131C67.0182 14.649 66.2836 14.9669 65.3546 14.9669ZM76.7028 17.1284C77.9338 17.1284 78.935 16.8235 79.7063 16.2137C80.4776 15.5962 80.8633 14.7675 80.8633 13.7279C80.8555 12.1409 79.9439 11.1325 78.1286 10.7026L75.8848 10.1749C75.1524 9.97946 74.7862 9.65114 74.7862 9.18992C74.7862 8.79124 74.9537 8.48636 75.2888 8.2753C75.6238 8.06423 76.0211 7.9587 76.4808 7.9587C77.5326 7.9587 78.1792 8.34956 78.4208 9.13129H80.7698C80.575 8.14631 80.1192 7.37631 79.4025 6.82128C78.6857 6.26625 77.7313 5.98874 76.5392 5.98874C75.3472 5.98874 74.3733 6.30534 73.6176 6.93854C72.8618 7.57174 72.484 8.3691 72.484 9.33063C72.484 10.8706 73.3605 11.8478 75.1135 12.2621L77.3222 12.7898C77.7741 12.8992 78.0936 13.0399 78.2805 13.2119C78.4675 13.3839 78.561 13.6419 78.561 13.9858C78.561 14.3376 78.3974 14.6229 78.0702 14.8418C77.7429 15.0607 77.3027 15.1701 76.7496 15.1701C75.6121 15.1701 74.907 14.7206 74.6343 13.8217H72.1918C72.3476 14.8379 72.8307 15.6431 73.6409 16.2372C74.4512 16.8313 75.4718 17.1284 76.7028 17.1284ZM85.7559 16.9621V9.94033C85.8803 9.43151 86.1486 9.02053 86.5607 8.70741C86.9729 8.39429 87.4784 8.23773 88.0771 8.23773C88.6759 8.23773 89.1425 8.42951 89.4769 8.81309C89.8113 9.19667 89.9784 9.73289 89.9784 10.4218V16.9621H92.3697V10.0108C92.3619 8.80526 92.0314 7.84241 91.3782 7.12223C90.725 6.40205 89.8035 6.04195 88.6137 6.04195C87.4239 6.04195 86.4713 6.46076 85.7559 7.29836V1.33337H83.3647V16.9621H85.7559ZM99.4628 17.1284C100.968 17.1284 102.191 16.6085 103.132 15.5688C104.073 14.5291 104.543 13.1924 104.543 11.5586C104.543 9.92474 104.073 8.58799 103.132 7.54829C102.191 6.50859 100.968 5.98874 99.4628 5.98874C97.9497 5.98874 96.7228 6.50859 95.782 7.54829C94.8412 8.58799 94.3708 9.92474 94.3708 11.5586C94.3708 13.1924 94.8412 14.5291 95.782 15.5688C96.7306 16.6085 97.9576 17.1284 99.4628 17.1284ZM99.5462 15.1332C98.7018 15.1332 98.045 14.8101 97.5759 14.164C97.1067 13.5178 96.8722 12.6771 96.8722 11.6417C96.8722 10.6063 97.1067 9.76553 97.5759 9.11938C98.0372 8.47323 98.6939 8.15016 99.5462 8.15016C100.398 8.15016 101.055 8.47323 101.517 9.11938C101.978 9.76553 102.208 10.6063 102.208 11.6417C102.208 12.6771 101.978 13.5178 101.517 14.164C101.055 14.8101 100.398 15.1332 99.5462 15.1332ZM110.425 17.1284C111.294 17.1284 111.946 17.0044 112.381 16.7564V14.583C111.985 14.8697 111.531 15.013 111.019 15.013C110.181 15.013 109.762 14.6023 109.762 13.781V8.30664H112.148V6.33076H109.762V3.49479H107.375V6.33076H105.71V8.30664H107.375V14.0367C107.375 15.044 107.666 15.8111 108.248 16.338C108.83 16.8649 109.556 17.1284 110.425 17.1284Z" fill="black"/>
</g>
<defs>
<clipPath id="clip0_1079_625">
<rect width="112.381" height="24" fill="white"/>
</clipPath>
</defs>
</svg>
