<svg width="106" height="24" viewBox="0 0 106 24" fill="none" xmlns="http://www.w3.org/2000/svg">
<g clip-path="url(#clip0_1078_570)">
<path fill-rule="evenodd" clip-rule="evenodd" d="M4.3636 14.9105C4.3636 15.1141 4.52878 15.2791 4.73245 15.2791H8.35837C8.56207 15.2791 8.72722 15.1141 8.72722 14.9105V13.0989H10.5402C10.7438 13.0989 10.909 12.9338 10.909 12.7303V11.2872C10.909 11.0836 10.7438 10.9186 10.5402 10.9186H4.73245C4.52878 10.9186 4.3636 11.0836 4.3636 11.2872V14.9105ZM4.3636 6.91423C4.3636 6.7107 4.19844 6.54565 3.99476 6.54565H0.368844C0.165167 6.54565 0 6.7107 0 6.91423V10.5376C0 10.7411 0.165167 10.9061 0.368844 10.9061H1.81296C2.01664 10.9061 2.1818 10.7411 2.1818 10.5376V8.72587H3.99476C4.19844 8.72587 4.3636 8.56087 4.3636 8.35732V6.91423ZM6.54541 19.9957C6.54541 19.7921 6.38024 19.6271 6.17656 19.6271H4.73245C4.52878 19.6271 4.3636 19.7921 4.3636 19.9957V21.4387C4.3636 21.6423 4.52878 21.8074 4.73245 21.8074H6.17656C6.38024 21.8074 6.54541 21.6423 6.54541 21.4387V19.9957ZM32.3582 6.54565H28.7323C28.5286 6.54565 28.3634 6.7107 28.3634 6.91423V8.35732C28.3634 8.56087 28.5286 8.72587 28.7323 8.72587H30.5452V10.5376C30.5452 10.7411 30.7104 10.9061 30.9141 10.9061H32.3582C32.5619 10.9061 32.7271 10.7411 32.7271 10.5376V6.91423C32.7271 6.7107 32.5619 6.54565 32.3582 6.54565ZM27.9946 10.9061H22.1869C21.9832 10.9061 21.818 11.0712 21.818 11.2747V12.7178C21.818 12.9213 21.9832 13.0864 22.1869 13.0864H23.9998V14.8981C23.9998 15.1015 24.165 15.2666 24.3687 15.2666H27.9946C28.1983 15.2666 28.3634 15.1015 28.3634 14.8981V11.2747C28.3634 11.0712 28.1983 10.9061 27.9946 10.9061ZM25.8128 21.8198H23.9998V20.0082C23.9998 19.8047 23.8347 19.6396 23.631 19.6396H21.818V15.6477C21.818 15.4441 21.6529 15.2791 21.4492 15.2791H19.6363V11.2872C19.6363 11.0836 19.471 10.9186 19.2674 10.9186H13.4596C13.256 10.9186 13.0908 11.0836 13.0908 11.2872V15.2791H11.2779C11.0741 15.2791 10.909 15.4441 10.909 15.6477V19.6396H9.09607C8.89237 19.6396 8.72722 19.8047 8.72722 20.0082V21.8198H6.91426C6.71058 21.8198 6.54541 21.9849 6.54541 22.1884V23.6315C6.54541 23.8351 6.71058 24.0001 6.91426 24.0001H10.5402C10.7438 24.0001 10.909 23.8351 10.909 23.6315V21.8198H12.7219C12.9256 21.8198 13.0908 21.6548 13.0908 21.4513V17.4593H19.6363V21.4513C19.6363 21.6548 19.8014 21.8198 20.005 21.8198H21.818V23.6315C21.818 23.8351 21.9832 24.0001 22.1869 24.0001H25.8128C26.0164 24.0001 26.1817 23.8351 26.1817 23.6315V22.1884C26.1817 21.9849 26.0164 21.8198 25.8128 21.8198ZM27.9946 19.6271H26.5505C26.3468 19.6271 26.1817 19.7921 26.1817 19.9957V21.4387C26.1817 21.6423 26.3468 21.8074 26.5505 21.8074H27.9946C28.1983 21.8074 28.3634 21.6423 28.3634 21.4387V19.9957C28.3634 19.7921 28.1983 19.6271 27.9946 19.6271Z" fill="#001133"/>
<path fill-rule="evenodd" clip-rule="evenodd" d="M9.09541 6.54541H23.6304C23.834 6.54541 23.9992 6.38025 23.9992 6.17657V4.73245C23.9992 4.52871 23.834 4.36361 23.6304 4.36361H21.8174V2.55065C21.8174 2.34698 21.6523 2.1818 21.4486 2.1818H19.6356V0.368844C19.6356 0.165167 19.4705 0 19.2668 0H13.4591C13.2554 0 13.0902 0.165167 13.0902 0.368844V2.1818H11.2772C11.0735 2.1818 10.9084 2.34698 10.9084 2.55065V4.36361H9.09541C8.89179 4.36361 8.72656 4.52871 8.72656 4.73245V6.17657C8.72656 6.38025 8.89179 6.54541 9.09541 6.54541Z" fill="#1BEDBA"/>
<path fill-rule="evenodd" clip-rule="evenodd" d="M70.3893 10.6891C69.2415 10.6891 68.2046 11.1613 67.4751 11.9185C66.7623 11.1584 65.747 10.6833 64.6218 10.6833C63.9904 10.6833 63.3462 10.9144 62.8494 11.2485V11.1378C62.8494 10.9781 62.7169 10.8567 62.5627 10.8567H60.9621C60.8089 10.8567 60.6753 10.9781 60.6753 11.1378V19.1119C60.6753 19.2716 60.8079 19.393 60.9621 19.393H62.5666C62.7198 19.393 62.8533 19.2716 62.8533 19.1119V14.5841C62.8533 13.6084 63.6457 12.8188 64.6218 12.8188C65.5987 12.8188 66.3901 13.6094 66.3901 14.5841V19.1119C66.3901 19.2716 66.5226 19.393 66.6768 19.393H68.2439C68.2478 19.393 68.2508 19.393 68.2527 19.393H68.2881C68.4412 19.393 68.5748 19.2716 68.5748 19.1119V14.587C68.5748 13.6162 69.3838 12.8227 70.3893 12.8227C71.3947 12.8227 72.2038 13.6162 72.2038 14.587V19.111C72.2038 19.2706 72.3363 19.3921 72.4905 19.3921H74.1008C74.255 19.3921 74.3875 19.2706 74.3875 19.111V14.587C74.3865 12.4309 72.5936 10.6891 70.3893 10.6891ZM82.3935 14.972C81.7823 14.6008 80.9978 14.4225 80.3138 14.2677L80.3003 14.2648C79.8038 14.1521 79.3673 14.0522 79.053 13.9052C78.7418 13.7602 78.6008 13.5937 78.6008 13.3645C78.6008 13.1666 78.675 12.9913 78.852 12.8531C79.0335 12.7111 79.3343 12.6013 79.7985 12.574C80.5898 12.574 81.2025 12.5926 81.6173 12.6112C81.825 12.62 81.9833 12.6298 82.0883 12.6367C82.1415 12.6406 82.1813 12.6425 82.2083 12.6445C82.2218 12.6454 82.2315 12.6464 82.2375 12.6464L82.2443 12.6474H82.2465L82.2533 12.6484H82.26C82.383 12.6484 82.4948 12.6249 82.5713 12.5455C82.6388 12.475 82.653 12.3849 82.659 12.3408C82.659 12.3379 82.6598 12.3349 82.6598 12.333C82.6628 12.3143 82.665 12.3006 82.6673 12.2879L82.6718 12.2713V11.2887C82.6718 11.1691 82.6635 11.0594 82.6178 10.9752C82.5608 10.8704 82.4655 10.837 82.389 10.8204L82.3815 10.8194L82.3748 10.8184H82.3718L82.3643 10.8175C82.3575 10.8165 82.3478 10.8155 82.335 10.8145C82.308 10.8116 82.269 10.8077 82.2173 10.8028C82.1115 10.793 81.9548 10.7803 81.7425 10.7675C81.3188 10.742 80.6745 10.7166 79.7925 10.7166H79.7895H79.7865C78.6578 10.7587 77.8013 11.0722 77.2253 11.5678C76.647 12.0646 76.362 12.7346 76.362 13.4595C76.362 13.9366 76.4723 14.3275 76.6665 14.6497C76.86 14.971 77.1315 15.215 77.442 15.406C78.054 15.7812 78.837 15.9625 79.5195 16.1202L79.5338 16.1231C80.031 16.2377 80.4683 16.3396 80.7825 16.4885C81.093 16.6354 81.237 16.8049 81.237 17.041C81.237 17.2379 81.1455 17.4133 80.925 17.5474C80.6948 17.6866 80.3228 17.7796 79.7753 17.7796C79.1528 17.7796 78.4733 17.713 77.9468 17.6455C77.6835 17.6122 77.4608 17.5778 77.3025 17.5524C77.2238 17.5396 77.1615 17.5288 77.1188 17.522C77.1075 17.5201 77.097 17.5181 77.0888 17.5171C77.082 17.5161 77.0745 17.5151 77.07 17.5141L77.058 17.5122L77.0543 17.5112L77.0408 17.5083H77.0265C76.9148 17.5083 76.809 17.5288 76.734 17.6043C76.668 17.6699 76.6538 17.7571 76.6478 17.7973C76.647 17.8002 76.647 17.8032 76.647 17.8051C76.6425 17.8267 76.6395 17.8404 76.6365 17.8541L76.6328 17.8698L76.5713 18.9787V18.9826C76.5713 19.0551 76.5818 19.1413 76.6215 19.2187C76.6613 19.301 76.734 19.3744 76.845 19.4029L76.8488 19.4038L76.8533 19.4048L76.8578 19.3794C76.8533 19.4048 76.8533 19.4048 76.8533 19.4048L76.857 19.4058C76.8585 19.4068 76.863 19.4068 76.8675 19.4077C76.8765 19.4098 76.89 19.4117 76.908 19.4156C76.9433 19.4224 76.9943 19.4313 77.0618 19.4421C77.1975 19.4636 77.3948 19.492 77.6505 19.5214C78.159 19.5792 78.8933 19.636 79.7963 19.636H79.8038C79.9148 19.637 80.817 19.6438 81.6975 19.3137C82.1393 19.1482 82.5848 18.8944 82.9208 18.5046C83.2598 18.1117 83.4788 17.5876 83.4788 16.9C83.4788 16.4278 83.3678 16.0399 83.1735 15.7205C82.977 15.4011 82.7048 15.1601 82.3935 14.972ZM100.489 10.8616C99.5925 10.8616 98.7548 11.1133 98.0513 11.5492V7.89568C98.0513 7.736 97.9185 7.6145 97.764 7.6145H96.1575C96.0045 7.6145 95.871 7.736 95.871 7.89568V19.1139C95.871 19.2736 96.0038 19.3951 96.1575 19.3951H97.764C97.9178 19.3951 98.0513 19.2736 98.0513 19.1139V18.7406C98.715 19.2579 99.5948 19.6351 100.489 19.6351C102.989 19.6351 105.023 17.6758 105.023 15.2483C105.023 12.8208 102.989 10.8616 100.489 10.8616ZM100.489 17.5171C99.1928 17.5171 98.1413 16.5013 98.1413 15.2483C98.1413 13.9954 99.192 12.9795 100.489 12.9795C101.785 12.9795 102.836 13.9954 102.836 15.2483C102.836 16.5013 101.786 17.5171 100.489 17.5171ZM93.3998 10.8616H91.7895C91.635 10.8616 91.5023 10.9831 91.5023 11.1427V15.7802C91.5023 16.7373 90.6953 17.522 89.688 17.522C89.6835 17.522 89.679 17.522 89.6745 17.522C89.6693 17.522 89.6655 17.522 89.6603 17.522C88.653 17.522 87.846 16.7373 87.846 15.7802V11.1427C87.846 10.9831 87.7133 10.8616 87.5595 10.8616H85.9493C85.7948 10.8616 85.662 10.9831 85.662 11.1427V15.7802C85.662 17.9138 87.4575 19.6341 89.6603 19.6341C89.6655 19.6341 89.6693 19.6341 89.6745 19.6341C89.679 19.6341 89.6835 19.6341 89.688 19.6341C91.8908 19.6341 93.6863 17.9138 93.6863 15.7802V11.1427C93.6863 10.9831 93.5535 10.8616 93.3998 10.8616ZM47.2075 14.972C46.5958 14.6008 45.8113 14.4225 45.1279 14.2677L45.1141 14.2648C44.6173 14.1521 44.1813 14.0522 43.8672 13.9052C43.5559 13.7602 43.4145 13.5937 43.4145 13.3645C43.4145 13.1666 43.4892 12.9913 43.6659 12.8531C43.8475 12.7111 44.148 12.6013 44.6124 12.574C45.4038 12.574 46.0165 12.5926 46.4308 12.6112C46.639 12.62 46.7971 12.6298 46.9021 12.6367C46.9551 12.6406 46.9954 12.6425 47.022 12.6445C47.0357 12.6454 47.0455 12.6464 47.0514 12.6464L47.0583 12.6474H47.0602L47.0671 12.6484H47.074C47.1967 12.6484 47.3086 12.6249 47.3853 12.5455C47.453 12.475 47.4667 12.3849 47.4726 12.3408C47.4726 12.3379 47.4736 12.3349 47.4736 12.333C47.4765 12.3143 47.4785 12.3006 47.4815 12.2879L47.4854 12.2713V11.2887C47.4854 11.1691 47.4775 11.0594 47.4314 10.9752C47.3745 10.8704 47.2792 10.837 47.2026 10.8204L47.1957 10.8194L47.1888 10.8184H47.1859L47.178 10.8175C47.1712 10.8165 47.1614 10.8155 47.1486 10.8145C47.1221 10.8116 47.0828 10.8077 47.0307 10.8028C46.9257 10.793 46.7686 10.7803 46.5565 10.7675C46.1324 10.742 45.4882 10.7166 44.6065 10.7166H44.6036H44.6006C43.4715 10.7587 42.6153 11.0722 42.0389 11.5678C41.4615 12.0646 41.1768 12.7346 41.1768 13.4595C41.1768 13.9366 41.2868 14.3275 41.4812 14.6497C41.6746 14.971 41.9466 15.215 42.2568 15.406C42.8686 15.7812 43.6521 15.9625 44.3346 16.1202L44.3483 16.1231C44.8461 16.2377 45.283 16.3396 45.5973 16.4885C45.9075 16.6354 46.0518 16.8049 46.0518 17.041C46.0518 17.2379 45.9605 17.4133 45.7396 17.5474C45.5098 17.6866 45.1377 17.7796 44.5898 17.7796C43.9673 17.7796 43.2879 17.713 42.7616 17.6455C42.4984 17.6122 42.2755 17.5778 42.1174 17.5524C42.0389 17.5396 41.976 17.5288 41.9338 17.522C41.922 17.5201 41.9122 17.5181 41.9034 17.5171C41.8965 17.5161 41.8896 17.5151 41.8848 17.5141L41.8729 17.5122L41.869 17.5112L41.8553 17.5083H41.8405C41.7286 17.5083 41.6226 17.5288 41.5479 17.6043C41.4822 17.6699 41.4675 17.7571 41.4615 17.7973C41.4606 17.8002 41.4606 17.8032 41.4606 17.8051C41.4567 17.8267 41.4537 17.8404 41.4507 17.8541L41.4468 17.8698L41.383 18.9777V18.9817C41.383 19.0541 41.3938 19.1404 41.433 19.2177C41.4733 19.3 41.546 19.3735 41.6569 19.4019L41.6609 19.4029L41.6648 19.4038L41.6697 19.3784C41.6648 19.4038 41.6648 19.4038 41.6648 19.4038H41.6658L41.6687 19.4048C41.6707 19.4058 41.6746 19.4058 41.6795 19.4068C41.6883 19.4087 41.7021 19.4107 41.7198 19.4146C41.7551 19.4215 41.8062 19.4303 41.874 19.441C42.0094 19.4626 42.2068 19.4911 42.4621 19.5204C42.9707 19.5782 43.7052 19.6351 44.6085 19.6351H44.6154C44.7263 19.636 45.6286 19.6429 46.5094 19.3127C46.9512 19.1472 47.397 18.8935 47.7328 18.5036C48.0716 18.1108 48.2905 17.5867 48.2905 16.899C48.2905 16.4268 48.1796 16.0389 47.9852 15.7195C47.7907 15.4011 47.5188 15.1601 47.2075 14.972ZM58.2072 10.8616H56.5969C56.4427 10.8616 56.3102 10.9831 56.3102 11.1427V15.7802C56.3102 16.7373 55.5031 17.522 54.4956 17.522C54.4908 17.522 54.4869 17.522 54.4819 17.522C54.477 17.522 54.4731 17.522 54.4682 17.522C53.4608 17.522 52.6536 16.7373 52.6536 15.7802V11.1427C52.6536 10.9831 52.5211 10.8616 52.3669 10.8616H50.7567C50.6025 10.8616 50.4699 10.9831 50.4699 11.1427V15.7802C50.4699 17.9138 52.2648 19.6341 54.4682 19.6341C54.4731 19.6341 54.477 19.6341 54.4819 19.6341C54.4869 19.6341 54.4908 19.6341 54.4956 19.6341C56.698 19.6341 58.4939 17.9138 58.4939 15.7802V11.1427C58.4939 10.9831 58.3614 10.8616 58.2072 10.8616Z" fill="#001133"/>
</g>
<defs>
<clipPath id="clip0_1078_570">
<rect width="105.75" height="24" fill="white"/>
</clipPath>
</defs>
</svg>
