<svg width="99" height="24" viewBox="0 0 99 24" fill="none" xmlns="http://www.w3.org/2000/svg">
<path fill-rule="evenodd" clip-rule="evenodd" d="M82.0059 16.799C82.3534 16.799 82.6164 16.5266 82.6164 16.1885C82.6164 15.8504 82.3534 15.5781 82.0059 15.5781C81.6679 15.5781 81.3955 15.8504 81.3955 16.1885C81.3955 16.5266 81.6679 16.799 82.0059 16.799ZM88.176 16.6957L86.3823 14.2727L88.0727 12H87.1148L85.9033 13.6341L84.6919 12H83.7245L85.4244 14.2821L83.6212 16.6957H84.5792L85.9033 14.9207L87.2181 16.6957H88.176ZM92.543 12L91.1906 15.6814L89.5941 12H88.7207L90.768 16.6769L90.6835 16.8553C90.4393 17.4751 90.0449 17.8602 89.4157 17.8132V18.5739C90.3736 18.6397 91.1061 18.0386 91.5005 16.9868L93.4164 12H92.543ZM95.2759 15.9162L97.68 12.5447V12H94.2522V12.7795H96.5531L94.1583 16.151V16.6957H97.7739V15.9162H95.2759Z" fill="black"/>
<path fill-rule="evenodd" clip-rule="evenodd" d="M76.7682 12.374C76.7682 11.0416 75.8064 10.1341 74.4406 10.1341C73.0748 10.1341 72.1131 11.0416 72.1131 12.374C72.1131 13.7064 73.0748 14.6138 74.4406 14.6138C75.8064 14.6138 76.7682 13.7064 76.7682 12.374ZM79.5766 7.7395V16.9119C79.5766 20.1562 77.0565 21.5271 74.4984 21.5271C72.4978 21.5271 70.8242 20.7738 69.9395 19.1903L72.4016 17.7616C72.7671 18.4374 73.3249 18.9781 74.5944 18.9781C75.941 18.9781 76.7682 18.283 76.7682 16.9119V16.0235C76.1333 16.8156 75.2098 17.2786 73.9598 17.2786C71.2286 17.2786 69.2277 15.0388 69.2277 12.374C69.2277 9.70919 71.2286 7.46934 73.9598 7.46934C75.2098 7.46934 76.1333 7.93259 76.7682 8.72423V7.7395H79.5766ZM67.7284 11.4663V17.3946H64.8432V11.8912C64.8432 10.6939 64.0928 10.1341 63.1697 10.1341C62.1116 10.1341 61.3808 10.7517 61.3808 12.1229V17.3946H58.4954V7.7395H61.3808V8.64717C61.8998 7.93259 62.8618 7.46934 64.1314 7.46934C66.0741 7.46934 67.7284 8.85953 67.7284 11.4663ZM53.4949 17.3948H56.38V7.73941H53.4949V17.3948ZM53.2059 5.15191C53.2059 4.20549 53.9947 3.41406 54.9375 3.41406C55.88 3.41406 56.6686 4.20549 56.6686 5.15191C56.6686 6.09811 55.88 6.88975 54.9375 6.88975C53.9947 6.88975 53.2059 6.09811 53.2059 5.15191ZM37.5312 14.4981C37.5312 16.7187 35.6078 17.6649 33.5302 17.6649C31.6065 17.6649 30.1447 16.9311 29.3945 15.3671L31.895 13.9381C32.1451 14.672 32.6836 15.0776 33.5302 15.0776C34.2228 15.0776 34.5689 14.8651 34.5689 14.4789C34.5689 13.4166 29.8372 13.9769 29.8372 10.636C29.8372 8.53127 31.6065 7.46925 33.6071 7.46925C35.1651 7.46925 36.5501 8.16435 37.3581 9.53527L34.896 10.8677C34.6267 10.3654 34.2417 10.018 33.6071 10.018C33.1069 10.018 32.7994 10.2111 32.7994 10.5585C32.7994 11.6595 37.5312 10.9257 37.5312 14.4981ZM52.3418 7.73939L49.2643 17.3947H46.571L45.0322 12.239L43.4933 17.3947H40.8005L37.7227 7.73939H40.8005L42.1855 12.9146L43.6858 7.73939H46.3784L47.879 12.9146L49.2643 7.73939H52.3418Z" fill="black"/>
<path d="M12 24C18.6274 24 24 18.6274 24 12C24 5.37258 18.6274 0 12 0C5.37258 0 0 5.37258 0 12C0 18.6274 5.37258 24 12 24Z" fill="#22BA79"/>
<mask id="mask0_1077_6668" style="mask-type:luminance" maskUnits="userSpaceOnUse" x="4" y="3" width="17" height="18">
<path d="M6.37147 6.30903C5.97844 6.70134 5.63526 7.1252 5.3412 7.57194C5.10664 7.92765 4.90314 8.299 4.73167 8.68024C3.39916 11.6362 3.9456 15.2387 6.37147 17.6639C9.50225 20.7956 14.5958 20.7956 17.7263 17.6639C20.8569 14.5336 20.8569 9.43981 17.7263 6.30903C16.1609 4.74388 14.105 3.96143 12.049 3.96143C9.99282 3.96143 7.93686 4.74388 6.37147 6.30903ZM11.301 13.9631C9.39917 13.1912 7.5248 12.3637 5.77036 11.2903L5.76675 11.2882C5.5447 11.1536 5.43368 10.8925 5.4857 10.6379C5.5541 10.302 5.64826 9.97036 5.76868 9.64548C6.01504 8.98055 6.37051 8.34717 6.83579 7.77351C6.98245 7.59169 7.13996 7.41612 7.30902 7.24706C9.92226 4.63358 14.1746 4.63358 16.7888 7.24706C17.3699 7.82794 17.8215 8.49022 18.1442 9.19754C18.3638 9.67992 17.9166 10.197 17.4084 10.0462C16.9716 9.91738 16.534 9.79215 16.0937 9.67631C15.0784 9.40827 14.0501 9.18357 13.0246 8.94804C12.8512 8.90854 12.785 8.8387 12.8373 8.66145C12.9288 8.35343 13.0106 8.04252 13.0976 7.73354C13.1872 7.41179 13.0256 7.24369 12.6954 7.32244C12.4676 7.37711 12.2422 7.44189 12.0141 7.49825C11.1177 7.72005 10.2216 7.93656 9.32861 8.16486C9.01361 8.2441 8.964 8.4093 9.17448 8.64965C9.38015 8.88518 9.60244 9.10578 9.81798 9.33192C10.4364 9.97879 11.0505 10.6285 11.674 11.2701C11.9062 11.5083 12.0579 11.4782 12.1665 11.1666C12.2768 10.8484 12.3638 10.5195 12.4404 10.1902C12.4914 9.96699 12.5993 9.9299 12.7966 10.0103C14.6984 10.782 16.573 11.6097 18.3274 12.6831C18.3289 12.6838 18.3301 12.6845 18.3313 12.6855C18.5521 12.8196 18.6646 13.0792 18.6128 13.3326C18.5854 13.4689 18.5536 13.605 18.5172 13.7401C18.3946 14.1945 18.2236 14.6388 18.004 15.0641C17.6955 15.6626 17.2902 16.2247 16.7888 16.7263C16.2953 17.2196 15.7424 17.6201 15.1538 17.9278C12.6268 19.2466 9.42904 18.8461 7.30902 16.7263C6.7279 16.1452 6.2761 15.4832 5.95363 14.7759C5.73351 14.2937 6.18073 13.7764 6.68937 13.9269C7.12599 14.0558 7.56382 14.181 8.00405 14.2973C9.01939 14.5651 10.0475 14.7896 11.0729 15.0251C11.2463 15.0651 11.3126 15.1345 11.2605 15.3112C11.1693 15.6197 11.0871 15.9304 10.9992 16.2392C10.9099 16.5614 11.0722 16.7297 11.4012 16.651C11.6293 16.5961 11.8556 16.5315 12.0835 16.4752C12.9791 16.2529 13.8752 16.0364 14.7689 15.8085C15.0835 15.7291 15.1338 15.5643 14.9233 15.3235C14.7174 15.088 14.4954 14.8676 14.2798 14.6405C13.6611 13.9946 13.0463 13.3437 12.4235 12.7028C12.1918 12.4641 12.0399 12.4947 11.931 12.8064C11.8212 13.125 11.7338 13.454 11.6574 13.7829C11.6223 13.9361 11.5604 14.0021 11.4612 14.0021C11.4159 14.0021 11.3627 13.9884 11.301 13.9631Z" fill="white"/>
</mask>
<g mask="url(#mask0_1077_6668)">
<path fill-rule="evenodd" clip-rule="evenodd" d="M3.37549 20.7893H20.9801V2.92578H3.37549V20.7893Z" fill="white"/>
</g>
</svg>
