<svg width="113" height="41" viewBox="0 0 113 41" fill="none" xmlns="http://www.w3.org/2000/svg">
<g id="hero-trustedby">
<g id="atoma">
<path d="M12.4088 21.2457C12.3862 20.9988 12.3746 20.7502 12.3746 20.5C12.3746 18.3245 13.2379 16.2392 14.7761 14.701C16.3134 13.1645 18.3996 12.3003 20.5742 12.3003C20.8829 12.3003 21.1898 12.3187 21.4943 12.3521C21.7946 12.3854 22.0915 12.4355 22.3843 12.5022C23.5146 12.7574 24.5806 13.2513 25.5099 13.9519L31.6867 7.77425C33.0739 6.3879 33.0197 4.09233 31.3506 3.06132C28.1383 1.07605 24.4113 0 20.5742 0C15.1372 0 9.92299 2.16044 6.07841 6.00419C2.23383 9.84961 0.0742188 15.063 0.0742188 20.5C0.0742188 24.3371 1.15027 28.064 3.1347 31.2755C4.16654 32.9455 6.46128 32.9989 7.84847 31.6125L14.0253 25.4348C13.1086 24.2186 12.5472 22.7672 12.4088 21.2457Z" fill="white"/>
<path d="M38.0129 9.72282C36.9819 8.05453 34.6872 8.00114 33.3 9.38749L27.1223 15.5652C27.7979 16.4611 28.2801 17.4837 28.5437 18.5681C28.6955 19.1954 28.7739 19.8427 28.7739 20.5C28.7739 22.6755 27.9105 24.7608 26.3724 26.2973C24.8342 27.8355 22.7488 28.6997 20.5742 28.6997C19.1153 28.6997 17.6964 28.311 16.456 27.5919C16.1741 27.4284 15.9005 27.2466 15.6386 27.0481L9.46171 33.2257C8.07452 34.6121 8.12874 36.9077 9.79787 37.9387C13.0102 39.924 16.7363 41 20.5742 41C26.0112 41 31.2254 38.8396 35.07 34.9958C38.9146 31.1504 41.0742 25.937 41.0742 20.5C41.0742 16.6629 39.9982 12.936 38.0129 9.72282Z" fill="white"/>
<path fill-rule="evenodd" clip-rule="evenodd" d="M50.1464 17.1534L49.4466 19.2188H46.4653L50.6961 7.52568H53.9943L58.2243 19.2188H55.2097L54.5107 17.1534H50.1464ZM53.7774 14.9546L52.3285 10.6737L50.8955 14.9546H53.7774Z" fill="white"/>
<path d="M63.0265 16.8031V19.2188H61.5776C61.0137 19.2188 60.5182 19.1437 60.0903 18.9935C59.9026 18.9285 59.7283 18.8501 59.5673 18.7566C59.4221 18.6716 59.287 18.5748 59.1627 18.468C59.0126 18.3362 58.8824 18.1827 58.7715 18.0076C58.6605 17.8324 58.5696 17.6372 58.4979 17.4203C58.3636 17.0166 58.296 16.5378 58.296 15.9873V12.2887H57.1641V9.92468H58.296V7.65914H61.1446V9.92468H63.0098V12.2887H61.1446V16.0206C61.1446 16.2976 61.2114 16.4978 61.344 16.6195C61.4174 16.6863 61.5183 16.7347 61.646 16.7647C61.7494 16.7897 61.8712 16.8031 62.0105 16.8031H63.0265Z" fill="white"/>
<path fill-rule="evenodd" clip-rule="evenodd" d="M68.0105 19.3522C67.1004 19.3522 66.2788 19.157 65.5456 18.7683C64.8241 18.3796 64.2527 17.8241 63.8306 17.1034C63.4194 16.381 63.2142 15.5368 63.2142 14.5709C63.2142 14.1972 63.2467 13.8418 63.3117 13.5032C63.4118 12.9777 63.5904 12.4955 63.8473 12.0568C64.0383 11.7231 64.2618 11.4245 64.5179 11.1626C64.8249 10.8489 65.1786 10.5853 65.579 10.3735C66.3122 9.98474 67.1338 9.79122 68.0439 9.79122C68.9548 9.79122 69.7764 9.98474 70.5096 10.3735C71.242 10.7622 71.8201 11.3227 72.2413 12.0568C72.6634 12.7775 72.8744 13.6166 72.8744 14.5709C72.8744 15.5268 72.6575 16.371 72.2246 17.1034C71.8034 17.8241 71.2203 18.3796 70.4762 18.7683C69.743 19.157 68.9214 19.3522 68.0105 19.3522ZM68.0105 16.8865C68.2407 16.8865 68.4568 16.8498 68.657 16.778C68.9306 16.6813 69.1758 16.5178 69.3935 16.2876C69.5754 16.1007 69.7147 15.8772 69.8114 15.6152C69.9215 15.3166 69.9766 14.9679 69.9766 14.5709C69.9766 13.8268 69.7881 13.2546 69.4102 12.8559C69.0432 12.4555 68.5886 12.2553 68.0439 12.2553C67.9646 12.2553 67.8879 12.2586 67.8128 12.267C67.6276 12.287 67.455 12.332 67.2931 12.4004C67.0579 12.5005 66.8477 12.6523 66.6617 12.8559C66.2955 13.2446 66.112 13.8168 66.112 14.5709C66.112 15.3149 66.2905 15.8872 66.645 16.2876C66.8535 16.5144 67.0913 16.6763 67.3574 16.7747C67.5584 16.8498 67.7761 16.8865 68.0105 16.8865Z" fill="white"/>
<path d="M85.0788 9.82458C86.2341 9.82458 87.15 10.1733 87.8273 10.8739C88.5163 11.573 88.86 12.5456 88.86 13.7885V19.2188H86.0281V14.1722C86.0281 13.5716 85.8679 13.1111 85.5451 12.7891C85.2348 12.4555 84.8019 12.2887 84.2463 12.2887C83.6908 12.2887 83.2529 12.4555 82.9301 12.7891C82.7165 13.011 82.5755 13.298 82.5088 13.6517C82.4905 13.7484 82.4779 13.8502 82.4713 13.9553C82.4663 14.0254 82.4638 14.0971 82.4638 14.1722V19.2188H79.6327V14.1722C79.6327 13.9102 79.6018 13.6733 79.5401 13.4631C79.4608 13.1945 79.3307 12.971 79.1497 12.7891C79.0129 12.6423 78.8527 12.5289 78.6692 12.4455C78.5575 12.3954 78.4365 12.3571 78.3072 12.3304C78.1654 12.302 78.0136 12.2887 77.8501 12.2887C77.458 12.2887 77.1252 12.3704 76.85 12.5372C76.7348 12.6073 76.6297 12.6907 76.5347 12.7891C76.2235 13.1111 76.0684 13.5716 76.0684 14.1722V19.2188H73.2197V9.92468H76.0684V11.0908C76.1977 10.9156 76.3453 10.7588 76.5113 10.6187C76.714 10.4452 76.9434 10.2967 77.2003 10.1733C77.6666 9.94137 78.1946 9.82458 78.7827 9.82458C78.9345 9.82458 79.0821 9.83126 79.2264 9.84627C79.3324 9.85628 79.4366 9.86963 79.5384 9.88798C79.9388 9.95805 80.3092 10.0865 80.6487 10.2734C81.2042 10.5736 81.6371 11.0007 81.9474 11.5563C82.2702 11.0458 82.7082 10.6287 83.2637 10.3067C83.8193 9.98474 84.424 9.82458 85.0788 9.82458Z" fill="white"/>
<path fill-rule="evenodd" clip-rule="evenodd" d="M89.2863 14.5542C89.2863 13.5999 89.4639 12.7608 89.8193 12.0401C90.1863 11.3177 90.6801 10.7622 91.3024 10.3735C91.9238 9.98474 92.6178 9.79122 93.3844 9.79122C93.7715 9.79122 94.1302 9.83793 94.4596 9.93136C94.6865 9.99475 94.9001 10.0815 95.0994 10.1899C95.2788 10.285 95.4431 10.3918 95.5924 10.5086C95.8593 10.7188 96.0787 10.9624 96.2489 11.2393V9.92468H99.0975V19.2188H96.2489V17.9025C96.1204 18.1027 95.9678 18.2862 95.7918 18.4513C95.5874 18.6415 95.3513 18.8084 95.0827 18.9518C94.5939 19.2188 94.0217 19.3522 93.3677 19.3522C92.612 19.3522 91.9238 19.157 91.3024 18.7683C90.6801 18.3696 90.1863 17.8074 89.8193 17.0867C89.4639 16.3543 89.2863 15.5101 89.2863 14.5542ZM96.2489 14.5709C96.2489 13.8602 96.0487 13.2996 95.6491 12.8892C95.2604 12.4788 94.7833 12.272 94.2169 12.272C93.6505 12.272 93.1675 12.4788 92.768 12.8892C92.3793 13.288 92.1849 13.8435 92.1849 14.5542C92.1849 14.9813 92.255 15.3583 92.3951 15.682C92.4886 15.8955 92.6128 16.0857 92.768 16.2542C93.1675 16.6646 93.6505 16.8698 94.2169 16.8698C94.7833 16.8698 95.2604 16.6646 95.6491 16.2542C96.0487 15.8421 96.2489 15.2816 96.2489 14.5709Z" fill="white"/>
<path d="M54.8435 33.3125H57.6921V21.6194H54.8435V28.8648L50.0805 21.6194H47.2319V33.3125H50.0805V26.1005L54.8435 33.3125Z" fill="white"/>
<path fill-rule="evenodd" clip-rule="evenodd" d="M67.4683 29.3486C67.5017 29.06 67.5184 28.7831 67.5184 28.5162C67.5184 27.5836 67.319 26.7661 66.9186 26.0671C66.7568 25.7768 66.5683 25.5149 66.3531 25.2797C66.0511 24.9477 65.6957 24.6724 65.287 24.4522C64.5872 24.0735 63.7872 23.885 62.888 23.885C61.9663 23.885 61.1505 24.0802 60.4398 24.4689C59.7291 24.8576 59.1735 25.4115 58.774 26.1338C58.3853 26.8562 58.1909 27.7004 58.1909 28.6663C58.1909 29.6322 58.3911 30.4764 58.7907 31.1971C59.0242 31.6192 59.3103 31.9845 59.6507 32.2932C59.8926 32.5117 60.1612 32.7019 60.4565 32.8637C61.1672 33.2524 61.9771 33.446 62.888 33.446C63.6429 33.446 64.3261 33.3075 64.9367 33.0289C65.5473 32.752 66.0528 32.3682 66.4523 31.8811C66.7376 31.5408 66.9611 31.1721 67.1238 30.7734C67.1955 30.5982 67.2548 30.418 67.3023 30.2312H64.2702C64.0883 30.6249 63.8131 30.8885 63.446 31.0236C63.2525 31.0953 63.0331 31.1304 62.7879 31.1304C62.3108 31.1304 61.9054 30.9802 61.5726 30.6816C61.2497 30.3696 61.0671 29.9259 61.0229 29.3486H67.4683ZM64.1042 26.601C64.437 26.8896 64.6038 27.2783 64.6038 27.7654H61.0395C61.1171 27.2549 61.3165 26.8612 61.6385 26.5843C61.9721 26.3057 62.3775 26.1672 62.8546 26.1672C63.3543 26.1672 63.7705 26.3123 64.1042 26.601Z" fill="white"/>
<path d="M73.3682 33.3125V30.8968H72.3522C72.0411 30.8968 71.8192 30.8368 71.6858 30.715C71.6032 30.6382 71.5465 30.5348 71.5148 30.3997C71.4956 30.3162 71.4856 30.2212 71.4856 30.1144V26.3841H73.3515V24.0184H71.4856V21.7529H68.6378V24.0184H67.505V26.3841H68.6378V30.081C68.6378 31.2255 68.9264 32.0529 69.5036 32.5634C70.0817 33.0623 70.8866 33.3125 71.9193 33.3125H73.3682Z" fill="white"/>
<path d="M85.6152 33.3125L88.1301 24.0184H85.4483L84.1496 30.6316L82.5672 24.0184H79.5518L77.9861 30.6649L76.6706 24.0184H73.822L76.3545 33.3125H79.485L81.0015 27.2833L82.4671 33.3125H85.6152Z" fill="white"/>
<path fill-rule="evenodd" clip-rule="evenodd" d="M89.9819 32.8637C90.7151 33.2524 91.5368 33.446 92.4468 33.446C93.3586 33.446 94.1794 33.2524 94.9126 32.8637C95.6566 32.475 96.2397 31.9195 96.6609 31.1971C97.0947 30.4647 97.3108 29.6206 97.3108 28.6663C97.3108 27.7104 97.0997 26.8729 96.6776 26.1505C96.2564 25.4181 95.6783 24.8576 94.9459 24.4689C94.5047 24.2353 94.0317 24.0718 93.5262 23.9784C93.1917 23.9167 92.8431 23.885 92.4802 23.885C91.5702 23.885 90.7485 24.0802 90.0153 24.4689C89.2829 24.8576 88.7057 25.4181 88.2828 26.1505C87.8615 26.8729 87.6505 27.7104 87.6505 28.6663C87.6505 29.6322 87.8557 30.4764 88.2661 31.1971C88.689 31.9195 89.2604 32.475 89.9819 32.8637ZM93.8299 30.3813C93.452 30.7817 92.9915 30.9802 92.4468 30.9802C92.1265 30.9802 91.8362 30.9118 91.5768 30.7734C91.3967 30.6766 91.2315 30.5465 91.0813 30.3813C90.7268 29.9809 90.5483 29.4104 90.5483 28.6663C90.5483 27.9106 90.7318 27.3383 91.098 26.9496C91.4642 26.5509 91.9255 26.3507 92.4802 26.3507C93.0249 26.3507 93.4795 26.5509 93.8465 26.9496C94.2244 27.35 94.4129 27.9222 94.4129 28.6663C94.4129 29.4104 94.2186 29.9809 93.8299 30.3813Z" fill="white"/>
<path d="M101.753 24.3688C101.254 24.6574 100.838 25.0561 100.505 25.5683V24.0184H97.6561V33.3125H100.505V28.9983C100.505 28.2325 100.682 27.7004 101.038 27.4001C101.207 27.2516 101.416 27.1381 101.666 27.0614C101.94 26.9763 102.264 26.9329 102.636 26.9329H103.419V23.9183C102.809 23.9183 102.253 24.0685 101.753 24.3688Z" fill="white"/>
<path d="M106.629 29.4154L109.461 33.3125H112.992L109.095 28.683L112.959 24.0184H109.444L106.629 27.7988V20.9871H103.781V33.3125H106.629V29.4154Z" fill="white"/>
</g>
</g>
</svg>
