<svg width="192" height="31" viewBox="0 0 192 31" fill="none" xmlns="http://www.w3.org/2000/svg">
<path d="M26.2807 3.58349e-05V22.5451H38.7234V25.3637C36.5592 25.3633 34.4434 26.0165 32.6435 27.2409L29.8654 29.1229C28.0652 30.3466 25.9496 30.9998 23.7855 31H23.5093C21.3465 30.999 19.2323 30.3459 17.4332 29.1229L14.6551 27.2409C12.8547 26.0175 10.7392 25.3644 8.57516 25.3637H0V22.5451H13.6363C15.0741 24.0434 16.8227 25.1951 18.7539 25.9158C16.4507 24.3934 14.6441 22.2072 13.5643 19.6355C12.4844 17.0638 12.1801 14.2229 12.69 11.4745C13.1999 8.72603 14.501 6.19431 16.4277 4.20156C18.3544 2.20882 20.8195 0.845212 23.5093 0.284316C24.4211 0.0931494 25.3498 -0.00212168 26.2807 3.58349e-05Z" fill="white"/>
<path fill-rule="evenodd" clip-rule="evenodd" d="M52.8526 10.2198H46.9786V25.4153H53.3225C57.8775 25.4153 59.2605 23.4632 59.2605 21.0727C59.2605 19.2721 58.326 18.0244 56.5906 17.5111C58.0256 16.95 58.86 15.877 58.86 14.2197C58.86 11.6095 56.955 10.2198 52.8526 10.2198ZM49.7247 16.6087V12.1952H53.5201C55.6561 12.1952 56.0138 12.1952 56.0138 14.2211V14.7562C56.0138 16.6087 55.5639 16.6087 53.7764 16.6087H49.7247ZM56.3476 20.61V21.2925C56.3476 23.4386 55.7321 23.4386 53.7764 23.4386H49.7247V18.5131H53.8712C55.8029 18.5131 56.3476 18.5131 56.3476 20.61Z" fill="white"/>
<path d="M67.2672 10.2198H64.4567V25.4153H73.4977L74.3767 23.3894H67.2672V10.2198Z" fill="white"/>
<path fill-rule="evenodd" clip-rule="evenodd" d="M132.007 10.2198H137.881C141.984 10.2198 143.889 11.6097 143.889 14.2201C143.889 15.8775 143.055 16.9506 141.619 17.5117C143.355 18.0251 144.289 19.2688 144.289 21.0737C144.289 23.4643 142.906 25.4153 138.35 25.4153H132.007V10.2198ZM134.753 12.1954V16.6093H138.805C140.594 16.6093 141.043 16.6093 141.043 14.7566V14.2214C141.043 12.1967 140.689 12.1967 138.542 12.1967L134.753 12.1954ZM141.382 21.2936V20.6109C141.382 18.5138 140.836 18.5138 138.904 18.5138H134.753V23.4397H138.805C140.761 23.4397 141.382 23.4397 141.382 21.2936Z" fill="white"/>
<path d="M153.264 10.2198H150.903V25.4153H153.264V10.2198Z" fill="white"/>
<path fill-rule="evenodd" clip-rule="evenodd" d="M160.35 10.2198H167.009C170.433 10.2198 172.632 11.4908 172.632 14.4627C172.627 15.1853 172.406 15.8887 172.001 16.4776C171.595 17.0666 171.024 17.5126 170.366 17.7554C171.687 18.3411 172.231 19.2926 172.231 21.0236V25.4153H169.484V21.1942C169.484 19.4632 169.134 18.6332 167.126 18.6332H163.093V25.4153H160.35V10.2198ZM163.093 12.2198V16.6333H167.623C169.086 16.6333 169.673 16.6333 169.673 14.9951V14.1706C169.673 12.2198 168.897 12.2198 166.891 12.2198H163.093Z" fill="white"/>
<path fill-rule="evenodd" clip-rule="evenodd" d="M183.564 10.2198H178.773V25.4153H183.662C188.943 25.4153 191.951 22.9312 192 17.9043C192.024 13.1232 189.115 10.2198 183.564 10.2198ZM188.72 17.0016V18.441C188.72 23.3948 187.142 23.3946 183.778 23.3942L181.604 23.3941V12.2218H183.656C186.915 12.2218 188.72 12.2218 188.72 17.0016Z" fill="white"/>
<path d="M120.81 16.1096L127.802 10.2198H124.589L116.477 17.1772V10.2198H113.584V25.4153H116.477V19.7467L118.739 17.8531L124.814 25.4153H128.228L120.81 16.1096Z" fill="white"/>
<path fill-rule="evenodd" clip-rule="evenodd" d="M92.3271 25.4153H89.3552L87.5875 21.1833H80.9101L79.1091 25.4153H76.7386L83.3182 10.2198H85.8642L92.3271 25.4153ZM84.2803 13.2655L81.7718 19.1575L86.7406 19.1547L84.2803 13.2655Z" fill="white"/>
<path d="M106.833 20.9676H109.32C108.954 24.0402 106.462 25.8901 102.643 25.8901H102.518C98.3724 25.8901 96.117 23.6062 95.481 20.6842C95.2616 19.8202 95.1544 18.9328 95.1618 18.0429C95.1524 17.0819 95.2805 16.1242 95.5418 15.1974C96.2427 12.3533 98.4928 10.2198 102.516 10.2198H102.64C106.36 10.2198 108.964 11.9771 109.333 15.1907H106.836C106.453 12.3712 104.057 12.2792 102.932 12.2359L102.91 12.235H102.246C100.871 12.2565 99.8485 12.4124 99.2195 13.2386C98.7426 13.8674 98.4952 14.8857 98.4952 16.5274V19.5771C98.4952 21.2122 98.7426 22.2292 99.2154 22.8579C99.844 23.6895 100.867 23.8481 102.246 23.8682H102.91L102.979 23.8662C104.126 23.833 106.458 23.7655 106.833 20.9676Z" fill="white"/>
</svg>
