<svg width="111" height="31" viewBox="0 0 111 31" fill="none" xmlns="http://www.w3.org/2000/svg">
<path fill-rule="evenodd" clip-rule="evenodd" d="M27.8751 21.6819L24.6004 19.1558C24.0505 18.7316 23.2503 18.9074 22.9266 19.519C22.1229 21.0359 20.8634 22.2857 19.4202 23.1384L15.9881 19.734C15.8036 19.5509 15.5531 19.4478 15.2918 19.4478C15.0305 19.4478 14.7801 19.5509 14.5955 19.734L10.9442 23.3559C8.10492 21.864 6.16594 18.9029 6.16594 15.5C6.16594 10.6013 10.184 6.61565 15.1226 6.61565C18.1092 6.61565 20.9708 7.90574 22.8622 11.0063C23.2012 11.562 23.9471 11.7097 24.4751 11.3259L27.6528 9.01568C28.1245 8.67303 28.2497 8.0265 27.9389 7.53512C25.1818 3.171 20.3615 0.5 15.122 0.5C6.78359 0.5 0 7.22879 0 15.5C0 23.7712 6.78359 30.5 15.122 30.5C17.9727 30.5 20.7501 29.7082 23.1547 28.2109C25.2053 26.9339 26.9181 25.1885 28.1498 23.1208C28.4358 22.6407 28.319 22.0241 27.8751 21.6819ZM12.9579 24.1212L15.2913 21.8066L17.503 24.0005C16.7151 24.2508 15.9094 24.3848 15.1226 24.3848C14.3763 24.3848 13.6517 24.2925 12.9579 24.1212Z" fill="white"/>
<path d="M17.1091 18.5141C17.5346 19.097 17.8698 19.7397 18.1037 20.4209L18.1029 20.4228L18.1041 20.422L18.1048 20.4242L18.1066 20.4203C18.2067 20.3556 20.2575 18.9989 19.9582 16.7449C19.7355 15.0661 19.0941 14.493 18.3728 13.8486C17.9002 13.4263 17.3932 12.9733 16.9473 12.1584C15.8966 10.2385 17.6911 8.70052 17.6911 8.70052C17.6911 8.70052 15.2889 8.5724 14.1892 11.0775C13.0302 13.7171 14.2882 14.7205 14.2882 14.7205C14.4372 14.5108 14.5841 14.2752 14.7242 14.0057C15.0184 13.4403 15.0492 13.2357 15.0524 13.1997C15.0523 13.2036 15.0521 13.2094 15.0523 13.2169C15.0427 13.2805 14.9917 13.4964 14.7262 14.0072C14.2738 14.8769 13.8048 15.3369 13.3559 15.7772C13.3206 15.8119 13.2854 15.8464 13.2504 15.8809C13.2504 15.8809 12.2071 14.3081 12.5328 13.2404C12.6204 12.9532 8.23662 16.7258 12.4937 20.4223L12.4952 20.4242C12.6238 19.9667 12.849 19.3644 13.2583 18.7316C13.9343 17.687 14.7771 17.0792 15.2908 16.767C15.7793 17.0954 16.4791 17.6506 17.1091 18.5141Z" fill="white"/>
<path fill-rule="evenodd" clip-rule="evenodd" d="M30.7406 29.7873H34.0364C34.6867 29.7873 35.2649 29.375 35.4743 28.7632L36.8246 24.8141C37.034 24.2024 37.6122 23.7906 38.2625 23.7906H45.3257C45.9793 23.7906 46.5599 24.2062 46.7664 24.8222L48.0856 28.7551C48.2921 29.3712 48.8726 29.7868 49.5263 29.7868H52.9339C53.9833 29.7868 54.7166 28.7551 54.3651 27.7726L45.2705 2.34583C45.0553 1.74411 44.4819 1.34233 43.8394 1.34233H39.8698C39.2282 1.34233 38.6553 1.74364 38.4396 2.3444L29.3105 27.7712C28.9575 28.7537 29.6908 29.7873 30.7406 29.7873ZM38.9924 18.5631L41.043 12.4896C41.2195 11.9885 41.3808 11.4821 41.5266 10.9713C41.6678 10.4717 41.7647 10.0556 41.8166 9.72201C41.868 10.0551 41.9713 10.4783 42.1259 10.9903C42.2806 11.5033 42.4356 12.0029 42.5903 12.4896L44.6404 18.5631H38.9924Z" fill="white"/>
<path d="M61.8909 29.7868H58.8572C58.0139 29.7868 57.3304 29.1092 57.3304 28.2732V2.85591C57.3304 2.01991 58.0139 1.34233 58.8572 1.34233H62.3829C63.0076 1.34233 63.5698 1.71978 63.8008 2.29571L71.7561 22.0839C71.8255 22.2556 72.0705 22.2561 72.1403 22.0839L80.1326 2.29333C80.246 2.01255 80.4416 1.77188 80.6943 1.60237C80.947 1.43286 81.245 1.34229 81.5501 1.34233H85.1552C85.9985 1.34233 86.682 2.01991 86.682 2.85591V28.2732C86.682 29.1092 85.9985 29.7868 85.1552 29.7868H82.1209C81.2777 29.7868 80.5942 29.1092 80.5942 28.2732V20.0234C80.5942 19.0243 80.6067 18.1916 80.6327 17.525C80.6582 16.8589 80.691 16.2758 80.7295 15.7762C80.7478 15.5409 80.4166 15.466 80.3305 15.6865L75.1942 28.821C75.083 29.1056 74.8875 29.3501 74.6335 29.5226C74.3795 29.695 74.0788 29.7873 73.771 29.7873H70.1264C69.4949 29.7873 68.9288 29.4017 68.7016 28.8177L63.6506 15.8177C63.5645 15.5958 63.23 15.6731 63.2521 15.9098C63.3046 16.4657 63.3402 17.0426 63.3595 17.6409C63.3984 18.8706 63.4177 20.2678 63.4177 21.8305V28.2737C63.4177 29.1097 62.7342 29.7868 61.8909 29.7868Z" fill="white"/>
<path fill-rule="evenodd" clip-rule="evenodd" d="M106.358 2.53384C107.821 3.32833 108.96 4.43634 109.776 5.85881C110.592 7.28127 111 8.93945 111 10.8362C111 12.733 110.592 14.3917 109.776 15.8141C108.96 17.2361 107.821 18.3451 106.358 19.1391C104.895 19.9341 103.179 20.3311 101.211 20.3311H97.3803C96.5355 20.3311 95.8508 21.0086 95.8508 21.8447V28.2737C95.8508 29.1097 95.1661 29.7873 94.3213 29.7873H91.0878C90.243 29.7873 89.5583 29.1097 89.5583 28.2737V2.85593C89.5583 2.01993 90.243 1.34233 91.0878 1.34233H101.211C103.179 1.34233 104.894 1.73982 106.358 2.53384ZM99.8129 14.7958C101.34 14.7958 102.48 14.4694 103.231 13.8157C103.982 13.162 104.357 12.169 104.357 10.8367C104.357 9.50442 103.982 8.51142 103.231 7.85769C102.48 7.20396 101.341 6.87758 99.8129 6.87758H97.3808C96.536 6.87758 95.8513 7.55516 95.8513 8.39117V13.2822C95.8513 14.1182 96.536 14.7958 97.3808 14.7958H99.8129Z" fill="white"/>
</svg>
