<svg width="110" height="31" viewBox="0 0 110 31" fill="none" xmlns="http://www.w3.org/2000/svg">
<g id="hero-trustedby">
<g id="dimo">
<path fill-rule="evenodd" clip-rule="evenodd" d="M94.3815 30.4993C92.4473 30.5153 90.5292 30.1383 88.7398 29.39C86.9498 28.642 85.3235 27.5375 83.9563 26.1414C82.5883 24.7452 81.5063 23.0852 80.7733 21.2581C80.0411 19.4309 79.6716 17.4731 79.687 15.4987C79.6716 13.5246 80.0418 11.567 80.7748 9.74015C81.5078 7.91327 82.5897 6.25355 83.957 4.85769C85.3243 3.46182 86.9505 2.35773 88.7398 1.60971C90.5299 0.861687 92.4473 0.484701 94.3815 0.500707C96.3164 0.481438 98.2353 0.856286 100.027 1.60332C101.818 2.35034 103.445 3.45456 104.814 4.85135C106.182 6.24816 107.263 7.90948 107.996 9.73812C108.727 11.5668 109.094 13.5261 109.075 15.5014C109.094 17.4764 108.726 19.4354 107.995 21.2638C107.263 23.0921 106.181 24.7532 104.813 26.1496C103.445 27.5461 101.818 28.6502 100.026 29.3972C98.2353 30.1439 96.3157 30.5186 94.3815 30.4993ZM94.3815 26.9021C100.626 26.9021 105.35 21.8734 105.35 15.4987C105.35 9.12403 100.626 4.09532 94.3815 4.09532C88.1758 4.09532 83.4515 9.12133 83.4515 15.4987C83.4515 21.8761 88.1758 26.9021 94.3815 26.9021Z" fill="white"/>
<path d="M76.0657 29.8561H72.2462V6.88907C72.2453 6.33611 72.0298 5.806 71.6469 5.41499C71.2639 5.024 70.7445 4.80404 70.203 4.80334C69.8153 4.8049 69.436 4.91828 69.1087 5.13046C68.7816 5.34262 68.5197 5.64491 68.3535 6.00244L59.2865 25.7034C58.8111 26.73 58.0604 27.598 57.1214 28.2072C56.1824 28.8159 55.0935 29.1405 53.9813 29.1432C52.4266 29.1417 50.9366 28.5106 49.8373 27.3886C48.7383 26.2666 48.12 24.7452 48.1187 23.1582V8.83063C48.1174 7.76294 47.7013 6.73939 46.9617 5.98445C46.2223 5.2295 45.2196 4.80476 44.1738 4.80334C43.1284 4.80547 42.1265 5.23052 41.3876 5.98538C40.6486 6.74026 40.233 7.76339 40.2316 8.83063V29.8533H36.4121V8.83063C36.414 6.72952 37.2326 4.71506 38.6877 3.22913C40.1428 1.74319 42.1157 0.907123 44.1738 0.904297C46.2323 0.906418 48.2061 1.74218 49.6617 3.22819C51.1173 4.71419 51.9361 6.72905 51.9382 8.83063V23.1582C51.9382 23.4324 51.9909 23.7034 52.0935 23.9566C52.1962 24.2095 52.3469 24.4393 52.5364 24.6333C52.7261 24.8268 52.9514 24.9805 53.1991 25.0852C53.4471 25.1901 53.7128 25.2439 53.9813 25.2439C54.3689 25.2426 54.7482 25.1295 55.0757 24.9174C55.403 24.7051 55.6646 24.4026 55.8306 24.045L64.8977 4.34401C65.3732 3.3175 66.1239 2.44957 67.0629 1.84079C68.0019 1.23202 69.0906 0.907315 70.203 0.904297C71.7572 0.906415 73.2472 1.53763 74.3459 2.65954C75.4446 3.78143 76.0635 5.30246 76.0657 6.88907V29.8561Z" fill="white"/>
<path d="M27.5693 0.917725H31.2711V29.8589H27.5693V0.917725Z" fill="white"/>
<path fill-rule="evenodd" clip-rule="evenodd" d="M8.51319 0.917847C17.2167 0.917847 23.6051 7.11094 23.6051 15.3871C23.6051 23.6631 17.2167 29.859 8.51319 29.859L4.08172 29.8338H0.220707L0.220703 0.917847H8.51319ZM8.51319 4.46439L4.08172 4.4644V26.3124H8.51319C15.341 26.3124 19.8511 21.6629 19.8511 15.3871C19.8511 9.11123 15.341 4.46439 8.51319 4.46439Z" fill="white"/>
</g>
</g>
</svg>
