<svg width="122" height="40" viewBox="0 0 122 40" fill="none" xmlns="http://www.w3.org/2000/svg">
<path d="M19.9918 0.227539H12.5062L6.66394 8.84592H14.1844L19.9918 0.227539ZM9.29316 28.3843H22.9559V22.1926H9.29316V18.2703H23.3717V10.8752H0V39.7723H23.5796V32.3759H9.29316V28.3843ZM44.8537 21.5723L36.3909 10.8752H26.6545V39.7723H36.1419V24.6329H36.7083L44.8512 34.8162L52.9941 24.6341H53.5966V39.7723H63.0491V10.8752H53.3837L44.8512 21.5723H44.8537ZM76.4093 28.3843H90.107V22.1926H76.4093V18.2703H90.5228V10.8752H67.151V39.7723H90.7307V32.3759H76.4093V28.3843ZM122 10.8752H92.7822V19.6805H102.647V39.7723H112.169V19.6805H122V10.8752Z" fill="white"/>
</svg>
