<svg width="151" height="39" viewBox="0 0 151 39" fill="none" xmlns="http://www.w3.org/2000/svg">
<path d="M12.4875 0L14.6183 9.03746L17.561 8.12277L22.9725 6.4326L25.0018 30.6499L18.5496 20.2315L16.4591 16.8422L19.7201 30.6502H5.25489L8.5154 16.8441L0 30.6499L0.988629 18.5413L2.00328 6.4326L7.44074 8.12277L10.3575 9.03377L12.4875 0Z" fill="white"/>
<path d="M62.4917 0H57.8348V13.0673H41.7564V0H37.0996V30.6502H41.7564V17.1287H57.8348V30.6502H62.4917V0Z" fill="white"/>
<path fill-rule="evenodd" clip-rule="evenodd" d="M70.7907 20.8874H86.7909L86.7915 20.8801C86.8433 20.2518 86.895 19.6235 86.895 18.9954C86.895 12.0076 82.9926 8.34982 76.6706 8.34982C70.2964 8.34982 66.2117 12.6635 66.2117 19.7521C66.2117 27.0426 70.2704 31.1041 76.9566 31.1041C82.4202 31.1041 85.49 28.4048 86.4267 23.9397H81.9519C81.1714 26.3867 79.6624 27.4209 76.9307 27.4209C73.4965 27.4209 71.1549 24.9488 70.7907 20.8874ZM82.238 17.507H70.9469C71.5972 14.0762 73.7306 12.0329 76.6706 12.0581C80.2348 12.0581 82.1079 14.3033 82.238 17.507Z" fill="white"/>
<path d="M110.128 16.0186V30.6752H105.705V16.9267C105.705 15.615 105.705 11.9571 101.048 11.9571C97.2759 11.9571 94.7783 14.5807 94.7783 19.6259V30.6752H90.3554V8.80381H94.5442V12.2851C96.1831 9.66151 99.331 8.37495 102.063 8.37495C107.058 8.34973 110.128 11.276 110.128 16.0186Z" fill="white"/>
<path d="M127.794 12.9411L127.976 8.52646C127.507 8.40034 126.987 8.34987 126.519 8.32465C123.215 8.32465 120.613 10.3175 119.442 13.597V8.77873H115.254V30.65H119.677V20.9631C119.677 15.4637 121.524 12.815 125.946 12.815C126.545 12.815 127.143 12.8402 127.794 12.9411Z" fill="white"/>
<path d="M146.629 8.80397H151V28.859C151 35.8468 147.332 39 140.411 39C134.792 39 131.201 36.3764 130.785 31.7852H135.338C135.754 34.1818 137.575 35.3927 140.645 35.3927C144.366 35.3927 146.603 33.4502 146.603 28.859V26.6391C144.886 28.9851 141.92 30.196 139.319 30.196C134.349 30.196 131.279 27.2696 131.279 22.5272V8.77875H135.702V21.6442C135.702 22.9561 135.702 26.6139 140.359 26.6139C144.132 26.6139 146.629 23.9903 146.629 18.945V8.80397Z" fill="white"/>
</svg>
