<svg width="134" height="37" viewBox="0 0 134 37" fill="none" xmlns="http://www.w3.org/2000/svg">
<g id="hero-trustedby">
<g id="heurist">
<path d="M16.1902 0V18.4992H12.1407V6.93912L8.09122 9.24809L5.92283 10.4911L4.0417 11.5601V25.4384L5.92283 26.5089L8.09122 27.7519V18.4992H12.1407V34.6864L11.8527 34.523L4.84018 30.5129L4.0417 30.0609L-0.0078125 27.7519V9.24809L4.0417 6.93912L4.84018 6.48558L11.8527 2.47695L12.1407 2.31355L16.1902 0Z" fill="white"/>
<path fill-rule="evenodd" clip-rule="evenodd" d="M20.2452 18.4992H16.1902V37L20.2452 34.6864L20.5332 34.523L27.5457 30.5129L28.3442 30.0609L32.3937 27.7519V9.24809L28.3442 6.93912L27.5457 6.48558L20.5332 2.47695L20.2452 2.31355V18.4992ZM20.2452 18.4992H24.2947V9.24809L26.4631 10.4911L28.3442 11.5601V25.4384L26.4631 26.5089L24.2947 27.7519L20.2452 30.0609V18.4992Z" fill="white"/>
<path d="M107.982 11.641V8.76706H104.37V11.641H107.982Z" fill="white"/>
<path d="M107.684 14.4341H104.641V27.8099H107.684V14.4341Z" fill="white"/>
<path d="M124.431 14.4341H127.69V10.8347H130.732V14.4341H133.992V16.8775H130.732V27.8099H127.69V16.8775H124.431V14.4341Z" fill="white"/>
<path d="M110.697 23.4058H113.495C113.64 24.0869 114.012 24.6412 114.61 25.0719C115.207 25.4826 116.013 25.6888 117.027 25.6888C117.678 25.6888 118.186 25.617 118.548 25.4735C118.781 25.3864 118.97 25.2795 119.115 25.1497C119.173 25.0978 119.224 25.0444 119.267 24.9863L119.292 24.9497L119.335 24.8825C119.498 24.6321 119.58 24.3465 119.58 24.0243C119.58 23.6303 119.463 23.3249 119.227 23.1111C119.163 23.0469 119.088 22.9858 119.004 22.9278C118.806 22.7919 118.554 22.6743 118.249 22.5735C117.815 22.43 117.271 22.3048 116.62 22.1979C115.949 22.036 115.288 21.8573 114.637 21.6603C114.385 21.584 114.143 21.5015 113.91 21.4114C113.54 21.2694 113.193 21.1106 112.871 20.935C112.548 20.7486 112.265 20.5333 112.025 20.292C111.874 20.1409 111.74 19.979 111.622 19.8064C111.331 19.3407 111.186 18.7772 111.186 18.1144C111.186 17.809 111.22 17.5188 111.288 17.2455C111.328 17.0836 111.381 16.9279 111.445 16.7782C111.489 16.6744 111.538 16.5736 111.594 16.4758C111.884 15.9749 112.282 15.5535 112.789 15.2145C113.132 14.9839 113.518 14.7899 113.944 14.6342C114.147 14.5593 114.359 14.4921 114.582 14.4341C115.271 14.2371 116.022 14.1394 116.837 14.1394C118.013 14.1394 118.991 14.3272 119.771 14.7029C120.288 14.9472 120.72 15.2557 121.07 15.6268C121.259 15.8283 121.424 16.0482 121.563 16.288C121.98 16.9691 122.188 17.7479 122.188 18.6245H119.526C119.476 18.3755 119.409 18.1495 119.325 17.948C119.169 17.5708 118.956 17.2776 118.684 17.0668C118.478 16.908 118.221 16.7874 117.914 16.708C117.699 16.6515 117.459 16.6148 117.193 16.5965L116.98 16.5858L116.81 16.5843C115.976 16.5843 115.343 16.7263 114.908 17.0134C114.474 17.3005 114.256 17.6945 114.256 18.1953C114.256 18.571 114.393 18.8749 114.664 19.1085C114.953 19.3239 115.361 19.5117 115.887 19.672C116.411 19.8339 117.027 19.9943 117.733 20.1561C118.385 20.3348 119 20.5226 119.58 20.7196C120.159 20.8983 120.676 21.1319 121.129 21.4175C121.599 21.6863 121.97 22.0452 122.243 22.4926C122.514 22.94 122.65 23.4959 122.65 24.1571L122.645 24.374L122.631 24.5603C122.568 25.2139 122.347 25.7881 121.97 26.2798C121.738 26.5959 121.448 26.8738 121.1 27.1136C120.957 27.2128 120.805 27.3045 120.643 27.3885C120.464 27.4831 120.272 27.5702 120.069 27.6496C119.683 27.7901 119.259 27.8985 118.798 27.9749C118.573 28.0115 118.338 28.0405 118.095 28.0619C117.764 28.0909 117.417 28.1062 117.054 28.1062C116.022 28.1062 115.125 27.9901 114.365 27.7565C113.622 27.5244 112.998 27.2205 112.491 26.8433C112.002 26.4676 111.622 26.0645 111.349 25.6354C111.078 25.2047 110.888 24.7939 110.779 24.3999C110.688 24.0059 110.661 23.6746 110.697 23.4058Z" fill="white"/>
<path d="M94.2639 14.4341H97.2794V18.4366C97.3072 18.3313 97.3381 18.2244 97.3728 18.1159C97.406 18.0106 97.4431 17.9037 97.4832 17.7952L97.5481 17.6212L97.6014 17.4883L97.7041 17.2424L97.769 17.0943C98.0037 16.6102 98.3111 16.1445 98.6918 15.697C98.8192 15.5489 98.9543 15.4099 99.0979 15.2801C99.4045 15.0007 99.7489 14.764 100.131 14.5685C100.416 14.428 100.725 14.3226 101.058 14.2509C101.402 14.176 101.773 14.1394 102.169 14.1394V16.9859C101.754 16.9859 101.363 17.0225 100.997 17.0974C100.5 17.1982 100.049 17.3677 99.6424 17.6044C98.9543 18.0167 98.4022 18.5176 97.9852 19.1085C97.6833 19.5377 97.4477 19.9576 97.2794 20.3669V27.8099H94.2639V14.4341Z" fill="white"/>
<path d="M87.9185 27.8099H90.9341V14.4341H87.9185V22.0116C87.7695 22.4269 87.5517 22.856 87.2668 23.2974C87.0768 23.5967 86.856 23.8731 86.6035 24.1281C86.4258 24.3068 86.2328 24.4748 86.0243 24.6321L85.8266 24.7756L85.6644 24.8825C84.9942 25.3116 84.1787 25.5269 83.2196 25.5269C82.5493 25.5269 81.9609 25.4292 81.4535 25.2322C80.9462 25.0352 80.5485 24.7038 80.2581 24.2381C79.9863 23.754 79.8512 23.0912 79.8512 22.2498V14.4341H76.8357V22.8148C76.8357 23.8532 76.9986 24.713 77.3245 25.3925C77.6504 26.0736 78.0758 26.6096 78.6017 27.0036C79.0342 27.3182 79.5021 27.558 80.0041 27.7229C80.1323 27.7657 80.262 27.8038 80.394 27.8374C81.0643 28.0161 81.7253 28.1047 82.3771 28.1047C83.2829 28.1047 84.052 27.9535 84.686 27.6496C85.32 27.3258 85.8451 26.9242 86.2614 26.4401C86.578 26.0752 86.8467 25.6995 87.0676 25.3162C87.1494 25.1726 87.2251 25.0276 87.2938 24.8825C87.5656 24.3266 87.7556 23.8166 87.8645 23.3508L87.9185 23.1492V27.8099Z" fill="white"/>
<path fill-rule="evenodd" clip-rule="evenodd" d="M71.1583 23.4058H74.0649C73.9205 24.319 73.5584 25.1345 72.9784 25.8507C72.417 26.5486 71.6471 27.1029 70.6695 27.5152C69.6919 27.9092 68.5235 28.1062 67.1652 28.1062C66.6571 28.1062 66.1675 28.0757 65.6949 28.0146C65.3404 27.9688 64.996 27.9061 64.6616 27.8267C64.091 27.6924 63.5489 27.5076 63.0361 27.2739C61.823 26.7013 60.8724 25.895 60.1843 24.8565C59.4963 23.8181 59.1519 22.5827 59.1519 21.1503C59.1519 19.7347 59.487 18.4992 60.1573 17.4425C60.8268 16.3873 61.7504 15.5718 62.928 14.9991C63.0886 14.9228 63.2523 14.851 63.4199 14.7838C64.0068 14.5502 64.6354 14.3791 65.3034 14.2722C65.8601 14.1837 66.4447 14.1394 67.0571 14.1394C68.6687 14.1394 70.0085 14.4265 71.0772 14.9991C72.1637 15.5535 72.9692 16.3949 73.4943 17.5234C73.7506 18.064 73.9337 18.6764 74.0433 19.359C74.1584 20.0752 74.1931 20.8693 74.1468 21.7413H62.2214C62.3118 22.4926 62.5566 23.1737 62.955 23.7815C63.1226 24.0197 63.3141 24.2381 63.5288 24.4351C63.8469 24.7283 64.2176 24.9756 64.6392 25.1788C65.345 25.501 66.169 25.6613 67.1111 25.6613C68.1613 25.6613 69.0393 25.4567 69.7459 25.0444C69.9591 24.9222 70.1506 24.7893 70.3197 24.6458C70.5328 24.4641 70.7112 24.264 70.8548 24.0456C70.9413 23.9128 71.0147 23.7738 71.0757 23.6287C71.1066 23.557 71.1344 23.4821 71.1583 23.4058ZM64.9813 16.8897C64.5983 17.0348 64.2485 17.2287 63.9327 17.47C63.6964 17.6456 63.4848 17.8349 63.2979 18.0396C63.0392 18.3236 62.8276 18.6367 62.6639 18.9787C62.5465 19.2216 62.4531 19.4796 62.3844 19.753H71.1043C71.0317 18.7497 70.6239 17.9709 69.8818 17.4165C69.6463 17.2348 69.3876 17.0821 69.1065 16.9569C68.5019 16.6896 67.7914 16.5568 66.9752 16.5568C66.2308 16.5568 65.5667 16.6667 64.9813 16.8897Z" fill="white"/>
<path d="M40.841 20.3974V27.8099H37.7444V10.4056H40.841V17.7922H52.9834V10.4056H56.0529V27.8099H52.9834V20.3974H40.841Z" fill="white"/>
</g>
</g>
</svg>
