<svg width="105" height="41" viewBox="0 0 105 41" fill="none" xmlns="http://www.w3.org/2000/svg">
<path d="M4.63442 7.20094L7.60875 13.539C7.98918 14.3673 7.60875 15.2316 6.74411 15.4116L1.24507 16.7441C0.553362 16.9241 0 17.6444 0 18.3646V25.1708C0 26.3232 0.899215 27.0435 1.97136 26.7914L7.08996 25.567C7.78169 25.4229 8.33503 24.6667 8.33503 23.9464L8.36962 16.9601C8.36962 15.9878 9.1305 15.0155 10.0297 14.7994L26.8036 10.6221C27.2185 10.514 27.5298 10.0819 27.5298 9.64973V1.51108C27.5298 0.826854 27.0111 0.3587 26.3539 0.538759L5.29154 5.79647C4.63442 5.94053 4.35775 6.58874 4.63442 7.20094Z" fill="white"/>
<path d="M12.0896 27.7284L0.725377 30.449C0.310876 30.5564 0 30.986 0 31.4156V39.5058C0 40.1859 0.518128 40.6156 1.17442 40.4725L17.0291 36.6777C17.6854 36.5345 17.9617 35.8901 17.6854 35.2816L14.8184 29.1603C14.3694 28.1937 14.8184 27.1914 15.8202 26.9766L26.1827 24.3992C26.9081 24.2202 27.5298 23.4327 27.5298 22.6451V15.1634C27.5298 14.4832 27.0117 14.0179 26.3554 14.1969L11.3988 17.884C10.4662 18.0988 10.0517 19.0295 10.4662 19.9245L13.0914 25.5447C13.5404 26.5112 13.0914 27.4778 12.0896 27.7284Z" fill="white"/>
<path d="M46.573 27.1169H58.0095V31.9627H41.2949V9.34888H46.573V27.1169Z" fill="white"/>
<path d="M60.959 31.9627H65.875V9.34888H60.959V31.9627Z" fill="white"/>
<path d="M74.7237 31.9627H69.8076V27.0466H74.7237V31.9627Z" fill="white"/>
<path d="M83.7653 23.1433H94.4561V18.6852H83.7653V13.9363H95.3708V9.34888H78.6562V31.9627H83.7653V23.1433Z" fill="white"/>
<path d="M104.22 31.9627H99.3037V9.34888H104.22V31.9627Z" fill="white"/>
</svg>
