<svg width="158" height="45" viewBox="0 0 158 45" fill="none" xmlns="http://www.w3.org/2000/svg">
<g id="hero-trustedby">
<g id="plume">
<path id="Vector" d="M51.0293 37.1221V12.0855H54.5449L54.6869 15.8267H54.9C55.3498 14.6036 56.131 13.6204 57.2436 12.8769C58.3799 12.1335 59.7293 11.7618 61.2918 11.7618C62.4281 11.7618 63.4578 11.9776 64.3812 12.4093C65.328 12.8409 66.1447 13.4764 66.8313 14.3158C67.5179 15.1551 68.0386 16.1863 68.3937 17.4094C68.7725 18.6325 68.9619 20.0353 68.9619 21.618C68.9619 23.7284 68.6422 25.515 68.0031 26.9779C67.3639 28.4408 66.4644 29.5559 65.3044 30.3234C64.1681 31.0668 62.8304 31.4385 61.2918 31.4385C60.2738 31.4385 59.3268 31.2705 58.4509 30.9348C57.5987 30.5991 56.8648 30.1315 56.2493 29.532C55.6574 28.9084 55.2078 28.1889 54.9 27.3737H54.6869V37.1221H51.0293ZM60.0133 28.3809C61.055 28.3809 61.9664 28.129 62.7477 27.6254C63.5289 27.1218 64.1325 26.3664 64.5587 25.3592C65.0084 24.352 65.2333 23.105 65.2333 21.618C65.2333 20.1073 65.0084 18.8603 64.5587 17.877C64.1325 16.8698 63.5289 16.1144 62.7477 15.6108C61.9664 15.0831 61.055 14.8194 60.0133 14.8194C58.877 14.8194 57.9065 15.0952 57.1015 15.6468C56.3203 16.1743 55.7285 16.8817 55.326 17.7691C54.9236 18.6325 54.7224 19.5558 54.7224 20.5389V22.6613C54.7224 23.4047 54.8289 24.1242 55.042 24.8196C55.2787 25.4911 55.622 26.1026 56.0718 26.6542C56.5215 27.1817 57.0779 27.6015 57.7407 27.9132C58.4036 28.2249 59.1612 28.3809 60.0133 28.3809ZM72.8416 31.1147V4.89111H76.4991V31.1147H72.8416ZM88.1497 31.4385C86.7531 31.4385 85.5457 31.1627 84.5278 30.6111C83.5098 30.0356 82.7286 29.1842 82.1841 28.0572C81.6632 26.9059 81.4029 25.4911 81.4029 23.8124V12.0855H85.0603V22.8771C85.0603 24.0522 85.2024 25.0474 85.4865 25.8628C85.7942 26.6782 86.2795 27.3017 86.9424 27.7333C87.6052 28.141 88.4575 28.3449 89.4991 28.3449C90.5408 28.3449 91.4404 28.093 92.1978 27.5894C92.9791 27.0858 93.5828 26.3784 94.0088 25.4671C94.435 24.5558 94.648 23.5246 94.648 22.3735V12.0855H98.3056V31.1147H94.8256L94.648 27.2657H94.435C93.9615 28.5606 93.1567 29.58 92.0204 30.3234C90.8841 31.0668 89.5938 31.4385 88.1497 31.4385ZM103.254 31.1147V12.0855H106.734L106.876 15.8625H107.089C107.61 14.5196 108.427 13.5124 109.539 12.8409C110.676 12.1455 111.93 11.7977 113.303 11.7977C114.676 11.7977 115.907 12.1335 116.996 12.805C118.109 13.4764 118.902 14.6275 119.375 16.2583H119.66C120.18 14.7715 121.033 13.6563 122.216 12.9129C123.424 12.1695 124.773 11.7977 126.264 11.7977C127.496 11.7977 128.596 12.0615 129.567 12.5891C130.561 13.1168 131.342 13.968 131.91 15.1432C132.479 16.3182 132.763 17.877 132.763 19.8195V31.1147H129.141V20.5749C129.141 19.28 128.987 18.2127 128.679 17.3734C128.372 16.51 127.91 15.8746 127.294 15.4669C126.679 15.0592 125.874 14.8553 124.88 14.8553C123.862 14.8553 122.974 15.1191 122.216 15.6468C121.459 16.1743 120.867 16.8817 120.441 17.7691C120.038 18.6325 119.837 19.6157 119.837 20.7188V31.1147H116.18V20.5749C116.18 19.28 116.026 18.2127 115.718 17.3734C115.41 16.51 114.949 15.8746 114.333 15.4669C113.718 15.0592 112.924 14.8553 111.954 14.8553C110.912 14.8553 110.013 15.1191 109.255 15.6468C108.498 16.1743 107.906 16.8817 107.48 17.7691C107.077 18.6325 106.876 19.6157 106.876 20.7188V31.1147H103.254ZM145.501 31.4385C143.631 31.4385 142.009 31.0427 140.636 30.2514C139.287 29.436 138.245 28.2969 137.511 26.8341C136.778 25.3473 136.411 23.6325 136.411 21.69C136.411 19.6756 136.778 17.925 137.511 16.4382C138.245 14.9512 139.275 13.8122 140.601 13.0209C141.95 12.2054 143.536 11.7977 145.359 11.7977C147.419 11.7977 149.112 12.2654 150.437 13.2006C151.786 14.1119 152.757 15.371 153.348 16.9778C153.941 18.5605 154.142 20.3471 153.953 22.3375H140.033C140.056 23.6325 140.293 24.7477 140.743 25.683C141.192 26.5943 141.82 27.2897 142.625 27.7693C143.454 28.249 144.412 28.4888 145.501 28.4888C146.756 28.4888 147.821 28.201 148.697 27.6254C149.573 27.0259 150.13 26.2345 150.366 25.2512H153.846C153.68 26.4984 153.219 27.5894 152.461 28.5248C151.703 29.436 150.721 30.1554 149.514 30.6831C148.33 31.1867 146.992 31.4385 145.501 31.4385ZM140.067 20.2512L139.713 19.7116H150.721L150.366 20.3231C150.413 19.0042 150.212 17.9369 149.763 17.1216C149.336 16.2822 148.732 15.6707 147.952 15.2871C147.194 14.9033 146.318 14.7114 145.323 14.7114C144.282 14.7114 143.37 14.9393 142.589 15.3949C141.808 15.8267 141.205 16.4621 140.778 17.3015C140.352 18.1408 140.116 19.124 140.067 20.2512Z" fill="white"/>
<path id="Vector_2" d="M38.118 6.4231V19.2695L31.7773 12.8463L38.118 6.4231Z" fill="white" fill-opacity="0.95"/>
<path id="Vector_3" d="M38.1188 6.4231H25.4375L31.7782 12.8463L38.1188 6.4231Z" fill="white"/>
<path id="Vector_4" d="M19.0966 12.8462V25.6926L12.7559 19.2695L19.0966 12.8462Z" fill="white" fill-opacity="0.75"/>
<path id="Vector_5" d="M12.7567 19.27V32.1164L6.41602 25.6932L12.7567 19.27Z" fill="white" fill-opacity="0.55"/>
<path id="Vector_6" d="M25.4375 19.2694H38.1188L31.7782 12.8462L25.4375 19.2694Z" fill="white" fill-opacity="0.85"/>
<path id="Vector_7" d="M19.0977 25.6932H31.779L25.4383 19.27L19.0977 25.6932Z" fill="white" fill-opacity="0.7"/>
<path id="Vector_8" d="M12.7559 32.1164H25.4372L19.0965 25.6931L12.7559 32.1164Z" fill="white" fill-opacity="0.5"/>
<path id="Vector_9" d="M38.1188 19.269H25.4375L31.7782 25.6923L38.1188 19.269Z" fill="white" fill-opacity="0.8"/>
<path id="Vector_10" d="M31.779 25.6931H19.0977L25.4383 32.1163L31.779 25.6931Z" fill="white" fill-opacity="0.65"/>
<path id="Vector_11" d="M25.4373 32.1162H12.7559L19.0966 38.5394L25.4373 32.1162Z" fill="white" fill-opacity="0.45"/>
<path id="Vector_12" d="M25.4375 19.2695V6.4231L31.7782 12.8463L25.4375 19.2695Z" fill="white" fill-opacity="0.9"/>
<path id="Vector_13" d="M19.0977 25.6926V12.8462L25.4383 19.2694L19.0977 25.6926Z" fill="white" fill-opacity="0.8"/>
<path id="Vector_14" d="M12.7559 32.1155V19.269L19.0965 25.6922L12.7559 32.1155Z" fill="white" fill-opacity="0.6"/>
<path id="Vector_15" fill-rule="evenodd" clip-rule="evenodd" d="M6.41562 38.5394L12.7562 32.1162L19.0969 38.5394H8.1824L3.41211 41.582L6.41562 38.5394Z" fill="#F8F8F8" fill-opacity="0.3"/>
<path id="Vector_16" fill-rule="evenodd" clip-rule="evenodd" d="M7.60726 37.332L7.60746 37.3322L3.41211 41.5821L6.4153 36.7504V25.6931L12.756 32.1163L7.60726 37.332Z" fill="#F9F9F9" fill-opacity="0.4"/>
</g>
</g>
</svg>
