<svg width="130" height="27" viewBox="0 0 130 27" fill="none" xmlns="http://www.w3.org/2000/svg">
<g id="hero-trustedby">
<g id="zama">
<path fill-rule="evenodd" clip-rule="evenodd" d="M120.463 0.5H115.337H110.468L100.754 26.5H106.022L108.376 19.0194H122.339L124.694 26.5H130L120.463 0.5ZM115.337 0.5L120.452 14.8442H110.218L115.337 0.5Z" fill="white"/>
<path d="M0 22.4799V26.4999H25.5397V22.3645H7.4488L25.1184 9.93279V4.81217L0 22.4799Z" fill="white"/>
<path d="M90.7456 0.5H95.7196V26.5H90.7456V0.5Z" fill="white"/>
<path d="M86.1999 0.5H90.7456L82.8861 26.5H76.988L69.1286 0.5H73.6708L79.9371 21.6284L86.1999 0.5Z" fill="white"/>
<path d="M64.1544 0.5H69.1286L69.1285 26.5H64.1544V0.5Z" fill="white"/>
<path fill-rule="evenodd" clip-rule="evenodd" d="M49.1965 0.5H44.0702H39.2058L29.4912 26.5H34.7592L37.1134 19.0194H51.0729L53.4272 26.5H58.7376L49.1965 0.5ZM44.0702 0.5L49.1894 14.8442H38.9544L44.0702 0.5Z" fill="white"/>
<path d="M0.420677 4.92776V0.5H25.1178L25.1184 4.81217L0.420677 4.92776Z" fill="white"/>
</g>
</g>
</svg>
